<svg width="268" height="268" fill="none" xmlns="http://www.w3.org/2000/svg"><g filter="url(#a)"><path d="M79.392 114.539c.778 0 1.44.272 2.024.661.078 0 .155.039.233.078l4.398 3.153 47.836-34.135 47.835 34.135 4.398-3.153s.39-.194.584-.311c.078 0 .156-.078.234-.117.817-.428 1.751-.506 2.607-.35L136.14 76.356a3.856 3.856 0 0 0-4.515 0l-54.49 38.922s-.079.117-.118.156c.662-.545 1.48-.895 2.375-.895Z" fill="url(#b)"/></g><g filter="url(#c)"><path d="M191.606 115.627c-1.21-1.4-3.117-1.676-4.709-.855-.078 0-.157.079-.23.118-.197.118-.388.158-.585.31l-49.978 35.69a3.86 3.86 0 0 1-4.517 0l-49.939-35.657s-.157-.039-.236-.078c-.585-.388-1.283-.664-2.025-.664a3.909 3.909 0 0 0-3.887 3.898v70.059a3.9 3.9 0 0 0 3.892 3.893h108.979a3.901 3.901 0 0 0 3.893-3.893v-69.007c.427-1.243.27-2.683-.664-3.774v-.04h.006Z" fill="url(#d)"/></g><g filter="url(#e)"><path d="M131.625 150.971a3.857 3.857 0 0 0 4.515 0l32.539-23.237V89.162a6.428 6.428 0 0 0-6.422-6.422h-57.215a6.429 6.429 0 0 0-6.422 6.422v38.222l33.005 23.587Z" fill="url(#f)"/></g><g filter="url(#g)"><circle cx="134" cy="134" r="27" fill="#fff"/></g><g filter="url(#h)"><path fill-rule="evenodd" clip-rule="evenodd" d="M131.981 142.911c.676.796 1.656 1.2 2.65 1.2l.013.014c.787 0 1.56-.256 2.208-.782l8.28-6.745a3.347 3.347 0 0 0 1.228-2.293 3.285 3.285 0 0 0-.786-2.468 4.381 4.381 0 0 0-.442-.432l-8.293-6.757c-1.477-1.187-3.657-.985-4.872.458-1.2 1.416-.993 3.534.456 4.735l.96.784h-7.821a3.375 3.375 0 0 0 .001 6.75h7.828l-.968.788a3.324 3.324 0 0 0-.442 4.748Z" fill="url(#i)"/></g><defs><filter id="a" x="74.767" y="73.376" width="117.024" height="47.305" filterUnits="userSpaceOnUse" color-interpolation-filters="sRGB"><feFlood flood-opacity="0" result="BackgroundImageFix"/><feBlend in="SourceGraphic" in2="BackgroundImageFix" result="shape"/><feColorMatrix in="SourceAlpha" values="0 0 0 0 0 0 0 0 0 0 0 0 0 0 0 0 0 0 127 0" result="hardAlpha"/><feOffset dx="-2.25" dy="-2.25"/><feGaussianBlur stdDeviation="2.25"/><feComposite in2="hardAlpha" operator="arithmetic" k2="-1" k3="1"/><feColorMatrix values="0 0 0 0 0.121569 0 0 0 0 0.235294 0 0 0 0 0.415686 0 0 0 0.25 0"/><feBlend in2="shape" result="effect1_innerShadow_295_4446"/><feColorMatrix in="SourceAlpha" values="0 0 0 0 0 0 0 0 0 0 0 0 0 0 0 0 0 0 127 0" result="hardAlpha"/><feOffset dx="2.25" dy="2.25"/><feGaussianBlur stdDeviation="2.25"/><feComposite in2="hardAlpha" operator="arithmetic" k2="-1" k3="1"/><feColorMatrix values="0 0 0 0 1 0 0 0 0 1 0 0 0 0 1 0 0 0 0.5 0"/><feBlend in2="effect1_innerShadow_295_4446" result="effect2_innerShadow_295_4446"/></filter><filter id="c" x="73.25" y="112.062" width="121.489" height="82.528" filterUnits="userSpaceOnUse" color-interpolation-filters="sRGB"><feFlood flood-opacity="0" result="BackgroundImageFix"/><feBlend in="SourceGraphic" in2="BackgroundImageFix" result="shape"/><feColorMatrix in="SourceAlpha" values="0 0 0 0 0 0 0 0 0 0 0 0 0 0 0 0 0 0 127 0" result="hardAlpha"/><feOffset dx="-2.25" dy="-2.25"/><feGaussianBlur stdDeviation="2.25"/><feComposite in2="hardAlpha" operator="arithmetic" k2="-1" k3="1"/><feColorMatrix values="0 0 0 0 0.121569 0 0 0 0 0.235294 0 0 0 0 0.415686 0 0 0 0.25 0"/><feBlend in2="shape" result="effect1_innerShadow_295_4446"/><feColorMatrix in="SourceAlpha" values="0 0 0 0 0 0 0 0 0 0 0 0 0 0 0 0 0 0 127 0" result="hardAlpha"/><feOffset dx="2.25" dy="2.25"/><feGaussianBlur stdDeviation="2.25"/><feComposite in2="hardAlpha" operator="arithmetic" k2="-1" k3="1"/><feColorMatrix values="0 0 0 0 1 0 0 0 0 1 0 0 0 0 1 0 0 0 0.5 0"/><feBlend in2="effect1_innerShadow_295_4446" result="effect2_innerShadow_295_4446"/></filter><filter id="e" x="96.37" y="80.49" width="79.06" height="77.96" filterUnits="userSpaceOnUse" color-interpolation-filters="sRGB"><feFlood flood-opacity="0" result="BackgroundImageFix"/><feColorMatrix in="SourceAlpha" values="0 0 0 0 0 0 0 0 0 0 0 0 0 0 0 0 0 0 127 0" result="hardAlpha"/><feOffset dx="2.25" dy="2.25"/><feGaussianBlur stdDeviation="2.25"/><feComposite in2="hardAlpha" operator="out"/><feColorMatrix values="0 0 0 0 0.133333 0 0 0 0 0.180392 0 0 0 0 0.227451 0 0 0 0.101961 0"/><feBlend in2="BackgroundImageFix" result="effect1_dropShadow_295_4446"/><feBlend in="SourceGraphic" in2="effect1_dropShadow_295_4446" result="shape"/><feColorMatrix in="SourceAlpha" values="0 0 0 0 0 0 0 0 0 0 0 0 0 0 0 0 0 0 127 0" result="hardAlpha"/><feOffset dx="2.25" dy="2.25"/><feGaussianBlur stdDeviation="2.25"/><feComposite in2="hardAlpha" operator="arithmetic" k2="-1" k3="1"/><feColorMatrix values="0 0 0 0 1 0 0 0 0 1 0 0 0 0 1 0 0 0 0.25 0"/><feBlend in2="shape" result="effect2_innerShadow_295_4446"/><feColorMatrix in="SourceAlpha" values="0 0 0 0 0 0 0 0 0 0 0 0 0 0 0 0 0 0 127 0" result="hardAlpha"/><feOffset dx="-2.25" dy="-2.25"/><feGaussianBlur stdDeviation="2.25"/><feComposite in2="hardAlpha" operator="arithmetic" k2="-1" k3="1"/><feColorMatrix values="0 0 0 0 0.121569 0 0 0 0 0.235294 0 0 0 0 0.415686 0 0 0 0.75 0"/><feBlend in2="effect2_innerShadow_295_4446" result="effect3_innerShadow_295_4446"/></filter><filter id="g" x="106.139" y="106.139" width="56.584" height="56.584" filterUnits="userSpaceOnUse" color-interpolation-filters="sRGB"><feFlood flood-opacity="0" result="BackgroundImageFix"/><feColorMatrix in="SourceAlpha" values="0 0 0 0 0 0 0 0 0 0 0 0 0 0 0 0 0 0 127 0" result="hardAlpha"/><feOffset dx=".574" dy=".574"/><feGaussianBlur stdDeviation=".574"/><feComposite in2="hardAlpha" operator="out"/><feColorMatrix values="0 0 0 0 0.133333 0 0 0 0 0.180392 0 0 0 0 0.227451 0 0 0 0.501961 0"/><feBlend in2="BackgroundImageFix" result="effect1_dropShadow_295_4446"/><feBlend in="SourceGraphic" in2="effect1_dropShadow_295_4446" result="shape"/><feColorMatrix in="SourceAlpha" values="0 0 0 0 0 0 0 0 0 0 0 0 0 0 0 0 0 0 127 0" result="hardAlpha"/><feOffset dx=".861" dy=".861"/><feGaussianBlur stdDeviation=".861"/><feComposite in2="hardAlpha" operator="arithmetic" k2="-1" k3="1"/><feColorMatrix values="0 0 0 0 1 0 0 0 0 1 0 0 0 0 1 0 0 0 0.25 0"/><feBlend in2="shape" result="effect2_innerShadow_295_4446"/><feColorMatrix in="SourceAlpha" values="0 0 0 0 0 0 0 0 0 0 0 0 0 0 0 0 0 0 127 0" result="hardAlpha"/><feOffset dx="-.861" dy="-.861"/><feGaussianBlur stdDeviation=".861"/><feComposite in2="hardAlpha" operator="arithmetic" k2="-1" k3="1"/><feColorMatrix values="0 0 0 0 0 0 0 0 0 0 0 0 0 0 0 0 0 0 0.25 0"/><feBlend in2="effect2_innerShadow_295_4446" result="effect3_innerShadow_295_4446"/></filter><filter id="h" x="119.938" y="121.625" width="33.187" height="29.25" filterUnits="userSpaceOnUse" color-interpolation-filters="sRGB"><feFlood flood-opacity="0" result="BackgroundImageFix"/><feColorMatrix in="SourceAlpha" values="0 0 0 0 0 0 0 0 0 0 0 0 0 0 0 0 0 0 127 0" result="hardAlpha"/><feOffset dx="2.25" dy="2.25"/><feGaussianBlur stdDeviation="2.25"/><feComposite in2="hardAlpha" operator="out"/><feColorMatrix values="0 0 0 0 0.133333 0 0 0 0 0.180392 0 0 0 0 0.227451 0 0 0 0.101961 0"/><feBlend in2="BackgroundImageFix" result="effect1_dropShadow_295_4446"/><feBlend in="SourceGraphic" in2="effect1_dropShadow_295_4446" result="shape"/><feColorMatrix in="SourceAlpha" values="0 0 0 0 0 0 0 0 0 0 0 0 0 0 0 0 0 0 127 0" result="hardAlpha"/><feOffset dx="2.25" dy="2.25"/><feGaussianBlur stdDeviation="2.25"/><feComposite in2="hardAlpha" operator="arithmetic" k2="-1" k3="1"/><feColorMatrix values="0 0 0 0 1 0 0 0 0 1 0 0 0 0 1 0 0 0 0.25 0"/><feBlend in2="shape" result="effect2_innerShadow_295_4446"/><feColorMatrix in="SourceAlpha" values="0 0 0 0 0 0 0 0 0 0 0 0 0 0 0 0 0 0 127 0" result="hardAlpha"/><feOffset dx="-2.25" dy="-2.25"/><feGaussianBlur stdDeviation="2.25"/><feComposite in2="hardAlpha" operator="arithmetic" k2="-1" k3="1"/><feColorMatrix values="0 0 0 0 0.121569 0 0 0 0 0.235294 0 0 0 0 0.415686 0 0 0 0.75 0"/><feBlend in2="effect2_innerShadow_295_4446" result="effect3_innerShadow_295_4446"/></filter><linearGradient id="b" x1="86.655" y1="113.468" x2="75.162" y2="36.706" gradientUnits="userSpaceOnUse"><stop stop-color="#1F3C6A" stop-opacity=".1"/><stop offset="1" stop-color="#1F3C6A" stop-opacity=".25"/></linearGradient><linearGradient id="d" x1="85.52" y1="183.294" x2="50.386" y2="49.45" gradientUnits="userSpaceOnUse"><stop stop-color="#1F3C6A" stop-opacity=".1"/><stop offset="1" stop-color="#1F3C6A" stop-opacity=".25"/></linearGradient><linearGradient id="f" x1="98.62" y1="151.7" x2="167.571" y2="81.649" gradientUnits="userSpaceOnUse"><stop stop-color="#1BB4B7"/><stop offset="1" stop-color="#1F3C6A"/></linearGradient><linearGradient id="i" x1="122.188" y1="144.125" x2="142.122" y2="120.314" gradientUnits="userSpaceOnUse"><stop stop-color="#1BB4B7"/><stop offset="1" stop-color="#1F3C6A"/></linearGradient></defs></svg>
