<svg width="1920" height="1080" viewBox="0 0 1920 1080" fill="none" xmlns="http://www.w3.org/2000/svg">
<g clip-path="url(#clip0_918_6322)">
<rect width="1920" height="1080" fill="#16191C"/>
<path d="M603.685 394.079C417.058 599.508 94.9501 362.781 195.315 239.636C322.158 84.0007 738.158 928.001 -57.8414 480.001" stroke="#F9F9F9" stroke-width="3.07756" stroke-linecap="round"/>
<path d="M1990.16 320.001C1770.16 214.001 1450.16 224 1516.16 412.79C1588.3 619.154 1903.87 680.236 1842 540C1752 336 1364.98 311.735 1288.49 412.79" stroke="#F9F9F9" stroke-width="3.07756" stroke-linecap="round"/>
<path d="M1425.95 556.059C1348.61 518.259 1270.29 579.775 1254.29 612.474L1221.94 790.057H1691.98H1807.08C1815.34 761.786 1812 709.946 1732.61 728.747C1742.96 696.812 1737.84 660.67 1691.98 632.696C1610.23 582.831 1484.11 632.696 1448.43 693.198C1464.1 666.63 1497.48 591.015 1425.95 556.059Z" fill="#178A9E"/>
<path d="M527.913 689.52C485.867 628.299 378.216 512.134 283.983 537.237C190.896 562.035 243.404 647.115 282.544 688.029C260.416 665.477 203.76 623.872 142.077 626.761C63.2397 630.452 103.122 750.433 142.077 788.272L527.913 789.195V689.52Z" fill="#178A9E"/>
<path d="M1515.05 933.371H419.645V951.447C419.645 971.75 436.104 988.208 456.406 988.208H1478.29C1498.6 988.208 1515.05 971.75 1515.05 951.447V933.371Z" fill="#F9F9F9"/>
<path d="M1075.68 944.661V944.661C1075.68 956.843 1065.8 966.718 1053.62 966.718H880.844C868.662 966.718 858.787 956.843 858.787 944.661V944.661" stroke="#16191C" stroke-width="3.99146" stroke-linecap="round"/>
<path d="M1417.42 247.682C1417.42 227.38 1400.96 210.921 1380.66 210.921H554.713C534.41 210.921 517.951 227.38 517.951 247.682V790.056H1417.42V247.682Z" fill="#F9F9F9"/>
<path d="M422.876 932.563H1512.56L1416.44 791.923H518.918L422.876 932.563Z" stroke="#F9F9F9" stroke-width="3.67613"/>
<mask id="mask0_918_6322" style="mask-type:alpha" maskUnits="userSpaceOnUse" x="506" y="806" width="925" height="97">
<path d="M562.541 806.573H1373.85C1375.25 806.573 1376.55 807.31 1377.27 808.514L1429.85 896.326C1431.44 898.987 1429.53 902.368 1426.43 902.368H510.004C506.904 902.368 504.987 898.988 506.579 896.327L559.116 808.515C559.836 807.311 561.137 806.573 562.541 806.573Z" fill="#1EBFBF"/>
</mask>
<g mask="url(#mask0_918_6322)">
<path d="M562.541 806.573H1373.85C1375.25 806.573 1376.55 807.31 1377.27 808.514L1429.85 896.326C1431.44 898.987 1429.53 902.368 1426.43 902.368H510.004C506.904 902.368 504.987 898.988 506.579 896.327L559.116 808.515C559.836 807.311 561.137 806.573 562.541 806.573Z" fill="#178A9E"/>
<path d="M616.98 798.565L562.098 912.322H631.948L674.857 798.565H732.733L707.786 912.322H773.645L789.611 798.565H850.481L842.498 912.322H908.357L910.352 798.565H968.229L978.207 912.322H1044.07L1029.1 798.565H1087.97L1111.92 907.333H1182.77L1150.84 798.565H1216.7L1252.62 907.333H1313.49M1324.47 798.565L1380.35 907.333" stroke="#222E3A" stroke-width="3.99146" stroke-linecap="round"/>
<path d="M523.182 824.51H1421.26L1442.22 845.465H498.236L472.291 871.409H1433.23" stroke="#222E3A" stroke-width="3.99146" stroke-linecap="round"/>
</g>
<mask id="mask1_918_6322" style="mask-type:alpha" maskUnits="userSpaceOnUse" x="539" y="231" width="857" height="536">
<path d="M1395.79 250.219C1395.79 240.067 1387.56 231.838 1377.41 231.838H558.178C548.026 231.838 539.797 240.067 539.797 250.219V766.836H1395.79V250.219Z" fill="#1EBFBF"/>
</mask>
<g mask="url(#mask1_918_6322)">
<rect width="855.997" height="534.998" transform="matrix(-1 0 0 1 1395.79 231.838)" fill="#178A9E"/>
</g>
<mask id="mask2_918_6322" style="mask-type:alpha" maskUnits="userSpaceOnUse" x="593" y="-118" width="741" height="911">
<rect width="740.415" height="910.052" transform="matrix(-1 0 0 1 1333.45 -117.64)" fill="white"/>
</mask>
<g mask="url(#mask2_918_6322)">
<mask id="mask3_918_6322" style="mask-type:alpha" maskUnits="userSpaceOnUse" x="646" y="54" width="628" height="843">
<path d="M1273.74 438.603C1273.74 252.062 1142.69 91.2893 960.249 54.0063C777.805 91.2893 646.755 252.062 646.755 438.603V896.204H1273.74V438.603Z" fill="#F9F9F9"/>
</mask>
<g mask="url(#mask3_918_6322)">
<path d="M1273.74 438.603C1273.74 252.062 1142.69 91.2893 960.249 54.0063C777.805 91.2893 646.755 252.062 646.755 438.603V896.204H1273.74V438.603Z" fill="#F9F9F9"/>
<path d="M1304.23 555.608H1166.98" stroke="#16191C" stroke-width="3.99146"/>
<path d="M1304.23 682.653H1166.98" stroke="#16191C" stroke-width="3.99146"/>
<path d="M1294.92 418.313L1161.05 425.939" stroke="#16191C" stroke-width="3.99146"/>
<path d="M960.237 201.402L960.237 11.6109" stroke="#16191C" stroke-width="3.99146"/>
<path d="M1260.18 257.386L1118.68 327.71" stroke="#16191C" stroke-width="3.99146"/>
<path d="M1184 66.4248L1055.89 217.827" stroke="#16191C" stroke-width="3.99146"/>
<path d="M616.252 555.588H753.512" stroke="#16191C" stroke-width="3.99146"/>
<path d="M616.252 682.633H753.512" stroke="#16191C" stroke-width="3.99146"/>
<path d="M625.565 418.332L759.436 425.958" stroke="#16191C" stroke-width="3.99146"/>
<path d="M660.309 257.33L801.805 327.654" stroke="#16191C" stroke-width="3.99146"/>
<path d="M736.486 66.3862L864.597 217.789" stroke="#16191C" stroke-width="3.99146"/>
<path fill-rule="evenodd" clip-rule="evenodd" d="M729.804 438.496V813.209H1190.72V438.496C1190.72 297.174 1095.32 174.624 960.264 139.16C825.206 174.624 729.804 297.174 729.804 438.496Z" fill="#16191C"/>
<path fill-rule="evenodd" clip-rule="evenodd" d="M758.632 793V444.397C758.632 299.083 823.158 200 928.408 150C1006.66 186 1060.94 299.083 1060.94 444.397V745.799L758.632 793Z" fill="#178A9E"/>
<path d="M826.158 777.584V712.505M886.827 756.877V564.599M946.295 151V218.5M946.295 790.403V591.222M1002.16 777.584V551.78M1002.16 277.498V400.916M826.158 285.549V551.78M886.827 530.087V441.343M946.295 400.916V516.283M886.827 236.246V183" stroke="#16191C" stroke-width="3.99146"/>
</g>
</g>
<path d="M1802.75 359.541C1804.37 359.407 1804.37 357.041 1802.75 356.894C1789.26 354.625 1778.67 344.037 1776.4 330.55C1776.25 328.861 1773.78 328.861 1773.63 330.55C1771.49 344.037 1760.9 354.625 1747.41 356.894C1745.8 357.041 1745.8 359.407 1747.41 359.541C1760.9 361.81 1771.49 372.398 1773.76 385.885C1773.9 387.502 1776.27 387.503 1776.4 385.885C1778.67 372.398 1789.26 361.81 1802.75 359.541Z" fill="#F9F9F9"/>
<path d="M436.296 170.61C437.58 170.5 437.579 168.624 436.296 168.503C425.947 166.698 417.822 158.272 416.081 147.539C415.967 146.24 414.067 146.24 413.953 147.539C412.309 158.272 404.184 166.698 393.835 168.503C392.552 168.624 392.551 170.5 393.835 170.61C404.184 172.415 412.309 180.841 414.05 191.574C414.159 192.819 415.982 192.819 416.081 191.574C417.822 180.841 425.947 172.415 436.296 170.61Z" fill="#F9F9F9"/>
<path d="M159.38 488.461L175.982 487.089L159.38 485.58C144.699 483.11 133.174 471.585 130.704 456.904L129.195 440.302L127.686 456.904C125.353 471.585 113.828 483.11 99.1468 485.58L82.5449 487.089L99.1468 488.461C113.828 490.931 125.353 502.456 127.823 517.137L129.332 533.739L130.704 517.137C133.174 502.456 144.699 490.931 159.38 488.461Z" stroke="#F9F9F9" stroke-width="1.90865" stroke-linecap="round"/>
<path d="M1299 -7L1036 286L1041.25 301.5L1375 -7H1299Z" fill="#F9F9F9"/>
<path d="M1978.64 -5.76035L1058 388.5L1059.25 407.25L1990.8 82.0805L1978.64 -5.76035Z" fill="#F9F9F9"/>
<path d="M2038.3 844.147L1063.9 611.839L1066.51 632.999L1996.55 922.564L2038.3 844.147Z" fill="#F9F9F9"/>
<path d="M1983.58 650.766L1106.57 593.215V596.979L1994.53 693.505L1983.58 650.766Z" fill="#F9F9F9"/>
</g>
<defs>
<clipPath id="clip0_918_6322">
<rect width="1920" height="1080" fill="white"/>
</clipPath>
</defs>
</svg>
