<svg width="268" height="268" fill="none" xmlns="http://www.w3.org/2000/svg"><g clip-path="url(#a)"><g filter="url(#b)"><path fill-rule="evenodd" clip-rule="evenodd" d="M143.079 80.011c-4.557-6.013-13.596-6.013-18.158 0l-2.154 2.84a11.407 11.407 0 0 1-10.632 4.405l-3.532-.483c-7.476-1.03-13.866 5.36-12.836 12.836l.483 3.532a11.396 11.396 0 0 1-4.404 10.632l-2.84 2.154c-6.014 4.556-6.014 13.596 0 18.157l2.84 2.155a11.406 11.406 0 0 1 4.404 10.631l-.483 3.533c-1.03 7.475 5.36 13.865 12.836 12.836l3.532-.484a11.397 11.397 0 0 1 10.632 4.404l2.154 2.841c4.556 6.013 13.596 6.013 18.158 0l2.154-2.841a11.406 11.406 0 0 1 10.631-4.404l3.533.484c7.475 1.029 13.865-5.361 12.836-12.836l-.484-3.533a11.4 11.4 0 0 1 4.405-10.631l2.84-2.155c6.013-4.556 6.013-13.595 0-18.157l-2.84-2.154a11.407 11.407 0 0 1-4.405-10.632l.484-3.532c1.029-7.476-5.361-13.866-12.836-12.836l-3.533.483a11.399 11.399 0 0 1-10.631-4.404l-2.154-2.84Z" fill="url(#c)"/></g><g filter="url(#d)"><path d="m171.637 155.898 11.863 23.62-17.061-1.677-8.758 14.665-12.645-25.099.192-.253a11.407 11.407 0 0 1 10.631-4.405l3.532.484c5.53.76 10.463-2.542 12.24-7.335h.006Zm-48.87 11.25a11.406 11.406 0 0 0-10.631-4.404l-3.533.484c-5.529.759-10.462-2.543-12.24-7.335L84.5 179.512l17.061-1.676 8.752 14.664 12.645-25.099-.191-.253Z" fill="url(#e)"/></g><g filter="url(#f)"><path d="M134 158.75c18.64 0 33.75-15.11 33.75-33.75S152.64 91.25 134 91.25s-33.75 15.11-33.75 33.75 15.11 33.75 33.75 33.75Z" fill="#fff"/></g><g filter="url(#g)"><path d="m135.614 105.689 5.592 10.519c.264.501.798.878 1.333 1.001l12.38 1.755c1.463.254 2.132 1.879 1.064 2.88l-8.916 8.264c-.399.376-.664 1.001-.534 1.501l2.131 11.644c.265 1.378-1.333 2.503-2.66 1.755l-11.048-5.512a2.071 2.071 0 0 0-1.732 0l-11.183 5.512c-1.333.625-2.93-.377-2.66-1.755l2.132-11.644c.135-.5-.135-1.125-.535-1.501l-8.915-8.264c-1.064-1.001-.535-2.756 1.063-2.88l12.38-1.755c.535-.123 1.063-.376 1.333-1.001l5.592-10.519c.663-1.254 2.531-1.254 3.195 0h-.012Z" fill="url(#h)"/></g></g><defs><filter id="b" x="82.246" y="73.251" width="103.509" height="103.508" filterUnits="userSpaceOnUse" color-interpolation-filters="sRGB"><feFlood flood-opacity="0" result="BackgroundImageFix"/><feBlend in="SourceGraphic" in2="BackgroundImageFix" result="shape"/><feColorMatrix in="SourceAlpha" values="0 0 0 0 0 0 0 0 0 0 0 0 0 0 0 0 0 0 127 0" result="hardAlpha"/><feOffset dx="2.25" dy="2.25"/><feGaussianBlur stdDeviation="2.25"/><feComposite in2="hardAlpha" operator="arithmetic" k2="-1" k3="1"/><feColorMatrix values="0 0 0 0 1 0 0 0 0 1 0 0 0 0 1 0 0 0 0.5 0"/><feBlend in2="shape" result="effect1_innerShadow_295_4502"/><feColorMatrix in="SourceAlpha" values="0 0 0 0 0 0 0 0 0 0 0 0 0 0 0 0 0 0 127 0" result="hardAlpha"/><feOffset dx="-2.25" dy="-2.25"/><feGaussianBlur stdDeviation="4.5"/><feComposite in2="hardAlpha" operator="arithmetic" k2="-1" k3="1"/><feColorMatrix values="0 0 0 0 0.121569 0 0 0 0 0.235294 0 0 0 0 0.415686 0 0 0 0.25 0"/><feBlend in2="effect1_innerShadow_295_4502" result="effect2_innerShadow_295_4502"/></filter><filter id="d" x="82.25" y="153.643" width="103.5" height="41.113" filterUnits="userSpaceOnUse" color-interpolation-filters="sRGB"><feFlood flood-opacity="0" result="BackgroundImageFix"/><feBlend in="SourceGraphic" in2="BackgroundImageFix" result="shape"/><feColorMatrix in="SourceAlpha" values="0 0 0 0 0 0 0 0 0 0 0 0 0 0 0 0 0 0 127 0" result="hardAlpha"/><feOffset dx="2.25" dy="2.25"/><feGaussianBlur stdDeviation="2.25"/><feComposite in2="hardAlpha" operator="arithmetic" k2="-1" k3="1"/><feColorMatrix values="0 0 0 0 1 0 0 0 0 1 0 0 0 0 1 0 0 0 0.5 0"/><feBlend in2="shape" result="effect1_innerShadow_295_4502"/><feColorMatrix in="SourceAlpha" values="0 0 0 0 0 0 0 0 0 0 0 0 0 0 0 0 0 0 127 0" result="hardAlpha"/><feOffset dx="-2.25" dy="-2.25"/><feGaussianBlur stdDeviation="4.5"/><feComposite in2="hardAlpha" operator="arithmetic" k2="-1" k3="1"/><feColorMatrix values="0 0 0 0 0.121569 0 0 0 0 0.235294 0 0 0 0 0.415686 0 0 0 0.25 0"/><feBlend in2="effect1_innerShadow_295_4502" result="effect2_innerShadow_295_4502"/></filter><filter id="f" x="99.125" y="90.125" width="70.875" height="70.875" filterUnits="userSpaceOnUse" color-interpolation-filters="sRGB"><feFlood flood-opacity="0" result="BackgroundImageFix"/><feColorMatrix in="SourceAlpha" values="0 0 0 0 0 0 0 0 0 0 0 0 0 0 0 0 0 0 127 0" result="hardAlpha"/><feOffset dx=".75" dy=".75"/><feGaussianBlur stdDeviation=".75"/><feComposite in2="hardAlpha" operator="out"/><feColorMatrix values="0 0 0 0 0.133333 0 0 0 0 0.180392 0 0 0 0 0.227451 0 0 0 0.501961 0"/><feBlend in2="BackgroundImageFix" result="effect1_dropShadow_295_4502"/><feBlend in="SourceGraphic" in2="effect1_dropShadow_295_4502" result="shape"/><feColorMatrix in="SourceAlpha" values="0 0 0 0 0 0 0 0 0 0 0 0 0 0 0 0 0 0 127 0" result="hardAlpha"/><feOffset dx=".75" dy=".75"/><feGaussianBlur stdDeviation=".75"/><feComposite in2="hardAlpha" operator="arithmetic" k2="-1" k3="1"/><feColorMatrix values="0 0 0 0 1 0 0 0 0 1 0 0 0 0 1 0 0 0 0.25 0"/><feBlend in2="shape" result="effect2_innerShadow_295_4502"/><feColorMatrix in="SourceAlpha" values="0 0 0 0 0 0 0 0 0 0 0 0 0 0 0 0 0 0 127 0" result="hardAlpha"/><feOffset dx="-1.125" dy="-1.125"/><feGaussianBlur stdDeviation="1.125"/><feComposite in2="hardAlpha" operator="arithmetic" k2="-1" k3="1"/><feColorMatrix values="0 0 0 0 0 0 0 0 0 0 0 0 0 0 0 0 0 0 0.25 0"/><feBlend in2="effect2_innerShadow_295_4502" result="effect3_innerShadow_295_4502"/></filter><filter id="g" x="109.259" y="102.499" width="53.998" height="49.499" filterUnits="userSpaceOnUse" color-interpolation-filters="sRGB"><feFlood flood-opacity="0" result="BackgroundImageFix"/><feColorMatrix in="SourceAlpha" values="0 0 0 0 0 0 0 0 0 0 0 0 0 0 0 0 0 0 127 0" result="hardAlpha"/><feOffset dx="2.25" dy="2.25"/><feGaussianBlur stdDeviation="2.25"/><feComposite in2="hardAlpha" operator="out"/><feColorMatrix values="0 0 0 0 0.133333 0 0 0 0 0.180392 0 0 0 0 0.227451 0 0 0 0.101961 0"/><feBlend in2="BackgroundImageFix" result="effect1_dropShadow_295_4502"/><feBlend in="SourceGraphic" in2="effect1_dropShadow_295_4502" result="shape"/><feColorMatrix in="SourceAlpha" values="0 0 0 0 0 0 0 0 0 0 0 0 0 0 0 0 0 0 127 0" result="hardAlpha"/><feOffset dx="2.25" dy="2.25"/><feGaussianBlur stdDeviation="2.25"/><feComposite in2="hardAlpha" operator="arithmetic" k2="-1" k3="1"/><feColorMatrix values="0 0 0 0 1 0 0 0 0 1 0 0 0 0 1 0 0 0 0.25 0"/><feBlend in2="shape" result="effect2_innerShadow_295_4502"/><feColorMatrix in="SourceAlpha" values="0 0 0 0 0 0 0 0 0 0 0 0 0 0 0 0 0 0 127 0" result="hardAlpha"/><feOffset dx="-2.25" dy="-2.25"/><feGaussianBlur stdDeviation="2.25"/><feComposite in2="hardAlpha" operator="arithmetic" k2="-1" k3="1"/><feColorMatrix values="0 0 0 0 0.121569 0 0 0 0 0.235294 0 0 0 0 0.415686 0 0 0 0.75 0"/><feBlend in2="effect2_innerShadow_295_4502" result="effect3_innerShadow_295_4502"/></filter><linearGradient id="c" x1="134" y1="81.689" x2="134" y2="174.51" gradientUnits="userSpaceOnUse"><stop stop-color="#1F3C6A" stop-opacity=".1"/><stop offset="1" stop-color="#1F3C6A" stop-opacity=".25"/></linearGradient><linearGradient id="e" x1="134" y1="158.181" x2="134" y2="192.506" gradientUnits="userSpaceOnUse"><stop stop-color="#1F3C6A" stop-opacity=".1"/><stop offset="1" stop-color="#1F3C6A" stop-opacity=".25"/></linearGradient><linearGradient id="h" x1="111.509" y1="145.247" x2="151.784" y2="100.498" gradientUnits="userSpaceOnUse"><stop stop-color="#1BB4B7"/><stop offset="1" stop-color="#1F3C6A"/></linearGradient><clipPath id="a"><path fill="#fff" transform="translate(84.5 75.5)" d="M0 0h99v117H0z"/></clipPath></defs></svg>
