<svg width="32" height="22" viewBox="0 0 32 22" fill="none" xmlns="http://www.w3.org/2000/svg">
<path d="M3 0H29C30.6569 0 32 1.34315 32 3V19C32 20.6569 30.6569 22 29 22H3C1.34315 22 0 20.6569 0 19V3C0 1.34315 1.34315 0 3 0Z" fill="#273C83"/>
<mask id="mask0_2174_21449" style="mask-type:alpha" maskUnits="userSpaceOnUse" x="0" y="0" width="32" height="22">
<path d="M3 0H29C30.6569 0 32 1.34315 32 3V19C32 20.6569 30.6569 22 29 22H3C1.34315 22 0 20.6569 0 19V3C0 1.34315 1.34315 0 3 0Z" fill="white"/>
</mask>
<g mask="url(#mask0_2174_21449)">
<path fill-rule="evenodd" clip-rule="evenodd" d="M24.5 6C23.9641 6 23.4689 5.7141 23.201 5.25C22.933 4.7859 22.933 4.2141 23.201 3.75C23.4689 3.2859 23.9641 3 24.5 3C25.3284 3 26 3.67157 26 4.5C26 5.32843 25.3284 6 24.5 6ZM21.5 11C20.6716 11 20 10.3284 20 9.5C20 8.67157 20.6716 8 21.5 8C22.3284 8 23 8.67157 23 9.5C23 10.3284 22.3284 11 21.5 11ZM23 17.5C23 18.3284 23.6716 19 24.5 19C25.3284 19 26 18.3284 26 17.5C26 16.6716 25.3284 16 24.5 16C23.6716 16 23 16.6716 23 17.5ZM28 10C27.4477 10 27 9.55228 27 9C27 8.44772 27.4477 8 28 8C28.5523 8 29 8.44772 29 9C29 9.55228 28.5523 10 28 10ZM7 17C7 18.1046 7.89543 19 9 19C10.1046 19 11 18.1046 11 17C11 15.8954 10.1046 15 9 15C7.89543 15 7 15.8954 7 17Z" fill="#F7F7F7"/>
<path d="M1.076 0H1C0.447715 0 0 0.447715 0 1V2.233L5.955 6.101L0 9.968V12H1.46L8.25 7.591L15.04 12H16V9.643L10.545 6.101L16 2.558V0H15.349L8.25 4.61L1.151 0H1.076Z" fill="#F7F7F7"/>
<path d="M0 1.25055V1.00055C0 0.787547 0.067 0.589547 0.18 0.426547L8 5.50455L16 0.310547V1.50355L8.918 6.10055L16 10.7005V11.8925L8 6.69755L0 11.8925V10.7005L7.082 6.10055L0 1.50355V1.25055Z" fill="#DC1E35"/>
<path d="M10 4H16V8H10V12H6V8H0V4H6V0H10V4Z" fill="#F7F7F7"/>
<path d="M9 5V0H7V5H0V7H7V12H9V7H16V5H9Z" fill="#DC1E35"/>
<path d="M3 0.5H29C30.3807 0.5 31.5 1.61929 31.5 3V19C31.5 20.3807 30.3807 21.5 29 21.5H3C1.61929 21.5 0.5 20.3807 0.5 19V3C0.5 1.61929 1.61929 0.5 3 0.5Z" stroke="#222E3A" stroke-opacity="0.25"/>
</g>
</svg>
