<svg width="32" height="22" viewBox="0 0 32 22" fill="none" xmlns="http://www.w3.org/2000/svg">
<path fill-rule="evenodd" clip-rule="evenodd" d="M3 0H29C30.6569 0 32 1.34315 32 3V19C32 20.6569 30.6569 22 29 22H3C1.34315 22 0 20.6569 0 19V3C0 1.34315 1.34315 0 3 0Z" fill="#DE2910"/>
<mask id="mask0_2174_22214" style="mask-type:alpha" maskUnits="userSpaceOnUse" x="0" y="0" width="32" height="22">
<path fill-rule="evenodd" clip-rule="evenodd" d="M3 0H29C30.6569 0 32 1.34315 32 3V19C32 20.6569 30.6569 22 29 22H3C1.34315 22 0 20.6569 0 19V3C0 1.34315 1.34315 0 3 0Z" fill="white"/>
</mask>
<g mask="url(#mask0_2174_22214)">
<path d="M15.9995 10.9982C12.8416 9.66365 14.2415 5.55079 17.2616 5.75752C16.6506 6.07153 16.5621 6.65745 16.911 7.20023C17.3017 7.8079 16.875 8.78568 16.3468 9.02325C15.4788 9.41398 15.305 10.4557 15.9995 10.9982Z" fill="white"/>
<path d="M16.0028 10.999C16.2962 7.58327 20.6403 7.64365 21.377 10.5799C20.8895 10.0958 20.3049 10.1927 19.8965 10.6922C19.4394 11.2516 18.3776 11.148 17.9884 10.719C17.3486 10.0142 16.3041 10.1708 16.0028 10.999Z" fill="white"/>
<path d="M16.003 11.0023C19.3423 10.2259 20.6272 14.376 18.0624 15.984C18.3721 15.3708 18.0994 14.8447 17.498 14.6107C16.8247 14.3488 16.5952 13.3069 16.8829 12.8042C17.3555 11.9779 16.8838 11.033 16.003 11.0023Z" fill="white"/>
<path d="M16 11.0036C17.7703 13.9394 14.2203 16.444 11.8985 14.5016C12.5774 14.6067 12.9934 14.1847 13.0301 13.5405C13.0712 12.8192 13.9912 12.279 14.5581 12.3972C15.49 12.5914 16.243 11.8507 16 11.0036Z" fill="white"/>
<path d="M15.9978 11.0011C13.7527 13.592 10.2737 10.9897 11.4036 8.18127C11.5134 8.85939 12.0433 9.12466 12.6673 8.96055C13.366 8.77672 14.1641 9.48469 14.2268 10.0605C14.3302 11.0068 15.2672 11.494 15.9978 11.0011Z" fill="white"/>
<path d="M3 0.5H29C30.3807 0.5 31.5 1.61929 31.5 3V19C31.5 20.3807 30.3807 21.5 29 21.5H3C1.61929 21.5 0.5 20.3807 0.5 19V3C0.5 1.61929 1.61929 0.5 3 0.5Z" stroke="#222E3A" stroke-opacity="0.25"/>
</g>
</svg>
