<svg width="32" height="22" viewBox="0 0 32 22" fill="none" xmlns="http://www.w3.org/2000/svg">
<path fill-rule="evenodd" clip-rule="evenodd" d="M3 0H29C30.6569 0 32 1.34315 32 3V19C32 20.6569 30.6569 22 29 22H3C1.34315 22 0 20.6569 0 19V3C0 1.34315 1.34315 0 3 0Z" fill="#178A9E"/>
<mask id="mask0_2174_23316" style="mask-type:alpha" maskUnits="userSpaceOnUse" x="0" y="0" width="32" height="22">
<path fill-rule="evenodd" clip-rule="evenodd" d="M3 0H29C30.6569 0 32 1.34315 32 3V19C32 20.6569 30.6569 22 29 22H3C1.34315 22 0 20.6569 0 19V3C0 1.34315 1.34315 0 3 0Z" fill="white"/>
</mask>
<g mask="url(#mask0_2174_23316)">
<path d="M0 0H32V22H0V0Z" fill="#ED2939"/>
<path fill-rule="evenodd" clip-rule="evenodd" d="M0 2H32V4H0V2ZM0 6H32V8H0V6ZM32 10H0V12H32V10ZM0 14H32V16H0V14ZM32 18H0V20H32V18Z" fill="#F7F7F7"/>
<path d="M1.25 0H15V12H0V1C0 0.447715 0.559644 0 1.25 0Z" fill="#0066B3"/>
<path fill-rule="evenodd" clip-rule="evenodd" d="M2.78571 3.6C2.35178 3.6 2 3.24183 2 2.8C2 2.35817 2.35178 2 2.78571 2C3.21965 2 3.57143 2.35817 3.57143 2.8C3.57143 3.24183 3.21965 3.6 2.78571 3.6ZM5.14286 5.2C4.70892 5.2 4.35714 4.84183 4.35714 4.4C4.35714 3.95817 4.70892 3.6 5.14286 3.6C5.5768 3.6 5.92857 3.95817 5.92857 4.4C5.92857 4.84183 5.5768 5.2 5.14286 5.2ZM4.35714 7.6C4.35714 8.04183 4.70892 8.4 5.14286 8.4C5.5768 8.4 5.92857 8.04183 5.92857 7.6C5.92857 7.15817 5.5768 6.8 5.14286 6.8C4.70892 6.8 4.35714 7.15817 4.35714 7.6ZM9.85714 5.2C9.4232 5.2 9.07143 4.84183 9.07143 4.4C9.07143 3.95817 9.4232 3.6 9.85714 3.6C10.2911 3.6 10.6429 3.95817 10.6429 4.4C10.6429 4.84183 10.2911 5.2 9.85714 5.2ZM9.07143 7.6C9.07143 8.04183 9.4232 8.4 9.85714 8.4C10.2911 8.4 10.6429 8.04183 10.6429 7.6C10.6429 7.15817 10.2911 6.8 9.85714 6.8C9.4232 6.8 9.07143 7.15817 9.07143 7.6ZM7.5 3.6C7.06606 3.6 6.71429 3.24183 6.71429 2.8C6.71429 2.35817 7.06606 2 7.5 2C7.93394 2 8.28571 2.35817 8.28571 2.8C8.28571 3.24183 7.93394 3.6 7.5 3.6ZM11.4286 2.8C11.4286 3.24183 11.7803 3.6 12.2143 3.6C12.6482 3.6 13 3.24183 13 2.8C13 2.35817 12.6482 2 12.2143 2C11.7803 2 11.4286 2.35817 11.4286 2.8ZM7.5 6.8C7.06606 6.8 6.71429 6.44183 6.71429 6C6.71429 5.55817 7.06606 5.2 7.5 5.2C7.93394 5.2 8.28571 5.55817 8.28571 6C8.28571 6.44183 7.93394 6.8 7.5 6.8ZM6.71429 9.2C6.71429 9.64183 7.06606 10 7.5 10C7.93394 10 8.28571 9.64183 8.28571 9.2C8.28571 8.75817 7.93394 8.4 7.5 8.4C7.06606 8.4 6.71429 8.75817 6.71429 9.2ZM12.2143 6.8C11.7803 6.8 11.4286 6.44183 11.4286 6C11.4286 5.55817 11.7803 5.2 12.2143 5.2C12.6482 5.2 13 5.55817 13 6C13 6.44183 12.6482 6.8 12.2143 6.8ZM11.4286 9.2C11.4286 9.64183 11.7803 10 12.2143 10C12.6482 10 13 9.64183 13 9.2C13 8.75817 12.6482 8.4 12.2143 8.4C11.7803 8.4 11.4286 8.75817 11.4286 9.2ZM2.78571 6.8C2.35178 6.8 2 6.44183 2 6C2 5.55817 2.35178 5.2 2.78571 5.2C3.21965 5.2 3.57143 5.55817 3.57143 6C3.57143 6.44183 3.21965 6.8 2.78571 6.8ZM2 9.2C2 9.64183 2.35178 10 2.78571 10C3.21965 10 3.57143 9.64183 3.57143 9.2C3.57143 8.75817 3.21965 8.4 2.78571 8.4C2.35178 8.4 2 8.75817 2 9.2Z" fill="#F7F7F7"/>
<path d="M3 0.5H29C30.3807 0.5 31.5 1.61929 31.5 3V19C31.5 20.3807 30.3807 21.5 29 21.5H3C1.61929 21.5 0.5 20.3807 0.5 19V3C0.5 1.61929 1.61929 0.5 3 0.5Z" stroke="#222E3A" stroke-opacity="0.25"/>
</g>
</svg>
