<svg width="144" height="144" viewBox="0 0 144 144" fill="none" xmlns="http://www.w3.org/2000/svg">
    <g clip-path="url(#clip0_756_448)">
        <ellipse cx="73.186" cy="73.3103" rx="61.2521" ry="59.2332" transform="rotate(24.7758 73.186 73.3103)" fill="#1EBFBF"/>
        <mask id="mask0_756_448" style="mask-type:alpha" maskUnits="userSpaceOnUse" x="0" y="0" width="144" height="133">
            <path fill-rule="evenodd" clip-rule="evenodd" d="M144 0.000288296L4.26254e-05 0.000283666L4.64491e-05 97.0003L17.9372 97.0003C23.9061 109.75 34.3804 120.638 48.3633 127.092C79.0781 141.268 115.091 128.682 128.8 98.9794C129.103 98.3225 129.393 97.6627 129.67 97.0003L144 97.0003L144 0.000288296Z" fill="#1EBFBF"/>
        </mask>
        <g mask="url(#mask0_756_448)">
            <path d="M30.6718 28.9984C24.239 29.2856 10.9397 34.3886 9.20496 52.5027C7.0365 75.1453 7.10365 84.6621 -9.17363 88.3339M119.357 53.7204C126.479 55.8752 138.357 63.0138 128.887 74.3297C117.049 88.4745 110.585 67.5107 136.155 71.3132C161.724 75.1157 135.781 114.605 150.546 117.739" stroke="#16191C" stroke-width="0.514185" stroke-linecap="round"/>
            <path d="M33.3239 70.6429C45.7097 22.4891 77.7347 1.87586 81.4695 3.5997C85.2044 5.32353 86.147 11.5633 75.5528 23.1673C71.7226 27.3626 69.2419 30.2377 67.5762 32.2986C75.9347 24.8302 93.5953 10.4564 97.3696 12.7081C102.088 15.5228 100.781 21.574 92.8265 29.2996C91.022 31.0521 89.1936 32.7068 87.4421 34.2171C90.5332 35.4817 94.9777 37.4399 98.9616 39.4732C104.008 42.0488 108.315 44.7448 108.197 46.3042C108.127 47.2258 107.713 48.1219 107.008 48.8802C105.045 50.9919 100.826 52.034 95.5018 49.5766L89.0148 72.0665C89.0148 72.0665 84.7411 85.3136 83.8612 93.9685L125.842 108.531C124.25 116.173 115.543 133.453 93.4537 141.436C77.0608 136.318 50.69 123.3 38.505 103.435C32.7228 94.0086 30.1351 83.0403 33.3239 70.6429Z" fill="white"/>
            <path d="M89.015 72.0668L76.0108 63.4325M67.5763 32.2988C64.6348 35.9382 64.2348 37.0383 63.4323 38.3853C62.4268 40.0732 59.7273 46.2082 58.5033 49.0647L68.6176 57.3651M68.6176 57.3651L77.2675 42.1518C79.0835 40.9275 83.0172 38.0332 87.4422 34.2174M68.6176 57.3651L76.0108 63.4325M86.3981 45.375C86.7635 45.5436 87.842 46.0414 89.8412 46.9642L76.0108 63.4325" stroke="#16191C" stroke-width="0.514185" stroke-linecap="round"/>
            <path d="M88.2657 46.2365L95.5019 49.5764L89.015 72.0663C89.015 72.0663 88.4656 73.7694 87.7202 76.3531C83.4832 72.7694 72.2854 66.5958 61.3895 70.5712C50.4937 74.5465 38.6112 70.511 34.0319 67.9963C34.8767 64.9558 35.7995 62.0295 36.7875 59.2161L76.0109 63.432L88.2657 46.2365Z" fill="#16191C"/>
            <path d="M93.4537 141.436C115.543 133.453 124.25 116.174 125.843 108.532C102.464 105.811 73.7716 142.822 38.505 103.436C50.69 123.3 77.0608 136.318 93.4537 141.436Z" fill="#16191C"/>
            <path d="M102.55 47.804C123.001 48.9093 133.012 32.416 133.012 32.416C122.602 62.7931 113.278 68.117 99.8783 73.6833C86.4784 79.2495 78.3399 70.9627 71.3146 67.0123C64.2893 63.0618 57.1741 74.6435 41.5927 67.4519C17.7005 56.4243 26.8318 24.8433 32.2966 9.22C29.5625 31.2477 52.8247 39.5872 59.0508 44.5041C67.2477 50.9774 66.4935 54.4519 71.5616 55.5877C77.2555 56.8637 79.6196 46.5648 102.55 47.804Z" fill="#1EBFBF"/>
            <path d="M46.6694 36.6679C38.7182 31.0874 30.6201 22.7271 32.2966 9.22C27.463 23.0386 19.7611 49.3412 34.5785 62.8639M117.588 44.9761C128.058 40.3307 133.012 32.416 133.012 32.416C122.602 62.7931 113.278 68.117 99.8783 73.6833C98.8062 74.1286 97.7678 74.4853 96.7609 74.7626" stroke="#16191C" stroke-width="0.514185" stroke-linecap="round"/>
            <path d="M46.8948 45.6888C56.1709 50.2533 60.6296 57.9036 61.6994 61.1582C59.4699 61.5921 53.3076 64.6469 44.6097 60.9155C35.9118 57.1841 32.6646 43.6985 32.3638 38.982C33.3424 39.3157 37.6187 41.1242 46.8948 45.6888Z" fill="#16191C"/>
            <path d="M98.5051 55.4934C88.719 54.4878 80.2302 59.659 77.209 62.3704C80.266 65.4095 88.462 70.9338 96.7901 68.7181C105.118 66.5024 110.089 60.2017 111.533 57.3283C108.851 56.7964 104.581 56.1178 98.5051 55.4934Z" fill="#16191C"/>
            <path d="M89.6479 69.3155C77.0158 66.3166 58.8485 82.2121 47.5272 76.9868C42.7568 83.8459 39.2753 99.6814 63.5123 108.15C68.7884 106.837 79.1144 93.0799 84.637 86.8236C85.4767 85.8724 86.2053 85.0946 86.7882 84.5602C91.2055 80.5111 102.28 72.3143 89.6479 69.3155Z" fill="#F9F9F9"/>
            <path d="M47.5272 76.9863C55.3688 80.6056 66.4947 74.0922 76.7909 70.7429M63.5124 108.149C68.7884 106.836 79.1144 93.0795 84.637 86.8231M87.9466 72.8479C84.6803 74.8521 77.6172 80.0437 85.499 84.9557" stroke="#16191C" stroke-width="0.514185" stroke-linecap="round"/>
            <path d="M95.5019 49.5772L89.8412 46.9645L86.3981 45.3753L82.8912 43.7567L89.1639 34.9353C90.7335 35.6009 92.5114 36.384 94.3346 37.2291C99.8659 39.0157 112.295 40.3388 115.752 43.2791C117.482 44.7509 115.15 49.7973 111.662 49.5324L111.613 49.5287C108.858 49.3195 107.668 49.2291 107.008 48.8808C105.045 50.9925 100.826 52.0346 95.5019 49.5772Z" fill="#F9F9F9"/>
            <path d="M86.3982 45.3751C86.7636 45.5437 87.842 46.0415 89.8413 46.9643C90.3457 47.1971 90.9087 47.4569 91.5336 47.7454M96.3109 38.1617C97.2039 38.5911 98.0937 39.0306 98.9617 39.4736C99.8849 39.9448 100.783 40.42 101.634 40.8915M107.506 48.2509C107.908 47.6456 108.146 46.982 108.197 46.3046C108.294 45.0305 105.436 42.9975 101.634 40.8915M101.634 40.8915C100.252 40.7176 96.4277 40.9148 96.0722 42.0532C95.7166 43.1917 98.9975 45.1732 101.468 46.3134" stroke="#16191C" stroke-width="0.514185" stroke-linecap="round"/>
        </g>
    </g>
    <defs>
        <clipPath id="clip0_756_448">
            <rect width="144" height="144" fill="white"/>
        </clipPath>
    </defs>
</svg>
