<svg width="144" height="144" viewBox="0 0 144 144" fill="none" xmlns="http://www.w3.org/2000/svg">
    <g clip-path="url(#clip0_756_1026)">
        <ellipse cx="75.173" cy="72.6844" rx="54.0923" ry="54.1033" fill="#1EBFBF"/>
        <path d="M10.6168 59.9216L23.8595 16.3796C24.1645 15.3769 25.2303 14.8171 26.2289 15.135L94.6626 36.92C95.6182 37.2241 96.1668 38.2247 95.9097 39.1939L84.5008 82.1906C84.228 83.2187 83.1575 83.816 82.1393 83.5083L11.8717 62.2686C10.8765 61.9678 10.3143 60.9163 10.6168 59.9216Z" fill="#16191C"/>
        <path d="M35.4192 59.6637L32.3464 58.7261L31.41 60.0301L29.3107 59.3895L34.802 52.0653L37.1241 52.7738L37.5908 61.9161L35.468 61.2683L35.4192 59.6637ZM35.3755 57.9581L35.2749 54.6326L33.3466 57.339L35.3755 57.9581ZM40.6235 61.1492L43.2507 61.9508L42.7783 63.499L38.1456 62.0854L40.6579 53.8521L42.6634 54.4641L40.6235 61.1492ZM51.8181 57.2576L51.3278 58.8643L49.1463 58.1987L47.1243 64.8251L45.1188 64.2132L47.1408 57.5867L44.9593 56.9211L45.4496 55.3143L51.8181 57.2576ZM56.5138 62.2801L56.0056 63.9455L50.8452 62.3709L51.3534 60.7054L56.5138 62.2801ZM60.9297 60.0379L58.4174 68.2711L56.4119 67.6591L58.9242 59.4259L60.9297 60.0379ZM65.1158 61.3152C65.9836 61.5801 66.6896 61.9835 67.2336 62.5256C67.7776 63.0676 68.13 63.7051 68.291 64.4379C68.4622 65.1654 68.4237 65.9357 68.1756 66.7488C67.9299 67.5542 67.5317 68.2147 66.9812 68.7305C66.4385 69.2486 65.7862 69.5795 65.0245 69.7231C64.2705 69.8691 63.4635 69.8109 62.6035 69.5485L59.5189 68.6072L62.0312 60.374L65.1158 61.3152ZM63.0041 67.7733C63.7625 68.0047 64.4161 67.9777 64.9647 67.6921C65.5134 67.4065 65.9035 66.8846 66.1349 66.1261C66.3663 65.3677 66.3353 64.713 66.042 64.1619C65.7486 63.6109 65.2227 63.2196 64.4642 62.9882L63.5143 62.6983L62.0541 67.4834L63.0041 67.7733Z" fill="#F9F9F9"/>
        <mask id="mask0_756_1026" style="mask-type:alpha" maskUnits="userSpaceOnUse" x="43" y="28" width="28" height="27">
            <circle cx="57.1533" cy="41.5771" r="13.2269" transform="rotate(-13.2147 57.1533 41.5771)" fill="#D9D9D9"/>
        </mask>
        <g mask="url(#mask0_756_1026)">
            <rect x="48.9277" y="22.458" width="26.9779" height="33.1308" rx="2.74428" transform="rotate(17.6699 48.9277 22.458)" fill="#1EBFBF"/>
            <path fill-rule="evenodd" clip-rule="evenodd" d="M52.2206 44.8655C52.2206 44.8655 50.8312 50.385 48.9283 50.5225C48.3648 50.5632 47.7045 50.5316 46.9895 50.4975C45.2894 50.4163 43.2798 50.3203 41.5273 51.1452C40.0198 51.8548 39.1069 54.8448 39.1069 54.8448L51.283 58.7236L63.4591 62.6025C63.4591 62.6025 64.4439 59.6355 63.6246 58.1846C62.6722 56.4979 60.9774 55.4139 59.5436 54.4967C58.9405 54.111 58.3837 53.7548 57.9476 53.3957C56.4748 52.1829 58.5341 46.8767 58.5341 46.8767L55.3774 45.8711L52.2206 44.8655Z" fill="#F9F9F9"/>
            <path d="M54.167 50.4536C51.5841 49.8295 50.8924 44.3604 51.0739 43.0108L52.7341 44.0364L59.8378 43.5673L60.1751 46.4068C59.5904 47.4624 56.7498 51.0778 54.167 50.4536Z" fill="#16191C"/>
            <path d="M51.011 39.6149C51.9548 35.1469 54.4222 31.1643 58.9927 32.6203C63.5632 34.0763 64.6936 36.8435 62.1108 43.1509C59.9516 48.4238 56.7581 49.7908 54.1463 48.9588C52.1876 48.3348 50.0671 44.0828 51.011 39.6149Z" fill="#F9F9F9"/>
            <path d="M50.4714 37.1074C50.9885 35.4839 52.1834 36.4109 52.7162 37.0774C53.2863 38.6664 53.9179 41.8811 51.8842 42.028C49.3421 42.2117 49.8249 39.1367 50.4714 37.1074Z" fill="#F9F9F9"/>
            <path d="M63.9904 40.6689C63.802 40.0128 62.5656 40.4634 61.971 40.7707C60.7133 41.8603 58.6651 44.2875 60.5344 45.2804C62.8711 46.5215 64.2258 41.489 63.9904 40.6689Z" fill="#F9F9F9"/>
        </g>
        <path d="M128.922 78.8178C126.345 101.661 109.547 120.197 87.5929 125.356C87.5964 120.001 88.2966 114.683 88.7869 111.253L83.788 105.885C83.0662 106.815 81.0878 108.132 78.9487 105.961C78.5055 105.511 78.0928 105.1 77.7108 104.719L77.7085 104.717C75.7873 102.802 74.6442 101.663 74.3142 100.307C73.9185 98.6819 74.8843 93.4532 76.9391 92.3173C77.2358 92.1533 77.597 91.9606 78.0057 91.7511C76.3651 90.8373 77.4382 85.3346 78.0124 83.3405C78.2025 82.6804 79.0724 81.7548 80.2676 80.7473C79.7421 80.2012 78.5667 78.6412 78.0689 76.7702C77.4467 74.4315 78.4803 70.842 80.1362 69.5912C81.0923 68.8691 85.5502 65.9874 89.6521 63.6599C85.1156 63.8763 75.2994 62.5404 72.3268 55.465C70.7399 51.157 72.3239 48.383 74.367 47.6304C79.7796 48.1256 82.7105 48.9421 83.4994 49.2884C87.6645 49.948 96.8065 51.5225 100.054 52.544C103.297 53.5643 112.349 62.1857 118.468 68.0146C120.008 69.4806 121.361 70.7701 122.39 71.7174C125.187 74.2918 127.483 76.5931 128.922 78.8178Z" fill="#F9F9F9"/>
        <path d="M89.4356 107.034C89.2508 108.13 89.0271 109.565 88.7863 111.249M78.7884 100.513L83.7873 105.881M101.568 98.6502C98.4282 100.553 89.274 88.8473 86.7088 88.7565C84.5139 88.6787 80.4266 90.5064 78.005 91.7473M109.657 87.8066C108.231 88.2597 101.491 80.9199 97.5222 77.0777C93.5538 73.2355 91.7862 73.3744 88.5757 75.1492C86.4278 76.3366 82.6827 78.7072 80.2669 80.7435M116.821 76.8044C113.805 73.7766 107.243 67.2438 105.115 65.3352C102.455 62.9495 99.1961 60.3915 96.5734 60.5001C95.465 60.546 92.6536 61.9526 89.6515 63.656M83.4987 49.2846C83.9226 51.0623 83.9472 55.6764 80.4917 55.977C78.4124 56.1579 76.6474 56.1166 75.1088 55.9453" stroke="#16191C" stroke-width="0.64574" stroke-linecap="round"/>
        <path d="M89.436 107.036C89.2512 108.133 89.0274 109.567 88.7866 111.252M78.7887 100.515L83.7877 105.883M101.568 98.6526C98.4286 100.556 89.2744 88.8498 86.7091 88.7589C84.5143 88.6812 80.427 90.5088 78.0054 91.7498M109.658 87.8091C108.231 88.2622 101.491 80.9223 97.5226 77.0802C93.5542 73.238 91.7866 73.3768 88.576 75.1517C86.4282 76.3391 82.6831 78.7097 80.2673 80.746M116.821 76.8068C113.806 73.779 107.243 67.2462 105.115 65.3377C102.455 62.952 99.1964 60.394 96.5737 60.5025C95.4654 60.5484 92.654 61.955 89.6518 63.6585M83.4991 49.2871C83.9229 51.0648 83.9475 55.6788 80.4921 55.9795C78.4128 56.1604 76.6477 56.119 75.1091 55.9477" stroke="#16191C" stroke-width="0.64574" stroke-linecap="round"/>
        <path d="M50.2696 99.3243C49.8295 99.3607 49.8298 100.004 50.2696 100.044C53.938 100.661 56.8178 103.541 57.4349 107.21C57.4767 107.669 58.1474 107.669 58.1892 107.21C58.772 103.541 61.6518 100.661 65.3202 100.044C65.76 100.004 65.7603 99.3607 65.3202 99.3243C61.6518 98.7072 58.772 95.8273 58.1549 92.159C58.1149 91.7192 57.4713 91.7189 57.4349 92.159C56.8178 95.8273 53.938 98.7072 50.2696 99.3243Z" fill="#F9F9F9"/>
        <path d="M35.1569 83.3871C34.9682 83.4027 34.9683 83.6787 35.1569 83.6959C36.7302 83.9605 37.9652 85.1956 38.2299 86.7688C38.2478 86.9657 38.5354 86.9657 38.5533 86.7688C38.8033 85.1956 40.0383 83.9605 41.6116 83.6959C41.8002 83.6787 41.8003 83.4027 41.6116 83.3871C40.0383 83.1224 38.8033 81.8874 38.5386 80.3142C38.5215 80.1256 38.2455 80.1254 38.2299 80.3142C37.9652 81.8874 36.7302 83.1224 35.1569 83.3871Z" fill="#F9F9F9"/>
        <path d="M102.515 40.0697C102.327 40.0853 102.327 40.3613 102.515 40.3785C104.089 40.6431 105.324 41.8782 105.588 43.4514C105.606 43.6483 105.894 43.6483 105.912 43.4514C106.162 41.8782 107.397 40.6431 108.97 40.3785C109.159 40.3613 109.159 40.0853 108.97 40.0697C107.397 39.8051 106.162 38.57 105.897 36.9968C105.88 36.8082 105.604 36.808 105.588 36.9968C105.324 38.57 104.089 39.8051 102.515 40.0697Z" fill="#F9F9F9"/>
    </g>
    <defs>
        <clipPath id="clip0_756_1026">
            <rect width="144" height="144" fill="white"/>
        </clipPath>
    </defs>
</svg>
