<svg width="1600" height="1454" viewBox="0 0 1600 1454" fill="none" xmlns="http://www.w3.org/2000/svg">
<path opacity="0.25" d="M798.059 1453.64C249.608 1453.64 -195 1009.04 -195 460.584C-195 -87.8667 249.608 -532.474 798.059 -532.474C1346.51 -532.474 1791.12 -87.8667 1791.12 460.584C1791.12 1009.04 1346.51 1453.64 798.059 1453.64Z" fill="url(#paint0_linear)"/>
<path opacity="0.2" d="M799.978 1163.61C411.709 1163.61 96.9554 848.853 96.9554 460.584C96.9554 72.3158 411.709 -242.438 799.978 -242.438C1188.25 -242.438 1503 72.3158 1503 460.584C1503 848.853 1188.25 1163.61 799.978 1163.61Z" fill="url(#paint1_linear)"/>
<path opacity="0.15" d="M800.5 948C531.261 948 313 729.739 313 460.5C313 191.261 531.261 -27 800.5 -27C1069.74 -27 1288 191.261 1288 460.5C1288 729.739 1069.74 948 800.5 948Z" fill="url(#paint2_linear)"/>
<circle cx="801" cy="408" r="317.407" fill="url(#paint3_linear)"/>
<defs>
<linearGradient id="paint0_linear" x1="798.058" y1="-202.5" x2="798.058" y2="1090.5" gradientUnits="userSpaceOnUse">
<stop stop-color="#178A9E"/>
<stop offset="0.99" stop-color="#F3F9FA" stop-opacity="0"/>
</linearGradient>
<linearGradient id="paint1_linear" x1="799.978" y1="-109.5" x2="799.978" y2="998" gradientUnits="userSpaceOnUse">
<stop stop-color="#178A9E"/>
<stop offset="0.99" stop-color="#F3F9FA" stop-opacity="0"/>
</linearGradient>
<linearGradient id="paint2_linear" x1="800.5" y1="-12.8356" x2="800.5" y2="906.677" gradientUnits="userSpaceOnUse">
<stop stop-color="#178A9E"/>
<stop offset="0.99" stop-color="#F3F9FA" stop-opacity="0"/>
</linearGradient>
<linearGradient id="paint3_linear" x1="801" y1="240.5" x2="801" y2="933" gradientUnits="userSpaceOnUse">
<stop stop-color="white"/>
<stop offset="1" stop-color="white" stop-opacity="0"/>
</linearGradient>
</defs>
</svg>
