<svg width="245" height="252" viewBox="0 0 245 252" fill="none" xmlns="http://www.w3.org/2000/svg">
<path d="M67.2441 240.893L39.8682 208.599L92.2152 165.376L120.035 195.902C120.789 196.73 120.707 198.019 119.854 198.745L70.0382 241.121C69.2041 241.83 67.9523 241.728 67.2441 240.893Z" fill="#F9F9F9"/>
<path d="M44.2238 163.328L39.8691 208.599L80.3454 205.005C81.762 204.879 82.9387 203.86 83.2659 202.476L92.0478 165.325L46.9189 161.1C45.56 160.972 44.3545 161.969 44.2238 163.328Z" fill="#1EBFBF"/>
<path d="M41.7616 206.857L42.9871 205.848M44.1636 204.88L89.1692 167.849" stroke="#23262B" stroke-width="1.60497" stroke-linecap="round"/>
<path fill-rule="evenodd" clip-rule="evenodd" d="M83.7373 200.486L83.2668 202.476C82.9397 203.86 81.7629 204.879 80.3463 205.005L50.2844 207.674C50.1648 207.55 50.0448 207.423 49.9243 207.296L83.7373 200.486Z" fill="#16191C"/>
<path d="M69.3044 240.022L80.8188 206.789M85.7319 203.47L118.588 197.467" stroke="#16191C" stroke-width="1.60497" stroke-linecap="round"/>
<path d="M169.492 23.767L153.444 45.6292M159.956 50.9785L205.541 11.4404M209.96 58.8861L172.583 67.724M181.586 71.9104L205.541 67.724" stroke="white" stroke-width="1.60497" stroke-linecap="round"/>
<path d="M76.6941 195.408C41.8076 175.174 35.5143 133.31 62.9721 133.31C97.8586 133.31 104.836 167.499 76.6941 152.149C48.5524 136.799 54.3668 109.82 80.1828 102.843" stroke="white" stroke-width="1.60497" stroke-linecap="round"/>
<path d="M152.576 60.5259L67.0391 18.4392C65.3819 17.6239 63.3776 18.3063 62.5622 19.9634L36.546 72.8388C35.7306 74.496 36.413 76.5003 38.0701 77.3157L110.582 112.994L123.696 119.231C125.345 120.015 127.318 119.332 128.129 117.696L134.118 105.615L154.1 65.0027C154.915 63.3456 154.233 61.3412 152.576 60.5259Z" fill="#1EBFBF"/>
<path d="M65.9376 74.8502L61.0571 72.4489L59.1382 74.3738L55.8038 72.7332L66.9694 61.9845L70.6577 63.7992L68.9551 79.204L65.5834 77.545L65.9376 74.8502ZM66.3278 71.9881L67.0627 66.4033L63.1052 70.4025L66.3278 71.9881ZM74.2315 78.746L78.4041 80.799L77.1942 83.2579L69.8362 79.6376L76.2704 66.5608L79.4558 68.1281L74.2315 78.746ZM93.996 75.2823L92.7403 77.8343L89.2755 76.1296L84.097 86.6543L80.9117 85.087L86.0901 74.5623L82.6254 72.8575L83.881 70.3055L93.996 75.2823ZM100.479 84.9509L99.1779 87.596L90.9817 83.5632L92.2832 80.9181L100.479 84.9509ZM108.468 82.4029L102.034 95.4797L98.8484 93.9124L105.283 80.8356L108.468 82.4029ZM115.117 85.6743C116.495 86.3525 117.565 87.2184 118.327 88.272C119.089 89.3256 119.505 90.4866 119.575 91.755C119.664 93.0172 119.39 94.294 118.755 95.5855C118.125 96.8647 117.28 97.8604 116.22 98.5728C115.173 99.2914 113.993 99.6672 112.681 99.7003C111.381 99.7396 110.048 99.4232 108.682 98.751L103.783 96.3405L110.217 83.2638L115.117 85.6743ZM109.834 95.8933C111.039 96.486 112.138 96.6182 113.133 96.29C114.127 95.9618 114.921 95.1954 115.513 93.9908C116.106 92.7862 116.232 91.6836 115.891 90.683C115.551 89.6825 114.778 88.8858 113.574 88.2931L112.065 87.5507L108.325 95.1509L109.834 95.8933Z" fill="#16191C"/>
<mask id="mask0_542_41430" style="mask-type:alpha" maskUnits="userSpaceOnUse" x="85" y="44" width="29" height="28">
<circle cx="99.5917" cy="57.787" r="13.6956" transform="rotate(-4.68608 99.5917 57.787)" fill="#16191C"/>
</mask>
<g mask="url(#mask0_542_41430)">
<rect x="94.104" y="36.9507" width="27.9338" height="34.3047" rx="3.42158" transform="rotate(26.1985 94.104 36.9507)" fill="#16191C"/>
<path fill-rule="evenodd" clip-rule="evenodd" d="M94.0343 60.4019C94.0343 60.4019 91.764 65.8405 89.7943 65.689C89.2112 65.6442 88.5399 65.5105 87.8129 65.3657C86.0845 65.0215 84.0415 64.6146 82.1203 65.1902C80.4676 65.6854 79.0737 68.6068 79.0737 68.6068L90.9462 74.4485L102.819 80.2901C102.819 80.2901 104.283 77.4031 103.667 75.7917C102.95 73.9183 101.381 72.548 100.054 71.3887C99.4957 70.9011 98.9802 70.4508 98.5888 70.0162C97.2669 68.5481 100.19 63.4309 100.19 63.4309L97.1124 61.9164L94.0343 60.4019Z" fill="#F9F9F9"/>
<path d="M95.1699 66.422C92.6209 65.3863 92.7524 59.6797 93.1455 58.3257L94.6881 59.6308L102.034 60.2413L101.943 63.2007C101.183 64.1918 97.7188 67.4577 95.1699 66.422Z" fill="#16191C"/>
<path d="M93.6019 54.8373C95.2545 50.4071 98.3926 46.7079 102.849 48.9006C107.306 51.0934 108.038 54.1005 104.425 60.1626C101.404 65.2304 97.9242 66.1398 95.3776 64.8867C93.4677 63.947 91.9493 59.2675 93.6019 54.8373Z" fill="#F9F9F9"/>
<path d="M93.434 52.1874C94.2129 50.6044 95.2941 51.7372 95.7373 52.5014C96.077 54.2161 96.2302 57.6049 94.1251 57.443C91.4938 57.2407 92.4604 54.1662 93.434 52.1874Z" fill="#F9F9F9"/>
<path d="M106.73 57.9103C106.638 57.2096 105.303 57.4811 104.647 57.7045C103.192 58.627 100.722 60.798 102.483 62.1017C104.685 63.7314 106.846 58.7863 106.73 57.9103Z" fill="#F9F9F9"/>
</g>
<path d="M133.356 186.951C142.434 208.053 176.494 224.37 207.966 230.891C224.672 210.367 226.926 180.446 223.409 173.216L178.813 163.126C182.638 151.382 190.499 126.87 191.337 122.769C192.384 117.642 188.502 112.399 182.608 105.786C176.713 99.1734 161.704 80.8267 156.723 78.7001C152.738 76.9989 141.357 73.8578 136.164 72.4999C135.209 71.9623 131.599 70.5604 124.806 69.2541C122.124 69.951 119.77 73.2656 121.239 78.921C124.116 88.2553 136.381 91.1788 142.154 91.4738C136.667 93.907 130.659 96.9975 129.358 97.7923C127.104 99.1687 125.344 103.585 125.839 106.625C126.234 109.057 127.527 111.181 128.124 111.938C126.484 113.064 125.266 114.128 124.943 114.94C123.965 117.393 121.916 124.228 123.879 125.591C123.335 125.805 122.854 126.004 122.457 126.175C119.712 127.356 117.833 133.857 118.13 135.965C118.427 138.074 120.245 139.935 123.291 143.707C125.728 146.725 128.399 145.305 129.429 144.218L135.087 151.644C133.05 159.944 129.126 177.119 133.356 186.951Z" fill="#F9F9F9"/>
<path d="M132.673 30.1023C132.945 30.078 132.945 29.68 132.673 29.6533C130.553 29.2684 128.889 27.4722 128.533 25.1843C128.51 24.9172 128.12 24.9172 128.097 25.1843C127.76 27.4722 126.096 29.2684 123.977 29.6533C123.705 29.68 123.704 30.078 123.977 30.1023C126.096 30.4872 127.76 32.2834 128.117 34.5714C128.138 34.8271 128.513 34.8273 128.533 34.5714C128.889 32.2834 130.553 30.4872 132.673 30.1023Z" fill="white"/>
<path d="M43.1057 127.767C43.5636 127.726 43.5633 127.057 43.1057 127.013C39.5245 126.367 36.7131 123.352 36.1107 119.511C36.0725 119.06 35.4126 119.06 35.3744 119.511C34.8054 123.352 31.994 126.367 28.4128 127.013C27.9552 127.057 27.9549 127.726 28.4128 127.767C31.994 128.413 34.8054 131.428 35.4078 135.268C35.4444 135.7 36.0774 135.7 36.1107 135.268C36.7131 131.428 39.5245 128.413 43.1057 127.767Z" fill="white"/>
<path d="M136.44 146.386C136.068 147.752 135.605 149.54 135.089 151.644M123.773 136.791L129.431 144.217M152.857 137.29C148.642 139.307 138.517 123.332 135.279 122.895C132.509 122.521 127.103 124.323 123.88 125.591M164.464 124.571C162.6 124.966 154.984 114.824 150.44 109.46C145.896 104.096 143.64 104.05 139.351 105.895C136.482 107.13 131.441 109.662 128.126 111.938M174.917 111.535C171.478 107.322 163.986 98.2246 161.53 95.5403C158.46 92.185 154.654 88.5364 151.318 88.3448C149.909 88.2639 146.171 89.6927 142.155 91.4735M136.166 72.4996C136.48 74.8043 135.932 80.6513 131.518 80.5986C128.861 80.5668 126.631 80.293 124.704 79.883M178.814 163.126C178.276 164.238 176.504 166.64 173.719 167.351" stroke="#16191C" stroke-width="1.60497" stroke-linecap="round"/>
<path d="M223.411 173.216C226.928 180.445 224.674 210.366 207.968 230.89C176.496 224.37 142.436 208.052 133.358 186.951C133.134 186.429 132.933 185.887 132.753 185.327C133.76 186.357 134.764 187.323 135.763 188.23C171.816 220.919 202.883 175.334 223.411 173.216Z" fill="#16191C"/>
<path d="M133.481 185.085C141.959 207.492 176.495 224.37 207.967 230.89C222.14 213.478 225.911 189.303 224.581 177.958" stroke="#F9F9F9" stroke-width="1.60497" stroke-linecap="round"/>
<path d="M141.976 218.703C142.215 218.684 142.215 218.334 141.976 218.314C139.856 217.981 138.192 216.426 137.836 214.445C137.81 214.182 137.426 214.182 137.4 214.445C137.063 216.426 135.399 217.981 133.28 218.314C133.041 218.334 133.041 218.684 133.28 218.703C135.399 219.036 137.063 220.591 137.42 222.572C137.444 222.824 137.813 222.824 137.836 222.572C138.192 220.591 139.856 219.036 141.976 218.703Z" fill="white"/>
</svg>
