<svg width="220" height="220" viewBox="0 0 220 220" fill="none" xmlns="http://www.w3.org/2000/svg">
<ellipse cx="109.541" cy="110.03" rx="96.25" ry="96.2483" fill="#1EBFBF"/>
<mask id="mask0_542_41503" style="mask-type:alpha" maskUnits="userSpaceOnUse" x="3" y="13" width="203" height="194">
<path fill-rule="evenodd" clip-rule="evenodd" d="M116.111 13.75H3.05562V206.25H107.183C107.967 206.269 108.752 206.278 109.541 206.278C110.329 206.278 111.114 206.269 111.898 206.25H116.111V206.058C166.204 202.681 205.791 160.978 205.791 110.03C205.791 59.0819 166.204 17.3795 116.111 14.0025V13.75Z" fill="#FFC200"/>
</mask>
<g mask="url(#mask0_542_41503)">
<path d="M189.228 62.5044C189.228 61.2978 188.25 60.3196 187.043 60.3196H50.6386C49.4321 60.3196 48.4539 61.2978 48.4539 62.5044V69.8513V151.792C48.4539 152.999 49.4321 153.977 50.6387 153.977H187.043C188.25 153.977 189.228 152.999 189.228 151.792V69.8513V62.5044Z" stroke="#F9F9F9" stroke-width="1.44737"/>
<circle cx="2.71734" cy="2.71734" r="2.71734" transform="matrix(-1 0 0 1 186.376 62.2913)" fill="#F9F9F9"/>
<circle cx="2.71734" cy="2.71734" r="2.71734" transform="matrix(-1 0 0 1 178.899 62.2913)" fill="#F9F9F9"/>
<circle cx="2.71734" cy="2.71734" r="2.71734" transform="matrix(-1 0 0 1 171.421 62.2913)" fill="#F9F9F9"/>
<rect x="106.189" y="82.5728" width="100.049" height="26.1757" rx="13.0878" fill="#16191C"/>
<path d="M134.597 89.8972L131.306 102.059H127.186L125.268 94.169L123.285 102.059H119.188L115.875 89.8972H119.602L121.324 98.5934L123.372 89.8972H127.317L129.388 98.5498L131.088 89.8972H134.597Z" fill="#F9F9F9"/>
<path d="M153.04 89.8972L149.749 102.059H145.63L143.712 94.169L141.728 102.059H137.631L134.318 89.8972H138.045L139.767 98.5934L141.815 89.8972H145.76L147.831 98.5498L149.531 89.8972H153.04Z" fill="#F9F9F9"/>
<path d="M171.483 89.8972L168.192 102.059H164.073L162.155 94.169L160.171 102.059H156.074L152.761 89.8972H156.488L158.21 98.5934L160.259 89.8972H164.203L166.274 98.5498L167.974 89.8972H171.483Z" fill="#F9F9F9"/>
<path d="M174.212 102.233C173.558 102.233 173.021 102.044 172.599 101.667C172.192 101.274 171.989 100.795 171.989 100.228C171.989 99.6469 172.192 99.1601 172.599 98.7678C173.021 98.3755 173.558 98.1793 174.212 98.1793C174.851 98.1793 175.374 98.3755 175.781 98.7678C176.203 99.1601 176.413 99.6469 176.413 100.228C176.413 100.795 176.203 101.274 175.781 101.667C175.374 102.044 174.851 102.233 174.212 102.233Z" fill="#F9F9F9"/>
<rect opacity="0.5" x="179.481" y="84.6086" width="1.16336" height="22.1039" rx="0.581682" fill="#F9F9F9"/>
<path d="M165.313 137.637L165.313 137.637C166.572 138.869 167.841 140.11 169.11 141.33L208.467 130.663C218.164 138.85 233.614 161.08 217.834 184.502C194.18 194.819 157.618 207.757 131.21 201.053C124.341 198.272 118.906 195.505 115.817 193.68L72.5839 119.124C75.5982 116.151 82.576 110.235 86.3724 110.351C91.1179 110.497 110.538 113.681 121.077 115.527C131.617 117.373 142.158 120.163 149.972 124.513C154.444 127.003 159.791 132.234 165.313 137.637Z" fill="#F9F9F9"/>
<path d="M72.9541 124.228C70.7154 120.735 68.516 116.795 69.444 112.751C69.8425 111.015 70.7312 109.288 72.5351 108.132C74.339 106.976 76.279 106.889 78.0233 107.252C82.0849 108.098 84.7467 111.742 86.9854 115.234L130.028 182.388C132.338 185.991 134.641 190.072 133.599 194.223C133.18 195.894 132.291 197.537 130.554 198.65C128.817 199.764 126.954 199.885 125.26 199.568C121.054 198.781 118.307 194.984 115.997 191.381L72.9541 124.228Z" fill="#16191C"/>
<path d="M71.8372 96.0195L61.8143 102.444L69.3637 114.222C69.3637 114.222 71.8118 114.89 75.3914 112.595C78.971 110.301 79.3865 107.798 79.3865 107.798L71.8372 96.0195Z" fill="#F9F9F9"/>
<path d="M111.411 192.812C127.484 192.94 130.958 185.467 125.985 180.288C124.5 178.742 119.549 177.774 114.006 177.308C110.55 175.475 102.981 172.203 100.351 173.779C97.7201 175.355 95.5578 177.447 94.8054 178.296C91.5007 181.05 92.591 184.788 93.3348 187.338L93.3399 187.355C94.0838 189.905 95.3383 192.684 111.411 192.812Z" fill="#F9F9F9"/>
<path d="M98.2056 156.357C96.2117 153.86 95.445 153.045 87.4313 151.246C77.9902 150.317 78.1824 158.94 79.6914 161.361C81.2004 163.782 88.0003 172.395 92.0351 174.863C96.07 177.332 109.057 177.821 115.613 177.505C122.169 177.189 122.742 173.062 119.978 167.861C117.768 163.701 106.862 161.352 101.478 160.842C101.052 160.179 99.8007 158.355 98.2056 156.357Z" fill="#F9F9F9"/>
<path d="M90.1168 139.149C84.1668 135.587 83.8363 133.061 81.7138 133.167C74.2637 132.847 72.5877 137.85 73.13 142.008C73.6723 146.165 79.2721 154.193 82.4116 155.081C85.551 155.969 91.0374 156.777 99.5846 157.069C108.132 157.362 111.111 153.556 108.602 147.998C106.595 143.552 95.4421 140.246 90.1168 139.149Z" fill="#F9F9F9"/>
<path d="M83.4682 129.566C81.5486 125.64 78.6791 117.94 72.7108 118.945C71.7815 119.033 70.3667 120.913 68.8151 123.849C67.2634 126.785 68.7858 137.702 75.192 139.3C81.5981 140.897 85.3879 133.492 83.4682 129.566Z" fill="#F9F9F9"/>
<path d="M156.968 181.555C165.034 172.62 171.2 162.043 174.976 150.516C170.64 142.27 162.181 133.835 148.853 127.22C127.601 127.176 113.696 126.841 103.76 119.228C101.661 117.62 99.8076 116.097 98.139 114.725C91.91 109.605 88.254 106.6 83.972 109.182C78.543 112.456 84.2092 130.229 100.527 140.23C105.592 143.334 111.498 145.588 117.279 147.194C123.39 158.365 139.311 179.601 156.968 181.555Z" fill="#F9F9F9"/>
<path d="M117.005 177.601C111.081 177.652 101.474 177.34 96.799 176.422M80.4893 153.946C81.1816 154.518 81.8376 154.919 82.4114 155.081C84.8872 155.782 91.9508 156.901 99.0184 157.487M73.3268 138.504C73.8956 138.859 74.5165 139.131 75.1917 139.299C79.788 140.445 83.4532 136.572 84.2133 133.06M148.853 127.219C127.601 127.176 113.696 126.84 103.76 119.228C102.061 117.926 100.523 116.68 99.1137 115.525M126.891 161.287C122.725 156.195 119.407 151.084 117.279 147.193C114.487 146.418 109.606 144.539 105.335 142.73M126.891 161.287C132.871 168.594 140.598 175.862 149.065 179.43M126.891 161.287C125.618 162.215 123.491 165.778 124.204 172.931M99.1137 115.525C99.087 115.503 99.0603 115.481 99.0337 115.459C97.2018 113.957 95.5877 112.612 94.1191 111.5M99.1137 115.525C102.455 118.314 100.071 122.689 97.4915 124.06C94.8914 125.441 88.9141 120.782 84.4915 115.074M105.438 147.901C104.187 147.325 99.9499 146.149 97.7044 145.898C95.232 145.621 92.8573 146.084 92.889 150.013C92.9137 153.072 94.385 155.968 98.1666 157.167M117.971 168.138C115.537 167.394 110.345 166.211 109.04 167.438C107.41 168.971 106.828 172.059 107.575 176.497M122.992 181.142C120.976 181.009 116.399 180.866 114.216 181.36C111.487 181.976 111.805 189.477 113.744 189.78C115.684 190.083 118.593 190.537 122.725 189.842M69.9636 124.128C69.313 126.808 68.7833 132.825 71.8693 135.453M101.135 160.77C100.07 161.304 99.1737 162.156 98.9311 163.474" stroke="#16191C" stroke-width="1.44737" stroke-linecap="round"/>
<circle cx="43.3859" cy="43.3859" r="43.3859" transform="matrix(-0.824656 0.565634 0.565634 0.824656 63.5674 15.4307)" fill="#F9F9F9"/>
<circle cx="43.3859" cy="43.3859" r="43.3859" transform="matrix(-0.824656 0.565634 0.565634 0.824656 62.8037 11.4912)" fill="#16191C"/>
<circle cx="36.3637" cy="36.3637" r="36.3637" transform="matrix(-0.824656 0.565634 0.565634 0.824656 60.9856 21.252)" fill="#1EBFBF"/>
<path d="M72.1356 101.796C55.5739 113.156 32.9392 108.939 21.5795 92.3773C19.0595 88.7034 17.3061 84.7306 16.2839 80.6483C14.4459 67.4288 19.982 53.6865 31.7366 45.6239C48.2983 34.2642 70.933 38.4813 82.2927 55.0429C84.8127 58.7169 86.5661 62.6896 87.5883 66.7719C89.4263 79.9914 83.8902 93.7337 72.1356 101.796Z" fill="#F9F9F9"/>
<path d="M32.971 65.3304C35.9561 72.5062 43.2737 77.6054 51.863 77.6668C60.4524 77.7281 67.842 72.7339 70.9292 65.6015M51.7625 91.2219L51.8593 77.6654M74.9586 82.8102L66.3404 72.3453M28.2219 82.4764L36.9887 72.1356" stroke="#16191C" stroke-width="1.44737" stroke-linecap="round" stroke-linejoin="round"/>
<path d="M208.466 130.662L169.109 141.33C179.137 172.881 216.588 166.434 217.832 184.502C233.612 161.08 218.163 138.85 208.466 130.662Z" fill="#16191C"/>
<path d="M6.98379 123.138L30.4956 120.311M33.1741 126.561L3.8588 153.197M35.5551 147.84L38.2336 137.275" stroke="#16191C" stroke-width="1.44737" stroke-linecap="round"/>
</g>
</svg>
