<svg xmlns="http://www.w3.org/2000/svg" width="456" height="224" fill="none">
  <circle cx="42.6723" cy="42.6723" r="42.6723" fill="#F9F9F9" transform="scale(-1 1) rotate(15 -416.29531607 -1572.73263713)"/>
  <path fill="#16191C" d="M366.751 85.8981c3.209-1.3653 12.153-4.3226 22.251-5.2292l5.019 55.8971c-1.399-.581-7.007-2.462-12.715-5.523-8.063-4.325-11.416-10.184-12.289-19.901l-2.266-25.2439Z"/>
  <path fill="#16191C" d="M411.829 81.8518c-3.402-.7717-12.73-2.0885-22.827-1.1819l5.019 55.8971c1.272-.821 6.456-3.67 11.527-7.7 7.164-5.692 9.42-12.055 8.547-21.771l-2.266-25.2442Z"/>
  <path stroke="#F9F9F9" stroke-width="6.30722" d="m379.831 104.231 10.849 9.062 12.388-14.8324"/>
  <path fill="#16191C" fill-rule="evenodd" d="M66.9347 65.323c-.7676 0-1.5015.6146-1.6352 1.3695l-.8554 4.8284c-.0579.1186-.101.2441-.1265.3741L47.724 156.523c-.1486.757.3596 1.377 1.1301 1.377H159.052c.757 0 1.484-.6 1.63-1.345l16.594-84.6274c.148-.7577-.36-1.3768-1.13-1.3768h-62.357l.687-3.8763c.132-.7479-.375-1.3515-1.135-1.3515H66.9347Z" clip-rule="evenodd"/>
  <path fill="#F9F9F9" d="M45.5257 75.6301c-.008-.6665.4909-1.1587 1.1743-1.1587h110.166c.847 0 1.619.7442 1.629 1.5702l.858 70.6804c.008.667-.491 1.159-1.174 1.159H48.0127c-.8472 0-1.6195-.744-1.6295-1.57l-.8575-70.6809Z"/>
  <path fill="#16191C" d="M142.735 85.2725c-.164-.6729-.791-1.1699-1.474-1.1699H31.095c-.8471 0-1.4268.7514-1.223 1.5854l17.4393 71.361c.1644.673.7908 1.17 1.4742 1.17H158.951c.848 0 1.427-.752 1.223-1.585l-17.439-71.3615Z"/>
  <rect width="25.3986" height="37.923" x="2.32047" y="1.86837" stroke="#F9F9F9" stroke-width="3.82483" rx="12.6993" transform="matrix(1 0 .213371 .976971 70.1765 92.3781)"/>
  <rect width="39.4613" height="35.414" fill="#F9F9F9" rx="5.02192" transform="matrix(1 0 .213371 .976971 69.3818 110.76)"/>
  <path fill="#16191C" d="M98.7653 124.178c.7838 3.589-1.5586 6.498-5.2319 6.498-3.6733 0-7.2865-2.909-8.0703-6.498-.7838-3.589 1.5586-6.498 5.2319-6.498 3.6733 0 7.2865 2.909 8.0703 6.498Z"/>
  <rect width="7.0828" height="14.1656" fill="#16191C" rx="3.5414" transform="matrix(1 0 .213371 .976971 88.5928 124.599)"/>
  <path stroke="#F9F9F9" stroke-linecap="round" stroke-width="1.5" d="M438.334 115.597c2.177-11.127 1.596-36.4306-18.144-48.6226"/>
  <path fill="#F9F9F9" d="m28.4844 174.713 111.5326-9.159 196.75 15.186c.508 2.434.646 7.576-2.863 8.672-4.387 1.371-85.424 10.513-96.568 13.084-4.816 1.112-9.87 2.109-14.359 1.286-4.49-.822-178.3945-22.316-183.6034-23.413-5.209-1.096-5.2661-1.645-5.2661-4.258 0-.7-.298-1.096-.7569-1.303l-2.6833-.052c-1.1677.179-2.1829.408-2.1829-.043Z"/>
  <path fill="#16191C" d="m237.867 193.779 98.955-12.72c.508 2.434.647 10.142-2.862 11.239-4.387 1.371-73.688 12.497-85.025 14.005-7.503.999-13.083.496-18.255.031l-.335-.031c-5.266-.473-191.3856-18.187-196.5945-19.284-5.209-1.097-5.2661-1.645-5.2661-4.258v-7.903l209.3826 18.921ZM340.561 179.615l-3.797 1.266c7.763-46.24 24.16-137.5651 27.641-136.9509 4.351.7678 9.725 5.8866 7.678 13.3088-1.616 5.8572-20.133 81.2851-29.561 120.2621-.243 1.005-.98 1.787-1.961 2.114Z"/>
  <path fill="#16191C" d="m141.778 171.071 145.761 10.848-52.807 5.517-157.6363-12.279 64.6823-4.086Z"/>
  <path fill="#F9F9F9" d="m338.837 178.258 31.486-125.9064c1.114-4.4553-2.292-8.7584-6.884-8.6976l-185.713 2.4612c-3.078.0408-5.769 2.0878-6.629 5.0436L139.055 161.277c-.71 2.438 1.002 4.912 3.533 5.106l192.491 14.808c1.778 0 3.327-1.209 3.758-2.933Z"/>
  <path fill="#1EBFBF" d="m150.527 154.065 28.854-97.5933c.374-1.2666 1.533-2.1392 2.853-2.1494l172.522-1.326c1.303-.01 2.267 1.2075 1.959 2.4729L330.028 165.126c-.343 1.411-1.649 2.374-3.1 2.285l-174.607-10.783c-1.283-.079-2.159-1.331-1.794-2.563Z"/>
  <path stroke="#16191C" stroke-linecap="round" stroke-width="1.5" d="m148.247 165.837 179.157 13.4M154.836 21.705l7.09 30.4801m-6.091 5.5626-37.444-40.6956m14.864 34.3008 13.664 8.1764M163.225 74.8908 152.69 112.943M404.746 200.022c0-3.722-.354-6.958-.998-9.762m-96.745-37.184c20.329 9.625 41.187 4.25 60.263 4.25 37.994 0 23.151 30.239 4.488 30.239-26.704 0 17.026-27.841 29.706-3.666"/>
  <path fill="#16191C" d="M201.592 91.7052c.673-2.0793 2.618-3.4807 4.803-3.4605l97.577.9038c3.347.031 5.719 3.2789 4.73 6.4771l-9.05 29.2634c-.661 2.139-2.665 3.578-4.903 3.521l-97.488-2.474c-3.34-.085-5.659-3.359-4.63-6.538l8.961-27.6928Z"/>
  <path fill="#F9F9F9" d="M214.257 116.896c-1.489-.019-2.75-.267-3.783-.743-1.034-.477-1.766-1.171-2.196-2.084-.41-.912-.434-2.005-.071-3.277l5.277.069c-.149.72-.063 1.276.259 1.669.328.375.85.567 1.565.576.735.01 1.364-.14 1.889-.447.53-.327.885-.776 1.066-1.347.151-.479.102-.878-.147-1.196-.229-.318-.563-.581-1.002-.79-.419-.21-1.042-.449-1.869-.719-1.193-.404-2.143-.806-2.852-1.204-.709-.398-1.244-.979-1.604-1.742-.361-.764-.349-1.754.035-2.971.571-1.806 1.703-3.2078 3.395-4.2038 1.699-1.0144 3.65-1.5071 5.854-1.4783 2.242.0294 3.887.5692 4.933 1.6196 1.053 1.0319 1.339 2.4605.859 4.2875l-5.364-.07c.159-.628.072-1.119-.262-1.475-.329-.375-.841-.567-1.537-.576-.599-.008-1.132.143-1.598.451-.46.29-.781.721-.961 1.293-.198.626-.043 1.119.465 1.477.508.359 1.355.749 2.541 1.172 1.181.441 2.116.861 2.805 1.259.709.398 1.247.969 1.613 1.714.367.746.367 1.699 0 2.86-.35 1.107-.967 2.107-1.851 3.003-.866.896-1.943 1.603-3.233 2.123-1.29.52-2.699.77-4.226.75Zm12.11-9.81c.606-1.917 1.579-3.616 2.921-5.098 1.347-1.501 2.925-2.6553 4.734-3.4647 1.834-.8275 3.736-1.2283 5.708-1.2025 2.417.0316 4.293.6671 5.629 1.9063 1.336 1.2389 1.962 2.9139 1.878 5.0229l-5.451-.072c-.15-.816-.535-1.441-1.155-1.875-.6-.434-1.374-.657-2.321-.669-1.528-.02-2.925.471-4.192 1.472-1.268 1.002-2.17 2.35-2.705 4.046-.536 1.697-.49 3.058.137 4.084.627 1.026 1.704 1.55 3.231 1.57.947.012 1.855-.189 2.723-.603.888-.415 1.663-1.025 2.325-1.83l5.452.071c-1.244 2.094-2.918 3.738-5.023 4.932-2.099 1.176-4.357 1.748-6.773 1.716-1.972-.025-3.61-.463-4.914-1.313-1.278-.869-2.117-2.055-2.515-3.56-.398-1.504-.294-3.215.311-5.133Zm32.95 6.763-7.597-.1-2.301 3.413-5.191-.068 13.497-19.3155 5.742.0751 1.233 19.5084-5.248-.068-.135-3.445Zm-.123-3.667-.278-7.14-4.739 7.074 5.017.066Zm25.299 7.439-4.959-.065-4.511-12.082-3.782 11.974-4.958-.065 6.131-19.4122 4.959.0649 4.493 12.1373 3.8-12.0287 4.958.0649-6.131 19.4118ZM304.595 133.538c.14-.074.123-.279-.027-.329l-31.095-10.417c-.147-.049-.283.097-.224.24l12.598 30.321c.061.146.267.148.331.003l4.294-9.803c.05-.114.197-.144.288-.06l10.303 9.605c.073.068.187.063.255-.009l4.093-4.408c.068-.073.064-.186-.009-.254l-10.301-9.604c-.091-.084-.071-.233.039-.29l9.455-4.995ZM51.2763 129.713c.746-.066.7454-1.156 0-1.228-5.8343-1.053-10.4145-5.965-11.3959-12.221-.0623-.735-1.1373-.735-1.1996 0-.927 6.256-5.5072 11.168-11.3415 12.221-.7453.072-.746 1.162 0 1.228 5.8343 1.052 10.4145 5.964 11.396 12.221.0597.704 1.0908.704 1.1451 0 .9814-6.257 5.5616-11.169 11.3959-12.221Z"/>
  <path fill="#16191C" d="M436.729 134.711c.746-.066.746-1.155 0-1.228-5.834-1.052-10.414-5.964-11.396-12.221-.062-.735-1.137-.735-1.199 0-.927 6.257-5.507 11.169-11.342 12.221-.745.073-.746 1.162 0 1.228 5.835 1.053 10.415 5.965 11.396 12.221.06.704 1.091.704 1.145 0 .982-6.256 5.562-11.168 11.396-12.221Z"/>
  <path fill="#F9F9F9" d="M406.033 34.876c1.061-.0941 1.06-1.644 0-1.7474-8.302-1.4977-14.82-8.4871-16.216-17.3903-.089-1.0455-1.619-1.0455-1.707 0-1.319 8.9032-7.837 15.8926-16.139 17.3903-1.06.1034-1.061 1.6533 0 1.7473 8.302 1.4978 14.82 8.4872 16.216 17.3903.085 1.0013 1.552 1.0019 1.63 0 1.396-8.9031 7.914-15.8925 16.216-17.3902Z"/>
</svg>
