<svg xmlns="http://www.w3.org/2000/svg" width="352" height="289" fill="none">
  <circle cx="176.442" cy="144.556" r="112.529" stroke="#1EBFBF" stroke-width=".681146" opacity=".9"/>
  <circle cx="176.444" cy="144.556" r="143.142" stroke="#1EBFBF" stroke-width=".604211" opacity=".4"/>
  <circle cx="175.594" cy="136.343" r="84.5895" fill="#1EBFBF"/>
  <path fill="#F9F9F9" d="M249.036 94.3434c-25.73 10.6376-38.616 34.9126-49.076 57.9786-1.137 2.507-2.246 5.001-3.34 7.462-4.656 10.476-9.044 20.345-14.189 28.037-6.367 9.519-13.975 15.829-24.815 15.829-6.303 0-11.165-4.047-15.551-9.901-3.144-4.195-6.101-9.401-9.202-14.858v-.002c-1.222-2.151-2.466-4.341-3.753-6.523-8.597-14.585-19.142-28.953-37.9372-30.625-.0214-.339-.0407-.679-.0581-1.019 19.4313 1.655 30.2423 16.503 38.8653 31.132 1.309 2.22 2.566 4.433 3.795 6.596l.001.002c3.086 5.432 5.994 10.551 9.096 14.692 4.335 5.784 8.935 9.496 14.744 9.496 10.354 0 17.696-5.99 23.976-15.38 5.092-7.613 9.434-17.379 14.089-27.848l.001-.002c1.098-2.469 2.213-4.977 3.359-7.505 10.439-23.021 23.438-47.614 49.483-58.4424.172.2925.343.5861.512.8808Z"/>
  <path fill="#F9F9F9" d="M166.763 118.152c7.25-3.388 26.314-4.208 34.94-4.194-1.536 9.654-3.206 33.489-7.654 31.353-5.561-2.67-46.945 9.356-51.441 10.507-4.496 1.15-16.805 1.208-18.773-6.823-1.968-8.032 33.865-26.607 42.928-30.843Z"/>
  <path fill="#16191C" d="M142.75 172.547c-4.205-5.543 5.696-16.089 11.172-20.67 8.737-5.475 19.223 14.256 23.374 24.807-4.641 1.942-14.919 5.342-18.9 3.399-3.981-1.942-2.191-5.841-.799-7.547-3.197 2.313-10.641 5.554-14.847.011Z"/>
  <path stroke="#F9F9F9" stroke-linecap="round" stroke-width=".672235" d="M158.088 172.237c2.577-2.068 9.155-7.412 10.972-10.386"/>
  <path fill="#F9F9F9" d="M258.388 153.766c-6.463 30.869-29.754 55.552-59.837 64.015-2.397-3.553-4.2-6.962-6.561-11.427-3.044-5.757-7.016-13.268-14.385-25.105-2.658-4.27-7.884-9.901-13.624-16.085-12.866-13.864-28.314-30.51-23.217-40.846 7.741-15.699 29.787 2.797 44.961 17.331-.489-1.043-1.211-2.423-2.039-4.007-3.751-7.177-9.689-18.536-6.081-21.663.57-.495 24.684-2.92 36.19-3.905 8.32-.712 30.836 24.518 44.593 41.692Z"/>
  <path fill="#16191C" d="M209.622 141.302c-2.14-1.427-8.561-1.427-24.254 0 9.273 9.987 30.674 24.254 40.661 29.247-2.378-5.986-12.127-23.54-16.407-29.247Z"/>
  <rect width="63.4391" height="95.4727" x="208.166" y="68.2516" fill="#16191C" rx="4.25214" transform="rotate(90.4475 208.166 68.2516)"/>
  <path stroke="#1EBFBF" stroke-linecap="round" stroke-width="1.01667" d="m125.446 67.6053-8.501-.0663c-2.348-.0184-4.267 1.8704-4.285 4.2187l-.058 7.3483"/>
  <path fill="#F9F9F9" d="m194.876 124.241 2.428.019c.981.008 1.783-.782 1.791-1.763l.016-2.086-4.205-.033-.03 3.863ZM194.914 119.369l.034-4.397 4.205.033-.034 4.397-4.205-.033ZM193.905 119.361l-15.827-.124.034-4.396 15.827.123-.034 4.397ZM178.07 120.247l15.827.123-.03 3.863-14.05-.109c-.981-.008-1.771-.81-1.763-1.792l.016-2.085ZM194.956 113.963l4.205.033.014-1.763c.008-.981-.782-1.783-1.763-1.791l-2.428-.019-.028 3.54ZM193.975 110.415l-.028 3.54-15.827-.123.014-1.763c.008-.982.809-1.771 1.791-1.763l14.05.109ZM160.173 121.704c3.059 1.478 10.965 7.419 11.574 8.269l2.523 2.523c-8.406.653-32.523 2.173-33.843-.467-2.14-4.281.715-9.724 4.897-12.223 4.182-2.499 11.79.419 14.849 1.898Z"/>
  <path stroke="#16191C" stroke-linecap="round" stroke-width="1.01667" d="M159.13 120.384c4.939 2.627 18.166 14.13 30.17 24.922 14.924 13.418 32.547 23.723 39.087 25.794M140.7 132.877c2.443 5.123 10.426 19.125 17.559 26.972m3.04-32.814c1.574 1.763 2.667 3.904 2.667 6.42 0 1.427-4.182 4.994-9.987 7.847-3.397 1.67-8.628-5.859-10.091-11.414"/>
  <path fill="#F9F9F9" d="M159.356 60.066c.305-.0904.458-.1355.613-.1526.127-.0139.256-.0139.382 0 .156.0171.309.0622.614.1526l22.028 6.5161c.862.2549 1.293.3824 1.588.6483.238.2151.413.4915.505.7992.114.3805.044.8245-.095 1.7125l-3.818 24.3306c-1.662 9.2033-9.847 16.9553-19.658 21.2033l-.228.098c-.423.184-.635.275-.856.31-.179.028-.362.028-.541 0-.221-.035-.433-.126-.857-.31l-.227-.098c-9.811-4.248-18.224-12.231-19.658-21.2033l-3.818-24.3306c-.139-.888-.209-1.332-.095-1.7125.092-.3077.267-.5841.505-.7992.295-.2659.726-.3934 1.588-.6483l22.028-6.5161Z"/>
  <path fill="#16191C" d="M160.158 73.4022c-3.765 0-6.817 3.052-6.817 6.8167 0 2.7179 1.591 5.0643 3.892 6.1591l-3.417 9.8087c-.266.7636.3 1.5614 1.109 1.5614h10.465c.809 0 1.376-.7978 1.11-1.5614l-3.417-9.8087c2.301-1.0948 3.891-3.4412 3.891-6.1591 0-3.7647-3.052-6.8167-6.816-6.8167Z"/>
</svg>
