<svg xmlns="http://www.w3.org/2000/svg" width="352" height="289" fill="none">
  <circle cx="176.5" cy="144.5" r="119.595" stroke="#1EBFBF" stroke-width=".681146" opacity=".9"/>
  <circle cx="176.375" cy="147.173" r="84.1158" stroke="#1EBFBF" stroke-width="1.36229"/>
  <circle cx="176.444" cy="144.556" r="143.142" stroke="#1EBFBF" stroke-width=".604211" opacity=".4"/>
  <ellipse cx="176.568" cy="147.002" fill="#1EBFBF" rx="84.3558" ry="84.373"/>
  <path fill="#F9F9F9" d="M106.303 193.705V91.6626c0-6.0269 4.885-10.9127 10.91-10.9127h113.049c6.025 0 10.91 4.8858 10.91 10.9127V201.258c-15.474 18.414-38.673 30.117-64.604 30.117-29.321 0-55.148-14.962-70.265-37.67Z"/>
  <path fill="#1EBFBF" d="M231.769 210.806c-14.794 12.816-34.091 20.569-55.198 20.569-24.134 0-45.901-10.137-61.277-26.386.36-.265.782-.416 1.238-.416h112.817c1.361 0 2.42 1.344 2.42 3.071v3.162ZM116.532 121.308h112.817c1.361 0 2.42-1.343 2.42-3.071V95.9012c0-1.7275-1.059-3.0711-2.42-3.0711H116.532c-1.361 0-2.419 1.3436-2.419 3.0711v22.3358c0 1.728 1.058 3.071 2.419 3.071ZM116.532 158.556h112.817c1.361 0 2.42-1.344 2.42-3.071v-22.336c0-1.728-1.059-3.071-2.42-3.071H116.532c-1.361 0-2.419 1.343-2.419 3.071v22.336c0 1.727 1.058 3.071 2.419 3.071ZM229.349 195.804H116.532c-1.361 0-2.419-1.344-2.419-3.071v-22.337c0-1.727 1.058-3.071 2.419-3.071h112.817c1.361 0 2.42 1.344 2.42 3.071v22.337c0 1.727-1.059 3.071-2.42 3.071Z"/>
  <path fill="#16191C" d="M176.82 106.582c0 1.457-1.179 2.637-2.634 2.637-1.454 0-2.633-1.18-2.633-2.637s1.179-2.638 2.633-2.638c1.455 0 2.634 1.181 2.634 2.638ZM162.744 109.006h-38.489c-1.161 0-2.128-1.121-2.128-2.466 0-1.346.967-2.467 2.128-2.467h38.489c1.161 0 2.128 1.121 2.128 2.467 0 1.345-.967 2.466-2.128 2.466ZM176.82 143.816c0 1.457-1.179 2.638-2.634 2.638-1.454 0-2.633-1.181-2.633-2.638 0-1.456 1.179-2.637 2.633-2.637 1.455 0 2.634 1.181 2.634 2.637ZM124.255 146.241h38.489c1.161 0 2.128-1.122 2.128-2.467s-.967-2.467-2.128-2.467h-38.489c-1.161 0-2.128 1.122-2.128 2.467s.967 2.467 2.128 2.467ZM162.744 183.488h-38.489c-1.161 0-2.128-1.121-2.128-2.466 0-1.346.967-2.467 2.128-2.467h38.489c1.161 0 2.128 1.121 2.128 2.467 0 1.345-.967 2.466-2.128 2.466ZM176.82 181.064c0 1.456-1.179 2.637-2.634 2.637-1.454 0-2.633-1.181-2.633-2.637 0-1.457 1.179-2.638 2.633-2.638 1.455 0 2.634 1.181 2.634 2.638ZM135.53 220.736c-2.695-1.504-5.3-3.152-7.803-4.933h35.017c1.161 0 2.128 1.121 2.128 2.466 0 1.346-.967 2.467-2.128 2.467H135.53ZM176.82 218.311c0 1.457-1.179 2.638-2.634 2.638-1.454 0-2.633-1.181-2.633-2.638 0-1.456 1.179-2.637 2.633-2.637 1.455 0 2.634 1.181 2.634 2.637Z"/>
  <path fill="#FA3556" d="M184.187 146.454c1.454 0 2.633-1.181 2.633-2.638 0-1.456-1.179-2.637-2.633-2.637-1.455 0-2.633 1.181-2.633 2.637 0 1.457 1.178 2.638 2.633 2.638ZM184.187 109.219c1.454 0 2.633-1.18 2.633-2.637s-1.179-2.638-2.633-2.638c-1.455 0-2.633 1.181-2.633 2.638 0 1.457 1.178 2.637 2.633 2.637ZM184.187 183.701c1.454 0 2.633-1.181 2.633-2.637 0-1.457-1.179-2.638-2.633-2.638-1.455 0-2.633 1.181-2.633 2.638 0 1.456 1.178 2.637 2.633 2.637ZM184.187 220.949c1.454 0 2.633-1.181 2.633-2.638 0-1.456-1.179-2.637-2.633-2.637-1.455 0-2.633 1.181-2.633 2.637 0 1.457 1.178 2.638 2.633 2.638Z"/>
  <path fill="#F9F9F9" d="M223.911 216.844c-1.466.996-2.965 1.948-4.495 2.852-.245-.404-.387-.878-.387-1.385 0-1.471 1.191-2.664 2.661-2.664.928 0 1.745.476 2.221 1.197ZM224.35 106.582c0 1.472-1.191 2.665-2.66 2.665-1.47 0-2.661-1.193-2.661-2.665s1.191-2.665 2.661-2.665c1.469 0 2.66 1.193 2.66 2.665ZM224.35 143.816c0 1.472-1.191 2.665-2.66 2.665-1.47 0-2.661-1.193-2.661-2.665s1.191-2.665 2.661-2.665c1.469 0 2.66 1.193 2.66 2.665ZM221.69 183.728c1.469 0 2.66-1.193 2.66-2.664 0-1.472-1.191-2.665-2.66-2.665-1.47 0-2.661 1.193-2.661 2.665 0 1.471 1.191 2.664 2.661 2.664Z"/>
  <ellipse cx="230.162" cy="200.574" fill="#16191C" rx="31.2284" ry="31.2348"/>
  <path stroke="#1EBFBF" stroke-linecap="round" stroke-width="1.00702" d="M254.843 181.458c4.105 5.284 6.549 11.923 6.549 19.133 0 17.241-13.977 31.217-31.218 31.217-4.675 0-9.11-1.027-13.091-2.869"/>
  <path fill="#F9F9F9" d="M229.576 180.409c-1.723 0-3.12 1.398-3.12 3.122h-8.583c-1.005 0-1.82.815-1.82 1.821 0 1.005.815 1.82 1.82 1.82h24.967c1.005 0 1.82-.815 1.82-1.82 0-1.006-.815-1.821-1.82-1.821h-8.582c0-1.724-1.398-3.122-3.121-3.122h-1.561ZM219.316 188.473c-1.191 0-2.122 1.028-2.004 2.213l2.721 27.446c.102 1.03.969 1.815 2.004 1.815h16.638c1.035 0 1.902-.785 2.004-1.815l2.721-27.446c.118-1.185-.813-2.213-2.004-2.213h-22.08Z"/>
</svg>
