<svg xmlns="http://www.w3.org/2000/svg" width="393" height="317" fill="none"><path fill="#fff" d="M357.68 120.759c-15.809 24.771-58.72 61.726-88.978 80.285-48.198-16.516-43.839-37.378-44.883-48.945l45.458-85.201c22.184 7.607 67.948 21.966 73.526 18.544 6.973-4.276 27.763-53.796 32-60.868 4.041-6.745 13.713-11.255 17.028-1.2 3.228 9.792-14.389 66.421-34.151 97.385ZM49.927 148.452c6.953-21.679 5.89-21.951 16.282-18.815-1.385 36.352-3.555 110.956-8.821 110.677-6.582-.348-10.579-25.662-11.271-32.63-.413-4.147-4.752-12.786-3.812-26.132.64-9.081 4.158-22.299 7.622-33.1Z"/><path fill="#fff" d="M27.054 247.585c-5.198-28.224-5.544-64.462-2.772-80.839 3.244-19.165 7.781-37.283 14.553-37.283 6.778 0 12.128 5.575 6.93 39.025.09 10.859 1.386 25.437 1.386 34.148l10.396 34.496c18.365-12.194 28.406-24.711 36.73-11.846 5.5 8.501 11.229 11.846 15.1 21.117 22.95 13.742 53.249 17.747 53.249 17.747-4.002 27.677-11.433 39.119-28.012 52.851-71.348-20.48-105.211-56.663-107.56-69.416Z"/><rect width="290.175" height="197.036" x="59.156" y="50.015" fill="#16191C" rx="5.526"/><path fill="#fff" d="M137.598 106.275c18.201-16.36 40.134 7.497 48.826 21.47-3.657-15.335-3.634-41.203 12.961-45.524 13.275-3.457 17.638 21.53 16.177 37.373 4.241-15.672 24.129-41.637 38.244-26.893 9.252 9.664-2.014 35.163-11.282 43.574 13.561-7.053 39.995-5.072 42.472 11.308 2.477 16.379-21.88 16.945-37.14 15.545 9.399 9.117 24.82 29.969 11.312 40.441-13.508 10.473-34.146-7.02-41.521-18.805-.574 13.406-2.607 38.308-16.181 44.506-13.575 6.198-17.108-19.472-17.178-33.081-7.722 16.225-25.617 39.394-40.177 26.281-14.559-13.112 3.489-31.979 14.926-42.775-25.307 7.236-47.777-9.088-39.095-27.608 5.901-12.587 29.415-8.655 39.68-3.4-15.303-8.739-33.603-31.542-22.024-42.412Z"/><path fill="#16191C" stroke="#16191C" stroke-width="1.716" d="M192.149 153.85a2.962 2.962 0 1 1-5.692 1.648 2.964 2.964 0 1 1 5.692-1.648ZM211.156 147.355a2.966 2.966 0 0 1-2.023 3.673 2.966 2.966 0 0 1-1.647-5.698 2.964 2.964 0 0 1 3.67 2.025Z"/><path stroke="#16191C" stroke-linecap="round" stroke-width="1.2" d="M166.425 159.804c13.519 8.36 45.568 16.265 65.607-18.99"/><path stroke="#fff" stroke-linecap="round" stroke-width="1.043" d="M62.487 71.785H341.76"/><path fill="#fff" stroke="#fff" stroke-width=".404" d="M77.675 62.083a4.01 4.01 0 0 1-4.009 4.012 4.01 4.01 0 0 1-4.009-4.012 4.01 4.01 0 0 1 4.009-4.012 4.01 4.01 0 0 1 4.009 4.012ZM89.731 62.083a4.01 4.01 0 0 1-4.008 4.012 4.01 4.01 0 0 1-4.01-4.012 4.01 4.01 0 0 1 4.01-4.012 4.01 4.01 0 0 1 4.008 4.012ZM102.445 62.083a4.01 4.01 0 0 1-4.009 4.012 4.01 4.01 0 0 1-4.009-4.012 4.01 4.01 0 0 1 4.009-4.012 4.01 4.01 0 0 1 4.009 4.012Z"/><path fill="#fff" d="M106.653 189.476c-9.248-3.321-17.45 2.785-24.78 15.668-6.246 10.979-10.718 26.257-23.57 32.256-12.852 5.999 24.248 25.751 30.058 22.532 5.81-3.218 23.407-9.101 22.676-10.761-4.384-9.964-7.525-17.953-7.525-21.396 0-21.239 11.866-35.166 3.141-38.299Z"/><path stroke="#16191C" stroke-linecap="round" stroke-linejoin="round" stroke-width="1.2" d="M50.811 239.613a28.36 28.36 0 0 0 3.84-.837c1.289-.378 3.249-1.247 4.397-1.783m40.625-42.643c-1.28 2.089-4.677 10.584-3.84 13.926.838 3.342 4.538 4.178 6.283 4.178m-72.594-63.367c.677.29 2.607 1.19 3.839 0 1.729-1.67 2.907-6.445 4.537-13.927m10.641 13.927c-1.106 8.201-1.106 14.867-2.765 38.09 1.727 15.335 5.82 29.92 9.01 39.3m57.36 36.531c0-4.554.749-9.484-1.452-16.022"/><path fill="#fff" d="M351.507 38.261c6.041 8.216 1.08 19.638-2.156 24.322.299-3.636-1.46-5.3-2.65-6.07-.205.228-.42.46-.642.694-5.127 5.404-10.708 10.447-17.227 15.694-11.844 9.532-23.566-2.391-17.925-10.71 5.641-8.319 29.601-38.887 40.6-23.93Z"/><path fill="#fff" d="M330.776 26.614c5.145 8.814.086 16.82-3.086 19.72l-1.905-3.111c-4.9 5.443-14.328 14.41-21.958 19.339-9.733 6.288-16.09-1.876-15.178-7.245.272-1.597 1.017-3.401 2.072-5.301-11.668 4.77-15.345 3.71-15.345-4.771 0-8.482 5.296-20.144 17.479-24.385 9.746-3.392 15.565 3.877 16.197 7.936 2.702-2.294 15.293-13.2 21.724-2.182Z"/><path stroke="#16191C" stroke-linecap="round" stroke-linejoin="round" stroke-width="1.2" d="M349.073 53.36c-.623 1.12-1.671 2.433-3.012 3.846m-23.463 15.307c3.222-2.3 9.441-7.475 8.539-9.772-1.127-2.872-7.151-11.163-10.738-9.287M331.3 39.051c-2.991 2.29-5.917 5.13-8.605 8.065m-14.478-17.774c-4.061 3.357-13.348 11.98-18.009 19.613"/><path stroke="#fff" stroke-linecap="round" stroke-width="1.5" d="m53.098 1 11.207 38.801M50.07 48.289 1 11.003m7.875 56.99 36.045-3.335M214.944 268.018c50.015 45.55 124.467 36.943 112.901-21.389-5.9-29.751-18.811-17.737-16.008 4.004 4.574 35.473 38.287 49.204 55.454 22.314 17.166-26.891-25.726-69.8 9.718-103.556"/></svg>