<svg width="144" height="144" viewBox="0 0 144 144" fill="none" xmlns="http://www.w3.org/2000/svg">
<g clip-path="url(#clip0_3215_39360)">
<g clip-path="url(#clip1_3215_39360)">
<circle cx="72.3337" cy="72.3341" r="56.5" fill="#1EBFBF"/>
<mask id="mask0_3215_39360" style="mask-type:alpha" maskUnits="userSpaceOnUse" x="15" y="15" width="114" height="114">
<circle cx="72.3337" cy="72.3341" r="56.5" fill="#1EBFBF"/>
</mask>
<g mask="url(#mask0_3215_39360)">
<path fill-rule="evenodd" clip-rule="evenodd" d="M41.486 120.676C41.313 120.562 41.1407 120.448 40.9691 120.333C35.2295 110.901 24.6949 91.7064 23.9929 82.8144C23.0828 71.2858 29.4538 50.3524 32.791 46.8713C35.4608 44.0865 38.7576 45.711 40.0722 46.8713C43.555 43.0051 47.1875 40.8242 50.0838 42.161C57.9718 45.8016 88.6408 62.8419 78.2985 69.1621C75.295 70.9976 70.4255 69.5904 66.1632 67.5148C66.2105 69.9853 64.0763 74.0163 55.1607 70.3757C50.2149 82.9303 43.115 100.822 39.3874 107.085L41.486 120.676Z" fill="#F9F9F9"/>
<path fill-rule="evenodd" clip-rule="evenodd" d="M40.9549 120.137C33.5659 104.622 29.0253 86.5775 33.5467 69.5952C35.0116 64.8138 36.7633 61.0787 39.1384 58.7624C45.2349 52.8167 54.4239 45.678 65.2277 39.2205C67.7468 37.7148 70.5018 35.9522 73.3116 34.1546C83.8603 27.4057 95.1815 20.1627 97.6986 24.1608C102.304 31.4753 96.9284 35.423 85.4354 43.8636C83.8992 44.9918 82.2537 46.2003 80.5081 47.5078C72.2423 53.6993 61.8508 63.7759 59.6424 69.1782C53.2359 84.8504 65.8577 86.8264 71.1393 84.527C76.9168 82.0117 82.4063 77.497 88.3169 71.6602C94.2274 65.8234 100.553 63.5016 107.29 67.9194C108.57 69.6292 98.8297 81.4991 88.9472 93.542C86.1514 96.9489 83.3444 100.37 80.7722 103.578C82.3908 110.385 90.1475 118.433 97.1779 123.769C89.6516 127.493 81.1745 129.586 72.2085 129.586C60.6478 129.586 49.8998 126.106 40.9549 120.137Z" fill="#F9F9F9"/>
<path d="M43.5294 52.0532C45.9754 52.0532 52.498 47.408 55.4536 45.0854M39.5547 46.9031L34.3569 52.0532M62.2857 65.0799L66.1547 67.2006M62.2857 65.0799C60.6867 67.4149 59.4561 69.7401 58.7109 71.9912M62.2857 65.0799C64.4957 61.8525 67.4095 58.6064 70.7182 55.5114" stroke="#16191C" stroke-width="0.672646" stroke-linecap="round"/>
<path d="M83.6274 29.5951C85.7463 31.5201 91.3158 33.5463 96.6431 26.2518M100.275 67.2832C97.2485 69.0055 91.3158 73.058 91.8001 75.4895C92.2844 77.921 95.2306 78.9341 96.6431 79.1367M80.6005 104.06L76.0602 108.315" stroke="#16191C" stroke-width="0.672646" stroke-linecap="round"/>
</g>
<path fill-rule="evenodd" clip-rule="evenodd" d="M116.583 30.0001C115.84 31.124 114.437 31.5495 113.225 31.1032L109.923 36.0963C112.9 38.2275 114.938 41.2088 115.926 44.4871L121.771 43.2954C121.967 42.1752 122.827 41.235 124.009 40.9941C125.55 40.6798 127.055 41.6746 127.369 43.216C127.683 44.7574 126.688 46.2617 125.147 46.5759C123.91 46.8281 122.697 46.2373 122.104 45.1975L116.371 46.3662C116.979 49.8496 116.442 53.5391 114.635 56.824L119.174 59.8257C120.116 59.0051 121.524 58.8763 122.616 59.5988C123.928 60.4665 124.288 62.2336 123.421 63.5457C122.553 64.8579 120.786 65.2181 119.474 64.3504C118.509 63.7126 118.059 62.589 118.233 61.5172L113.606 58.4573C111.369 61.5797 108.196 63.6692 104.726 64.5956L105.724 69.4881C107.035 69.5053 108.202 70.4309 108.475 71.7678C108.789 73.3091 107.794 74.8134 106.253 75.1276C104.711 75.4419 103.207 74.4471 102.893 72.9057C102.674 71.8318 103.09 70.776 103.884 70.128L102.835 64.981C99.2792 65.4862 95.541 64.8045 92.26 62.8055L89.5738 66.8674C90.4591 67.8077 90.6169 69.2656 89.8736 70.3896C89.0058 71.7017 87.2387 72.0619 85.9266 71.1942C84.6145 70.3265 84.2542 68.5594 85.122 67.2473C85.7369 66.3174 86.8036 65.8656 87.8399 65.9901L90.6737 61.705C87.7274 59.3898 85.7901 56.2064 84.9861 52.7646L79.9581 53.7896C79.8181 54.9774 78.9336 55.9944 77.6977 56.2464C76.1563 56.5606 74.652 55.5658 74.3378 54.0244C74.0236 52.483 75.0184 50.9788 76.5597 50.6645C77.7424 50.4234 78.9032 50.953 79.5214 51.9087L84.6603 50.8611C84.286 47.4593 84.994 43.9196 86.8968 40.7944L82.1787 37.6742C81.2604 38.2538 80.05 38.2795 79.0855 37.6416C77.7734 36.7739 77.4131 35.0068 78.2809 33.6947C79.1486 32.3826 80.9157 32.0223 82.2278 32.89C83.3201 33.6124 83.7528 34.9581 83.3665 36.1456L87.9968 39.2077C90.2009 36.4009 93.1928 34.5092 96.4458 33.64L95.2205 27.6297C94.2372 27.3437 93.4416 26.5356 93.2229 25.4625C92.9086 23.9211 93.9034 22.4168 95.4448 22.1026C96.9862 21.7884 98.4905 22.7832 98.8047 24.3245C99.0774 25.6621 98.3644 26.9716 97.1639 27.5L98.337 33.2543C101.67 32.7803 105.163 33.3489 108.289 35.0674L111.739 29.8513C111.218 28.9464 111.217 27.7878 111.832 26.8578C112.699 25.5457 114.466 25.1854 115.779 26.0531C117.091 26.9209 117.451 28.688 116.583 30.0001Z" fill="#16191C"/>
</g>
</g>
<defs>
<clipPath id="clip0_3215_39360">
<rect width="144" height="144" fill="white"/>
</clipPath>
<clipPath id="clip1_3215_39360">
<rect width="113.004" height="113.004" fill="white" transform="translate(15.8341 15.8341)"/>
</clipPath>
</defs>
</svg>
