<svg width="568" height="420" fill="none" xmlns="http://www.w3.org/2000/svg">
  <g clip-path="url(#a)">
    <path d="M132.729 155.351c-32.176 49.606-95.8597 15.083-91.1672-18.435 4.6924-33.518 85.8052 116.976-41.56176424 71.728M563.114 139.746c-32.512-38.21-85.134-46.2546-78.431 0 6.704 46.254 85.47 136.751 57.651 68.375-27.82-68.375-103.905-83.794-121.334-41.897" stroke="#8BC4CE" stroke-width="1.13746" stroke-linecap="round"/>
    <path d="M437.08 223.901c-25.371-12.399-51.059 7.779-56.31 18.505l-10.611 58.25h191.936c2.709-9.273 1.615-26.278-24.427-20.11 3.395-10.475 1.714-22.331-13.328-31.507-26.814-16.356-68.183 0-79.887 19.846 5.14-8.715 16.089-33.518-7.373-44.984ZM142.508 267.677c-13.792-20.082-49.1034-58.186-80.0134-49.952-30.5342 8.135-13.3105 36.042-.4721 49.463-7.2583-7.398-25.8424-21.045-46.0755-20.097-25.85984 1.211-12.77783 40.566 0 52.978l126.561.303v-32.695ZM510.588 382.055H56.4384v7.494c0 8.417 6.8236 15.241 15.241 15.241H495.347c8.417 0 15.241-6.824 15.241-15.241v-7.494Z" fill="#16191C"/>
    <path d="M328.426 386.734v0c0 5.051-4.094 9.145-9.145 9.145h-71.633c-5.05 0-9.144-4.094-9.144-9.145v0" stroke="#F9F9F9" stroke-width="1.65483" stroke-linecap="round"/>
    <path d="M470.108 97.7723c0-8.4174-6.823-15.2411-15.241-15.2411h-342.43c-8.418 0-15.2414 6.8237-15.2414 15.2411V322.637H470.108V97.7723Z" fill="#16191C"/>
    <path d="M511 382.481H56.3348l40.859-59.833H470.107L511 382.481Z" fill="#222E3A" fill-opacity=".05"/>
    <path d="m97.1928 322.648-35.4147 51.86m408.3279-51.86 37.131 54.329" stroke="#16191C" stroke-width="1.5241"/>
    <mask id="b" style="mask-type:alpha" maskUnits="userSpaceOnUse" x="92" y="329" width="384" height="41">
      <path d="M115.682 329.484h336.362c.582 0 1.121.306 1.42.805l21.8 36.406c.66 1.103-.134 2.505-1.42 2.505H93.9008c-1.2854 0-2.08-1.401-1.4201-2.504l21.7813-36.406c.299-.5.838-.806 1.42-.806Z" fill="#1EBFBF"/>
    </mask>
    <g mask="url(#b)">
      <path d="M115.682 329.484h336.362c.582 0 1.121.306 1.42.805l21.8 36.406c.66 1.103-.134 2.505-1.42 2.505H93.9008c-1.2854 0-2.08-1.401-1.4201-2.504l21.7813-36.406c.299-.5.838-.806 1.42-.806Z" fill="#178A9E"/>
      <path d="m138.253 326.164-22.754 47.163h28.959l17.79-47.163h23.995L175.9 373.327h27.305l6.619-47.163h25.236l-3.309 47.163h27.304l.828-47.163h23.995l4.137 47.163h27.305l-6.206-47.163h24.409l9.929 45.094h29.373l-13.239-45.094h27.305l14.894 45.094h25.236m4.551-45.094 23.167 45.094" stroke="#222E3A" stroke-width="1.65483" stroke-linecap="round"/>
      <path d="M99.3645 336.922H471.702l8.688 8.688H89.0218l-10.7564 10.756H476.666" stroke="#222E3A" stroke-width="1.65483" stroke-linecap="round"/>
    </g>
    <mask id="c" style="mask-type:alpha" maskUnits="userSpaceOnUse" x="106" y="91" width="356" height="223">
      <path d="M461.144 98.8237c0-4.2087-3.412-7.6206-7.621-7.6206h-339.65c-4.209 0-7.62 3.4118-7.62 7.6205V313.01h354.891V98.8237Z" fill="#1EBFBF"/>
    </mask>
    <g mask="url(#c)">
      <path fill="#178A9E" d="M461.144 91.2031H106.253v221.807h354.891z"/>
    </g>
    <mask id="d" style="mask-type:alpha" maskUnits="userSpaceOnUse" x="128" y="-54" width="308" height="378">
      <path fill="#fff" d="M435.295-53.6875H128.324v377.302h306.971z"/>
    </mask>
    <g mask="url(#d)">
      <mask id="e" style="mask-type:alpha" maskUnits="userSpaceOnUse" x="150" y="17" width="261" height="350">
        <path d="M410.542 176.928c0-77.3388-54.332-143.9942-129.973-159.4514-75.64 15.4572-129.972 82.1126-129.972 159.4514v189.718h259.945V176.928Z" fill="#F9F9F9"/>
      </mask>
      <g mask="url(#e)">
        <path d="M410.542 176.928c0-77.3388-54.332-143.9942-129.973-159.4514-75.64 15.4572-129.972 82.1126-129.972 159.4514v189.718h259.945V176.928Z" fill="#F9F9F9"/>
        <path d="M423.184 225.438h-56.907M423.184 278.109h-56.907M419.322 168.516l-55.502 3.161M280.564 78.5859V-.100179M404.918 101.797l-58.663 29.156M373.335 22.625l-53.114 62.7705M137.95 225.43h56.907M137.95 278.102h56.907M141.812 168.523l55.501 3.162M156.216 101.773l58.663 29.156M187.799 22.6094l53.114 62.7705" stroke="#16191C" stroke-width="1.65483"/>
        <path fill-rule="evenodd" clip-rule="evenodd" d="M185.028 176.884v155.354h191.095V176.884c0-58.591-39.553-109.3996-95.547-124.1028-55.995 14.7032-95.548 65.5118-95.548 124.1028Z" fill="#178A9E"/>
        <path d="M216.858 317.404v-27.305m44.494 18.617v-80.673m43.614-160.1055v22.3402m0 232.5043v-83.569m40.969 83.569V222.664m0-115.079v51.782m-129.077-48.404v142.729m44.494-40.129v-37.234m43.614-16.962v48.404M261.352 90.2777V67.9375" stroke="#222E3A" stroke-width="1.65483"/>
      </g>
      <path d="M269.101 102.773v68.422h-16.667v-68.422h16.667Zm59.35 22.028c0 3.963-.909 7.602-2.729 10.916-1.819 3.249-4.613 5.881-8.382 7.895-3.769 2.014-8.447 3.021-14.035 3.021h-10.332v24.562h-16.667v-68.422h26.999c5.458 0 10.071.942 13.84 2.827 3.769 1.884 6.595 4.483 8.48 7.797 1.884 3.314 2.826 7.115 2.826 11.404Zm-26.413 8.577c3.184 0 5.555-.747 7.115-2.242 1.559-1.494 2.339-3.606 2.339-6.335s-.78-4.841-2.339-6.336c-1.56-1.494-3.931-2.241-7.115-2.241h-9.065v17.154h9.065Z" fill="#fff"/>
      <path d="M269.101 102.773h.931c0-.514-.417-.931-.931-.931v.931Zm0 68.422v.931c.514 0 .931-.417.931-.931h-.931Zm-16.667 0h-.931c0 .514.417.931.931.931v-.931Zm0-68.422v-.931c-.514 0-.931.417-.931.931h.931Zm15.736 0v68.422h1.862v-68.422h-1.862Zm.931 67.492h-16.667v1.861h16.667v-1.861Zm-15.736.93v-68.422h-1.862v68.422h1.862Zm-.931-67.491h16.667v-1.862h-16.667v1.862Zm73.288 32.013.812.455.004-.007-.816-.448Zm-8.382 7.895-.439-.821.439.821Zm-24.367 3.021v-.93c-.514 0-.931.416-.931.93h.931Zm0 24.562v.931c.514 0 .931-.417.931-.931h-.931Zm-16.667 0h-.931c0 .514.417.931.931.931v-.931Zm0-68.422v-.931c-.514 0-.931.417-.931.931h.931Zm40.839 2.827.416-.833-.416.833Zm-24.172 10.624v-.931c-.514 0-.931.417-.931.931h.931Zm0 17.154h-.931c0 .514.417.931.931.931v-.931Zm34.548-8.577c0 3.815-.874 7.298-2.615 10.468l1.632.896c1.899-3.458 2.844-7.252 2.844-11.364h-1.861Zm-2.611 10.461c-1.72 3.072-4.373 5.586-8.009 7.529l.878 1.642c3.902-2.086 6.837-4.835 8.755-8.261l-1.624-.91Zm-8.009 7.529c-3.598 1.923-8.116 2.912-13.596 2.912v1.861c5.695 0 10.535-1.026 14.474-3.131l-.878-1.642Zm-13.596 2.912h-10.332v1.861h10.332v-1.861Zm-11.263.93v24.562h1.862v-24.562h-1.862Zm.931 23.632h-16.667v1.861h16.667v-1.861Zm-15.736.93v-68.422h-1.862v68.422h1.862Zm-.931-67.491h26.999v-1.862h-26.999v1.862Zm26.999 0c5.355 0 9.817.925 13.424 2.728l.832-1.665c-3.93-1.965-8.695-2.925-14.256-2.925v1.862Zm13.424 2.728c3.622 1.811 6.303 4.288 8.087 7.425l1.618-.92c-1.985-3.491-4.957-6.212-8.873-8.17l-.832 1.665Zm8.087 7.425c1.795 3.157 2.705 6.796 2.705 10.944h1.861c0-4.43-.974-8.393-2.948-11.864l-1.618.92Zm-22.778 20.452c3.311 0 5.959-.776 7.759-2.501l-1.288-1.344c-1.319 1.264-3.415 1.983-6.471 1.983v1.862Zm7.759-2.501c1.788-1.714 2.626-4.095 2.626-7.007h-1.862c0 2.546-.721 4.388-2.052 5.663l1.288 1.344Zm2.626-7.007c0-2.912-.838-5.294-2.626-7.008l-1.288 1.344c1.331 1.276 2.052 3.118 2.052 5.664h1.862Zm-2.626-7.008c-1.8-1.724-4.448-2.5-7.759-2.5v1.861c3.056 0 5.152.719 6.471 1.983l1.288-1.344Zm-7.759-2.5h-9.065v1.861h9.065v-1.861Zm-9.996.931v17.154h1.862v-17.154h-1.862Zm.931 18.085h9.065v-1.862h-9.065v1.862Z" fill="#F9F9F9"/>
    </g>
    <path d="M183.389 78.8831c2.23-2.9586 4.56-5.8404 6.985-8.6401m187.379 8.6401c-23.198-30.7782-57.215-53.2392-97.182-61.4065-32.106 6.5608-60.373 22.3456-82.275 44.256" stroke="#16191C" stroke-width="1.72802" stroke-linecap="round"/>
    <path d="m117.851 36.3374 6.667-.5509-6.667-.606c-5.894-.9917-10.522-5.6195-11.514-11.5143L105.731 17l-.606 6.6662c-.936 5.8948-5.5642 10.5226-11.4591 11.5143l-6.6662.606 6.6662.5509c5.8949.9916 10.5231 5.6194 11.5141 11.5143l.606 6.6661.551-6.6661c.992-5.8949 5.62-10.5227 11.514-11.5143Z" stroke="#8BC4CE" stroke-width="1.13746" stroke-linecap="round"/>
    <path d="M417.884 36.6743c.352-.0302.352-.5456 0-.5788-2.844-.4961-5.077-2.8113-5.555-5.7605-.031-.3571-.553-.3571-.585 0-.452 2.9492-2.684 5.2644-5.528 5.7605-.352.0332-.353.5486 0 .5788 2.844.4961 5.076 2.8114 5.555 5.7605.03.342.531.3423.558 0 .478-2.9491 2.711-5.2644 5.555-5.7605Z" fill="#C5E2E7"/>
    <path d="m23.8837 235.674 3.2159-.275-3.2159-.303c-2.8438-.497-5.0764-2.812-5.5548-5.761L18.0366 226l-.2924 3.335c-.4518 2.949-2.6843 5.264-5.5282 5.761l-3.21586.303 3.21586.275c2.8439.496 5.0764 2.812 5.5548 5.761l.2924 3.335.2657-3.335c.4784-2.949 2.711-5.265 5.5548-5.761Z" stroke="#8BC4CE" stroke-width="1.13746" stroke-linecap="round"/>
    <rect width="224.363" height="50.6895" rx="4.15488" transform="matrix(-1 0 0 1 393 185.531)" fill="#222E3A"/>
    <path d="M196.818 209.715c-1.371-.714-2.057-1.818-2.057-3.313 0-.74.185-1.412.555-2.016.385-.617.954-1.104 1.708-1.461.768-.37 1.701-.555 2.798-.555s2.023.185 2.778.555c.768.357 1.337.844 1.707 1.461.384.604.576 1.276.576 2.016 0 .755-.185 1.42-.555 1.996-.37.562-.864 1.001-1.481 1.317.754.329 1.344.809 1.769 1.44.425.631.638 1.378.638 2.242 0 .933-.24 1.749-.72 2.449-.467.686-1.111 1.214-1.934 1.584-.823.37-1.749.555-2.778.555s-1.954-.185-2.777-.555c-.81-.37-1.454-.898-1.934-1.584-.467-.7-.7-1.516-.7-2.449 0-.864.213-1.611.638-2.242.425-.645 1.015-1.125 1.769-1.44Zm5.267-2.901c0-.672-.205-1.194-.617-1.564-.398-.37-.946-.555-1.646-.555-.686 0-1.234.185-1.646.555-.398.37-.596.899-.596 1.584 0 .618.205 1.111.617 1.482.425.37.967.555 1.625.555.659 0 1.2-.185 1.626-.555.425-.384.637-.885.637-1.502Zm-2.263 4.156c-.782 0-1.419.199-1.913.596-.48.398-.72.967-.72 1.708 0 .686.233 1.248.699 1.687.48.425 1.125.638 1.934.638.809 0 1.447-.22 1.914-.659.466-.438.699-.994.699-1.666 0-.727-.24-1.289-.72-1.687-.48-.412-1.111-.617-1.893-.617Zm7.583 3.436c1.317-1.098 2.366-2.01 3.148-2.737.782-.74 1.433-1.509 1.955-2.304.521-.796.781-1.577.781-2.345 0-.7-.164-1.249-.493-1.646-.33-.398-.837-.597-1.523-.597-.686 0-1.214.233-1.584.699-.37.453-.562 1.077-.576 1.873h-2.798c.055-1.646.542-2.894 1.461-3.745.932-.85 2.112-1.275 3.538-1.275 1.564 0 2.764.418 3.601 1.255.836.823 1.255 1.913 1.255 3.271 0 1.07-.288 2.092-.864 3.065-.576.974-1.235 1.825-1.975 2.552-.741.713-1.708 1.577-2.901 2.592h6.069v2.387h-10.164v-2.14l1.07-.905Zm11.485 3.394c-.521 0-.953-.157-1.296-.473-.329-.329-.494-.734-.494-1.214s.165-.878.494-1.193c.343-.329.775-.494 1.296-.494.508 0 .926.165 1.255.494.329.315.494.713.494 1.193 0 .48-.165.885-.494 1.214-.329.316-.747.473-1.255.473Zm2.361-12.488v-2.654h4.959v14.998h-2.963v-12.344h-1.996Zm6.816 1.296c.069-1.372.549-2.428 1.441-3.168.905-.755 2.091-1.132 3.559-1.132 1.001 0 1.858.178 2.572.535.713.343 1.248.816 1.604 1.42.371.589.556 1.261.556 2.016 0 .864-.226 1.598-.679 2.201-.439.59-.967.988-1.584 1.194v.082c.795.247 1.413.686 1.852 1.317.452.631.678 1.44.678 2.427 0 .823-.192 1.557-.576 2.202-.37.644-.925 1.152-1.666 1.522-.727.357-1.605.535-2.634.535-1.549 0-2.811-.391-3.785-1.173-.974-.781-1.488-1.934-1.543-3.456h2.798c.027.672.254 1.214.679 1.625.439.398 1.035.597 1.79.597.699 0 1.234-.192 1.604-.576.385-.398.577-.905.577-1.523 0-.823-.261-1.412-.782-1.769s-1.331-.535-2.428-.535h-.597v-2.366h.597c1.948 0 2.921-.651 2.921-1.954 0-.59-.178-1.05-.534-1.379-.343-.329-.844-.494-1.502-.494-.645 0-1.146.179-1.502.535-.343.343-.542.782-.597 1.317h-2.819Zm21.328-1.461h-6.666v3.518c.288-.356.7-.644 1.235-.864.535-.233 1.104-.349 1.707-.349 1.098 0 1.996.24 2.695.72.7.48 1.207 1.097 1.523 1.851.315.741.473 1.536.473 2.387 0 1.577-.453 2.846-1.358 3.806-.891.96-2.167 1.44-3.827 1.44-1.563 0-2.811-.391-3.744-1.172-.933-.782-1.461-1.804-1.584-3.066h2.798c.123.549.398.988.823 1.317.439.329.994.494 1.666.494.81 0 1.42-.254 1.831-.762.412-.507.618-1.179.618-2.016 0-.85-.213-1.495-.638-1.934-.412-.453-1.022-.679-1.831-.679-.576 0-1.056.144-1.44.432-.384.288-.659.672-.823 1.152h-2.757v-8.805h9.299v2.53Zm3.735 12.653c-.521 0-.953-.157-1.296-.473-.329-.329-.493-.734-.493-1.214s.164-.878.493-1.193c.343-.329.775-.494 1.296-.494.508 0 .926.165 1.255.494.33.315.494.713.494 1.193 0 .48-.164.885-.494 1.214-.329.316-.747.473-1.255.473Zm3.617-3.394c1.316-1.098 2.366-2.01 3.147-2.737.782-.74 1.434-1.509 1.955-2.304.521-.796.782-1.577.782-2.345 0-.7-.165-1.249-.494-1.646-.329-.398-.837-.597-1.522-.597-.686 0-1.214.233-1.585.699-.37.453-.562 1.077-.576 1.873h-2.798c.055-1.646.542-2.894 1.461-3.745.933-.85 2.112-1.275 3.539-1.275 1.563 0 2.763.418 3.6 1.255.837.823 1.255 1.913 1.255 3.271 0 1.07-.288 2.092-.864 3.065-.576.974-1.234 1.825-1.975 2.552-.741.713-1.708 1.577-2.901 2.592h6.069v2.387h-10.163v-2.14l1.07-.905Zm9.756.329v-2.263l6.728-9.629h3.353v9.382h1.811v2.51h-1.811v2.921h-2.88v-2.921h-7.201Zm7.386-8.806-4.217 6.296h4.217v-6.296Zm13.088.473c-.137-.576-.377-1.008-.72-1.296-.329-.288-.809-.432-1.44-.432-.947 0-1.646.384-2.099 1.152-.439.755-.665 1.989-.679 3.704.329-.549.81-.974 1.44-1.276.631-.316 1.317-.473 2.058-.473.891 0 1.68.192 2.366.576.686.384 1.221.946 1.605 1.687.384.727.576 1.605.576 2.633 0 .974-.199 1.845-.597 2.613-.384.755-.953 1.344-1.708 1.77-.754.425-1.652.637-2.695.637-1.426 0-2.551-.315-3.374-.946-.809-.631-1.378-1.509-1.708-2.633-.315-1.139-.473-2.538-.473-4.198 0-2.51.432-4.402 1.296-5.678.865-1.289 2.229-1.934 4.095-1.934 1.44 0 2.558.391 3.353 1.173.796.782 1.255 1.755 1.379 2.921h-2.675Zm-2.099 3.745c-.726 0-1.337.212-1.831.638-.493.425-.74 1.042-.74 1.851 0 .809.226 1.447.679 1.914.466.466 1.118.699 1.954.699.741 0 1.324-.226 1.749-.679.439-.452.658-1.063.658-1.831 0-.795-.212-1.426-.637-1.893-.412-.466-1.022-.699-1.832-.699Zm8.058 7.653c-.521 0-.953-.157-1.296-.473-.329-.329-.494-.734-.494-1.214s.165-.878.494-1.193c.343-.329.775-.494 1.296-.494.508 0 .926.165 1.255.494.329.315.494.713.494 1.193 0 .48-.165.885-.494 1.214-.329.316-.747.473-1.255.473Zm3.616-3.394c1.317-1.098 2.366-2.01 3.148-2.737.782-.74 1.434-1.509 1.955-2.304.521-.796.782-1.577.782-2.345 0-.7-.165-1.249-.494-1.646-.329-.398-.837-.597-1.523-.597-.685 0-1.214.233-1.584.699-.37.453-.562 1.077-.576 1.873h-2.798c.055-1.646.542-2.894 1.461-3.745.932-.85 2.112-1.275 3.538-1.275 1.564 0 2.764.418 3.601 1.255.837.823 1.255 1.913 1.255 3.271 0 1.07-.288 2.092-.864 3.065-.576.974-1.235 1.825-1.975 2.552-.741.713-1.708 1.577-2.901 2.592h6.069v2.387h-10.163v-2.14l1.069-.905Zm12.39-4.691c-1.371-.714-2.057-1.818-2.057-3.313 0-.74.185-1.412.556-2.016.384-.617.953-1.104 1.707-1.461.768-.37 1.701-.555 2.798-.555 1.098 0 2.023.185 2.778.555.768.357 1.337.844 1.707 1.461.384.604.576 1.276.576 2.016 0 .755-.185 1.42-.555 1.996-.37.562-.864 1.001-1.481 1.317.754.329 1.344.809 1.769 1.44.425.631.638 1.378.638 2.242 0 .933-.24 1.749-.72 2.449-.467.686-1.111 1.214-1.934 1.584-.823.37-1.749.555-2.778.555-1.028 0-1.954-.185-2.777-.555-.809-.37-1.454-.898-1.934-1.584-.467-.7-.7-1.516-.7-2.449 0-.864.213-1.611.638-2.242.425-.645 1.015-1.125 1.769-1.44Zm5.267-2.901c0-.672-.205-1.194-.617-1.564-.398-.37-.946-.555-1.646-.555-.686 0-1.234.185-1.646.555-.397.37-.596.899-.596 1.584 0 .618.205 1.111.617 1.482.425.37.967.555 1.625.555.659 0 1.2-.185 1.626-.555.425-.384.637-.885.637-1.502Zm-2.263 4.156c-.782 0-1.419.199-1.913.596-.48.398-.72.967-.72 1.708 0 .686.233 1.248.699 1.687.48.425 1.125.638 1.934.638.81 0 1.447-.22 1.914-.659.466-.438.699-.994.699-1.666 0-.727-.24-1.289-.72-1.687-.48-.412-1.111-.617-1.893-.617Z" fill="#178A9E"/>
    <rect x="-4.2089" y="4.2089" width="31.9713" height="49.2809" rx="15.9857" transform="matrix(-1 0 0 1 355.196 206.945)" stroke="#178A9E" stroke-width="8.41781"/>
    <path d="M350.794 218.904v-17.252c0-3.842-3.115-6.957-6.957-6.957-3.841 0-6.956 3.115-6.956 6.957v17.252c0 3.842 3.115 6.956 6.956 6.956 3.842 0 6.957-3.114 6.957-6.956Z" fill="#222E3A"/>
    <path d="M350.794 194.695v31.165m-13.913 0v-31.165" stroke="#178A9E" stroke-width="1.66195" stroke-linecap="round"/>
    <path d="M370.827 244.037c0-6.104-4.948-11.053-11.052-11.053h-32.434c-6.104 0-11.052 4.949-11.052 11.053v26.84c0 6.104 4.948 11.052 11.052 11.052h32.434c6.104 0 11.052-4.948 11.052-11.052v-26.84Z" fill="#fff"/>
    <path d="M334.27 252.013c0 5.076 4.115 9.192 9.192 9.192s9.192-4.116 9.192-9.192c0-5.077-4.115-9.193-9.192-9.193s-9.192 4.116-9.192 9.193Z" fill="#222E3A"/>
    <rect width="9.78899" height="19.578" rx="4.89449" transform="matrix(-1 0 0 1 348.454 252.617)" fill="#222E3A"/>
    <path d="M541.851 151.337c.708-.058.707-1.092 0-1.157-5.894-.991-10.522-5.619-11.514-11.514-.067-.738-1.145-.738-1.212 0-.936 5.895-5.564 10.523-11.459 11.514-.707.065-.707 1.099 0 1.157 5.895.992 10.523 5.62 11.514 11.515.064.706 1.099.707 1.157 0 .992-5.895 5.62-10.523 11.514-11.515Z" fill="#C5E2E7"/>
  </g>
  <defs>
    <clipPath id="a">
      <path fill="#fff" d="M0 0h568v420H0z"/>
    </clipPath>
  </defs>
</svg>
