<svg width="229" height="212" viewBox="0 0 229 212" fill="none" xmlns="http://www.w3.org/2000/svg">
<g id="block-image-4" clip-path="url(#clip0_210_12500)">
<g id="Group 3569397">
<g id="Group 36009">
<g id="Group 36002">
<g id="Group 35728">
<path id="Subtract" fill-rule="evenodd" clip-rule="evenodd" d="M73.8122 133.303L113.397 82.2543C127.846 63.6198 127.505 37.7973 113.31 19.6318C130.418 37.8489 131.835 65.905 116.421 85.7822L78.4085 134.804L72.9902 133.732L72.9188 133.64C73.241 133.701 73.5905 133.589 73.8122 133.303Z" fill="#16191C"/>
<path id="Subtract_2" fill-rule="evenodd" clip-rule="evenodd" d="M73.8127 133.304L113.397 82.2545C129.143 61.9482 127.325 33.1063 109.157 14.9384C89.2389 -4.97948 56.9472 -4.97948 37.0293 14.9384C18.8615 33.1063 17.0474 61.9527 32.7889 82.2545L72.3688 133.304C72.7344 133.774 73.4472 133.774 73.8127 133.304ZM73.0106 72.8847C86.7958 72.8847 97.971 61.933 97.971 48.4235C97.971 34.9139 86.7958 23.9622 73.0106 23.9622C59.2253 23.9622 48.0501 34.9139 48.0501 48.4235C48.0501 61.933 59.2253 72.8847 73.0106 72.8847Z" fill="#FA3556"/>
<path id="Vector 1907" d="M108.971 21.6696C116.109 28.5296 125.797 46.8581 114.095 69.7576M108.971 78.1109C110.007 76.6668 110.954 75.2365 111.817 73.8213" stroke="#16191C" stroke-width="1.49763" stroke-linecap="round"/>
<path id="Vector 1908" d="M45.8696 57.4091C47.9356 65.6312 54.2336 76.3217 68.5185 77.7228" stroke="#F9F9F9" stroke-width="1.49763" stroke-linecap="round"/>
</g>
</g>
<path id="Subtract_3" fill-rule="evenodd" clip-rule="evenodd" d="M94.5291 36.0203C89.9614 31.0677 83.3546 27.9557 76.0061 27.9557C62.2208 27.9557 51.0456 38.9074 51.0456 52.417C51.0456 56.9438 52.3004 61.1834 54.4877 64.82C50.4867 60.4819 48.0502 54.7315 48.0502 48.4234C48.0502 34.9138 59.2254 23.9622 73.0106 23.9622C82.1767 23.9622 90.1888 28.8041 94.5291 36.0203Z" fill="#16191C"/>
</g>
<ellipse id="Ellipse 554" cx="11.4818" cy="4.49288" rx="11.4818" ry="4.49288" transform="matrix(-1 0 0 1 187.026 184.707)" fill="#16191C"/>
<ellipse id="Ellipse 553" cx="16.4739" cy="3.99367" rx="16.4739" ry="3.99367" transform="matrix(-1 0 0 1 90.1793 154.755)" fill="#16191C"/>
<ellipse id="Ellipse 555" cx="7.48814" cy="2.49605" rx="7.48814" ry="2.49605" transform="matrix(-1 0 0 1 172.761 81.8739)" fill="#16191C"/>
<path id="Vector 3145" d="M170.829 182.859C142.692 144.941 105.297 149.088 87.2847 154.029" stroke="#16191C" stroke-width="1.49763" stroke-linecap="round" stroke-dasharray="9.98 9.98"/>
<path id="Vector 3146" d="M76.7009 151.261C76.7009 151.261 114.814 90.2601 154.893 85.2638" stroke="#16191C" stroke-width="1.49763" stroke-linecap="round" stroke-dasharray="9.98 9.98"/>
<g id="Group 36014">
<g id="Group 36002_2">
<g id="Group 35728_2">
<path id="Subtract_4" fill-rule="evenodd" clip-rule="evenodd" d="M175.132 174.072L197.345 145.425C205.452 134.971 205.261 120.484 197.301 110.291C206.896 120.514 207.689 136.253 199.041 147.405L177.71 174.914L174.67 174.313L174.629 174.26C174.811 174.295 175.007 174.232 175.132 174.072Z" fill="#16191C"/>
<path id="Subtract_5" fill-rule="evenodd" clip-rule="evenodd" d="M175.132 174.072L197.344 145.425C206.18 134.031 205.16 117.846 194.965 107.651C183.788 96.4742 165.667 96.4742 154.491 107.651C144.296 117.846 143.278 134.033 152.111 145.425L174.321 174.072C174.526 174.336 174.926 174.336 175.132 174.072ZM174.682 140.167C182.417 140.167 188.688 134.022 188.688 126.441C188.688 118.86 182.417 112.715 174.682 112.715C166.946 112.715 160.675 118.86 160.675 126.441C160.675 134.022 166.946 140.167 174.682 140.167Z" fill="#1EBFBF"/>
<path id="Vector 1908_2" d="M159.451 131.483C160.61 136.097 164.145 142.096 172.16 142.882" stroke="#F9F9F9" stroke-width="1.49763" stroke-linecap="round"/>
</g>
</g>
<path id="Subtract_6" fill-rule="evenodd" clip-rule="evenodd" d="M186.758 119.483C184.195 116.703 180.487 114.956 176.363 114.956C168.627 114.956 162.356 121.102 162.356 128.683C162.356 131.222 163.06 133.6 164.286 135.641C162.042 133.206 160.675 129.98 160.675 126.441C160.675 118.86 166.946 112.714 174.682 112.714C179.826 112.714 184.323 115.432 186.758 119.483Z" fill="#16191C"/>
</g>
<g id="Group 36015">
<g id="Group 36002_3">
<g id="Group 35728_3">
<path id="Subtract_7" fill-rule="evenodd" clip-rule="evenodd" d="M164.315 76.7982L151.198 59.8824C145.98 53.1537 146.583 43.5965 152.603 37.5764C159.203 30.9763 169.903 30.9763 176.504 37.5764C182.524 43.5965 183.125 53.1552 177.909 59.8824L164.793 76.7982C164.672 76.9541 164.436 76.9541 164.315 76.7982ZM164.58 56.7776C160.012 56.7776 156.309 53.1486 156.309 48.6721C156.309 44.1955 160.012 40.5665 164.58 40.5665C169.148 40.5665 172.851 44.1955 172.851 48.6721C172.851 53.1486 169.148 56.7776 164.58 56.7776Z" fill="#16191C"/>
</g>
</g>
</g>
<path id="Vector 3143" d="M37.7609 117.813L61.2237 142.774M58.7277 146.268L45.249 142.774M192.625 173.392L188.132 179.318M190.628 182.812L207.102 174.923" stroke="#16191C" stroke-width="1.49763" stroke-linecap="round"/>
</g>
</g>
<defs>
<clipPath id="clip0_210_12500">
<rect width="228" height="212" fill="white" transform="translate(0.375366)"/>
</clipPath>
</defs>
</svg>
