<svg width="144" height="144" viewBox="0 0 144 144" fill="none" xmlns="http://www.w3.org/2000/svg">
<ellipse cx="72.5" cy="72.5115" rx="56.5" ry="56.5115" fill="#1EBFBF"/>
<mask id="mask0_3219_38188" style="mask-type:alpha" maskUnits="userSpaceOnUse" x="0" y="3" width="129" height="127">
<path fill-rule="evenodd" clip-rule="evenodd" d="M83 3H0V79H16.3684C19.5861 107.155 43.4897 129.023 72.5 129.023C103.704 129.023 129 103.722 129 72.5115C129 44.8897 109.187 21.8965 83 16.974V3Z" fill="#D9D9D9"/>
</mask>
<g mask="url(#mask0_3219_38188)">
<path fill-rule="evenodd" clip-rule="evenodd" d="M98.7918 36.0717C101.236 38.5666 103.702 41.226 106.119 43.9335C104.989 44.479 104.011 45.368 103.358 46.5507C101.685 49.5837 102.787 53.399 105.82 55.0725C108.675 56.6479 112.224 55.7633 114.026 53.1234C121.145 61.6754 126.963 69.3682 129.194 72.3602C129.762 73.1217 129.658 74.1735 128.968 74.827L93.683 108.266C92.8664 109.04 91.5642 108.944 90.877 108.053C88.5644 105.055 83.3339 98.367 77.0797 90.9654C77.3886 90.6198 77.6637 90.2343 77.8971 89.8112C79.5705 86.7781 78.4684 82.9628 75.4354 81.2894C73.3016 80.1121 70.7806 80.3086 68.8906 81.5846C66.2916 78.7161 63.6577 75.9244 61.0958 73.3774C49.013 61.3648 31.8884 46.2895 26.7043 41.7611C25.8711 41.0334 25.8404 39.7528 26.6335 38.9817L62.0758 4.52012C62.7731 3.84212 63.864 3.79981 64.6016 4.43382C69.2972 8.47041 85.823 22.8345 98.7918 36.0717Z" fill="#16191C"/>
<path d="M57.4473 28.7711L55.8391 27.327L57.3539 25.64C55.4314 23.3726 55.8207 20.8458 56.8821 19.3782L59.2619 20.6607C58.4646 21.7389 58.3057 23.248 59.7562 24.5505C60.781 25.4707 61.819 25.5199 62.442 24.8262C62.9233 24.2901 62.8972 23.5262 62.2646 22.6449L61.0973 21.0271C59.7342 19.1198 59.6406 17.0991 60.9997 15.5855C62.5003 13.9142 64.8975 13.8454 66.8252 15.0921L68.34 13.4051L69.9482 14.8492L68.3909 16.5835C69.9067 18.5427 69.5625 20.5119 68.8347 21.7664L66.3999 20.5769C66.8008 19.9401 67.212 18.6576 65.9191 17.4967C64.9101 16.5906 63.8344 16.6785 63.254 17.3249C62.8151 17.8137 62.7939 18.5351 63.3933 19.3581L64.5308 20.9775C66.121 23.2028 65.9579 25.1923 64.6837 26.6113C63.3812 28.0618 61.1373 28.4676 58.9763 27.0683L57.4473 28.7711Z" fill="#1EBFBF"/>
<path d="M66.5045 36.9038L64.8963 35.4597L66.4111 33.7727C64.4885 31.5053 64.8778 28.9785 65.9393 27.5109L68.3191 28.7934C67.5218 29.8716 67.3628 31.3807 68.8134 32.6832C69.8382 33.6034 70.8762 33.6526 71.4991 32.9589C71.9805 32.4228 71.9544 31.6589 71.3218 30.7776L70.1544 29.1598C68.7914 27.2525 68.6977 25.2318 70.0568 23.7182C71.5575 22.0469 73.9546 21.9781 75.8823 23.2248L77.3972 21.5378L79.0054 22.9819L77.448 24.7162C78.9639 26.6754 78.6196 28.6446 77.8918 29.8991L75.457 28.7096C75.858 28.0728 76.2691 26.7903 74.9763 25.6294C73.9672 24.7233 72.8916 24.8112 72.3111 25.4576C71.8722 25.9464 71.851 26.6678 72.4505 27.4908L73.5879 29.1102C75.1781 31.3355 75.015 33.325 73.7409 34.744C72.4384 36.1945 70.1944 36.6003 68.0335 35.201L66.5045 36.9038Z" fill="#1EBFBF"/>
<path fill-rule="evenodd" clip-rule="evenodd" d="M66.8252 15.0921C64.8975 13.8454 62.5003 13.9142 60.9997 15.5855C59.6406 17.0991 59.7342 19.1198 61.0973 21.0271L62.2646 22.6449C62.8972 23.5262 62.9233 24.2901 62.442 24.8262C61.819 25.5199 60.781 25.4707 59.7562 24.5505C58.5686 23.4841 58.4599 22.2792 58.8971 21.2856C58.9939 21.0657 59.1174 20.8561 59.2619 20.6607L56.8821 19.3782C55.8207 20.8458 55.4314 23.3726 57.3539 25.64L55.8391 27.327L57.4473 28.7711L58.9763 27.0683C61.1373 28.4676 63.3812 28.0618 64.6837 26.6113C65.9579 25.1923 66.121 23.2028 64.5308 20.9775L63.3933 19.3581C62.7939 18.5351 62.8151 17.8137 63.254 17.3249C63.8344 16.6785 64.9101 16.5906 65.9191 17.4967C66.9248 18.3998 66.8994 19.3764 66.6498 20.0655C66.5785 20.2622 66.4889 20.4355 66.3999 20.5769L68.8347 21.7664C68.9409 21.5833 69.0389 21.3851 69.1242 21.1738C69.1322 21.1541 69.14 21.1343 69.1477 21.1144C69.625 19.8839 69.6649 18.2302 68.3909 16.5835L69.9482 14.8492L68.34 13.4051L66.8252 15.0921ZM73.5879 29.1102L72.4505 27.4908C71.851 26.6678 71.8722 25.9464 72.3111 25.4576C72.8916 24.8112 73.9672 24.7233 74.9763 25.6294C75.982 26.5325 75.9565 27.5091 75.7069 28.1982C75.6356 28.3949 75.5461 28.5682 75.457 28.7096L77.8918 29.8991C77.9981 29.716 78.0961 29.5177 78.1814 29.3065C78.1893 29.2868 78.1972 29.267 78.2049 29.2471C78.6821 28.0166 78.7221 26.3629 77.448 24.7162L79.0054 22.9819L77.3972 21.5378L75.8823 23.2248C73.9546 21.9781 71.5575 22.0469 70.0568 23.7182C68.6977 25.2318 68.7914 27.2525 70.1544 29.1598L71.3218 30.7776C71.9544 31.6589 71.9805 32.4228 71.4991 32.9589C70.8762 33.6526 69.8382 33.6034 68.8134 32.6832C67.6257 31.6168 67.517 30.4119 67.9542 29.4183C68.051 29.1984 68.1746 28.9888 68.3191 28.7934L65.9393 27.5109C64.8778 28.9785 64.4885 31.5053 66.4111 33.7727L64.8963 35.4597L66.5045 36.9038L68.0335 35.201C70.1944 36.6003 72.4384 36.1945 73.7409 34.744C75.015 33.325 75.1781 31.3355 73.5879 29.1102Z" fill="#1EBFBF"/>
<path d="M69.63 40.0444C72.9151 41.5758 76.281 43.2593 79.6176 45.007C78.7186 45.9495 78.0929 47.1702 77.8907 48.5572C77.3722 52.1145 79.8355 55.4185 83.3928 55.937C86.7417 56.4252 89.8663 54.2704 90.6534 51.0481C100.574 56.6914 108.955 61.9829 112.295 64.125C113.187 64.6972 113.498 65.8411 113.035 66.7942L91.0919 111.894C90.5426 113.023 89.1465 113.434 88.0788 112.774C84.6724 110.667 77.2347 106.137 68.5756 101.296C68.7496 100.847 68.8761 100.372 68.9485 99.876C69.467 96.3188 67.0036 93.0147 63.4464 92.4962C60.9437 92.1314 58.5664 93.2426 57.1962 95.1722C53.6242 93.3343 50.0465 91.5837 46.6281 90.0446C30.6191 82.8369 8.67897 74.5101 1.8218 71.939C0.666075 71.5056 0.1373 70.1824 0.663025 69.0657L22.3884 22.9173C22.8506 21.9355 23.9813 21.4659 25.0003 21.839C31.2091 24.1118 52.3252 31.9778 69.63 40.0444Z" fill="#F9F9F9"/>
<path d="M15.0669 77.0049C9.24692 74.7381 4.45077 72.9252 1.835 71.9443C0.679284 71.5109 0.13713 70.1827 0.662858 69.066L22.3882 22.9176C22.8505 21.9358 23.9812 21.4663 25.0003 21.8393C26.9737 22.5617 30.453 23.8491 34.8371 25.5284" stroke="#16191C" stroke-width="0.672646" stroke-linecap="round"/>
<ellipse cx="41.6088" cy="56.7894" rx="22.4199" ry="21.335" transform="rotate(8.29335 41.6088 56.7894)" fill="#1EBFBF"/>
<path fill-rule="evenodd" clip-rule="evenodd" d="M68.4567 96.2947C67.7187 94.6378 66.3019 93.3194 64.507 92.7425C64.507 92.7425 64.9342 91.6847 65.6698 89.8983C66.6514 90.032 67.5594 89.3499 67.7026 88.3675C67.8008 87.6939 67.5141 87.053 67.0086 86.6676C67.2209 86.1583 67.4441 85.6245 67.677 85.0691C67.722 85.0792 67.7677 85.0877 67.814 85.0945C68.8022 85.2385 69.72 84.5542 69.864 83.5661C69.969 82.8456 69.6336 82.1624 69.0611 81.7894C69.2764 81.2823 69.4968 80.7647 69.7218 80.2382C69.804 80.2625 69.889 80.2813 69.9763 80.294C70.9645 80.4381 71.8823 79.7538 72.0263 78.7657C72.1363 78.0112 71.7634 77.2978 71.1411 76.9385C71.3596 76.434 71.5809 75.9248 71.8045 75.4122C71.9107 75.449 72.0219 75.4763 72.1372 75.4931C73.1253 75.6372 74.0431 74.9529 74.1872 73.9648C74.2998 73.1919 73.9057 72.4621 73.2559 72.1118C73.4795 71.6077 73.7044 71.1027 73.9303 70.5979C74.0473 70.6412 74.1706 70.673 74.299 70.6917C75.2872 70.8358 76.205 70.1515 76.349 69.1634C76.4617 68.3901 76.0672 67.6599 75.4167 67.3099C75.6475 66.805 75.8784 66.3028 76.109 65.8043C76.2208 65.8444 76.3383 65.874 76.4604 65.8918C77.4485 66.0358 78.3663 65.3515 78.5103 64.3634C78.6195 63.6145 78.2529 62.906 77.6388 62.5442C77.8825 62.033 78.1248 61.5289 78.3652 61.0335C78.4481 61.0581 78.5337 61.0771 78.6218 61.0899C79.6099 61.234 80.5277 60.5497 80.6717 59.5616C80.7717 58.8758 80.4726 58.2239 79.95 57.841C80.4145 56.9291 80.8666 56.0651 81.3021 55.2606C81.9382 55.5949 82.6409 55.8288 83.3925 55.9384C86.7417 56.4266 89.8664 54.2715 90.6532 51.0489C100.69 56.7584 109.151 62.1077 112.41 64.1999C113.24 64.7324 113.523 65.7922 113.091 66.6787L91.02 112.043C90.5092 113.093 89.209 113.474 88.2162 112.86C84.8754 110.792 77.353 106.204 68.5756 101.297C68.7496 100.848 68.8762 100.373 68.9485 99.8767C69.1328 98.6129 68.9406 97.381 68.4567 96.2947Z" fill="#16191C"/>
<path d="M83.3918 55.9375C86.7408 56.4256 89.8654 54.2708 90.6524 51.0485C100.573 56.6919 108.954 61.9834 112.294 64.1255C113.186 64.6977 113.497 65.8416 113.034 66.7947L111.023 70.9281" stroke="#1EBFBF" stroke-width="0.672646" stroke-linecap="round" stroke-linejoin="round"/>
<path d="M36.77 71.401L33.3164 70.0046L35.0463 66.5006C30.6471 63.9756 30.0453 59.7646 31.1147 56.8578L35.7982 57.5728C34.9828 59.7181 35.4672 62.1924 38.5822 63.4518C40.783 64.3416 42.5707 63.8466 43.2821 62.4057C43.8317 61.2923 43.4056 60.0986 41.8905 59.0539L39.0989 57.1396C35.8302 54.8752 34.661 51.7311 36.213 48.5873C37.9267 45.1161 41.964 43.6842 45.8617 44.5923L47.5915 41.0883L51.0451 42.4846L49.2668 46.0868C52.821 48.3488 53.2206 51.6531 52.6114 54.0389L47.881 53.5013C48.2437 52.273 48.301 50.0177 45.5247 48.8951C43.3577 48.019 41.5745 48.7516 40.9117 50.0942C40.4105 51.1094 40.7351 52.262 42.1648 53.2329L44.9064 55.1663C48.7198 57.8081 49.4373 61.0445 47.9823 63.9918C46.495 67.0046 42.8861 68.8847 38.516 67.8642L36.77 71.401Z" fill="#16191C"/>
<path fill-rule="evenodd" clip-rule="evenodd" d="M37.417 71.7203C37.2498 72.059 36.8497 72.2114 36.4995 72.0699L33.046 70.6736C32.86 70.5983 32.7136 70.449 32.6422 70.2615C32.5708 70.074 32.5806 69.8652 32.6695 69.6852L34.1078 66.7717C29.8935 64.0201 29.3107 59.6715 30.4376 56.6087C30.556 56.2868 30.8846 56.0928 31.2236 56.1445L35.9071 56.8596C36.1225 56.8925 36.3116 57.021 36.4214 57.2093C36.5312 57.3976 36.5501 57.6254 36.4726 57.8292C36.1123 58.7771 36.0599 59.7424 36.3882 60.5816C36.7112 61.407 37.4423 62.2127 38.8526 62.7829C39.8531 63.1874 40.6947 63.2503 41.3239 63.1008C41.9376 62.955 42.3798 62.6035 42.6351 62.0863C42.8235 61.7048 42.8384 61.3414 42.6906 60.972C42.5336 60.5791 42.1671 60.1212 41.4816 59.6484C41.4814 59.6482 41.4812 59.6481 41.4809 59.6479L38.688 57.7327C36.9624 56.5372 35.7357 55.0715 35.1665 53.4296C34.5923 51.7735 34.7102 50.0016 35.566 48.2679C37.3757 44.6021 41.4861 43.065 45.4612 43.7736L46.9446 40.7689C47.1117 40.4302 47.5118 40.2778 47.862 40.4193L51.3155 41.8157C51.5016 41.8909 51.6479 42.0402 51.7193 42.2277C51.7908 42.4152 51.7809 42.624 51.6921 42.804L50.1916 45.8433C53.5666 48.2926 53.9474 51.7229 53.3105 54.2174C53.2213 54.5666 52.8881 54.7965 52.5299 54.7558L47.7995 54.2182C47.5877 54.1941 47.3973 54.0776 47.2796 53.8998C47.1618 53.7221 47.1286 53.5014 47.189 53.2969C47.344 52.772 47.4213 52.0608 47.1958 51.3878C46.9816 50.7484 46.4655 50.0538 45.2542 49.5641C43.3482 48.7934 42.0148 49.4896 41.5587 50.4136C41.3893 50.7566 41.3671 51.0933 41.4914 51.4312C41.6216 51.7854 41.9386 52.2071 42.5701 52.636L42.5806 52.6432L45.3198 54.575C47.3183 55.9601 48.5739 57.5488 49.1083 59.248C49.6458 60.9571 49.4271 62.695 48.6293 64.3112C47.046 67.5183 43.3335 69.4913 38.9158 68.6842L37.417 71.7203ZM38.516 67.8642C42.8861 68.8847 46.495 67.0046 47.9823 63.9918C49.4373 61.0445 48.7198 57.8081 44.9064 55.1663L42.1648 53.2329C40.7351 52.262 40.4105 51.1094 40.9117 50.0942C41.5745 48.7516 43.3577 48.019 45.5247 48.8951C47.8262 49.8257 48.1804 51.5347 48.0276 52.7918C47.9961 53.0511 47.943 53.2912 47.881 53.5013L52.6114 54.0389C53.2206 51.6531 52.821 48.3488 49.2668 46.0868L51.0451 42.4846L47.5915 41.0883L45.8617 44.5923C41.964 43.6842 37.9267 45.1161 36.213 48.5873C34.661 51.7311 35.8302 54.8752 39.0989 57.1396L41.8905 59.0539C43.4056 60.0986 43.8317 61.2923 43.2821 62.4057C42.5707 63.8466 40.783 64.3416 38.5822 63.4518C35.8 62.327 35.1164 60.233 35.583 58.2699C35.6388 58.035 35.7111 57.802 35.7982 57.5728L31.1147 56.8578C30.0453 59.7646 30.6471 63.9756 35.0463 66.5006L33.3164 70.0046L36.77 71.401L38.516 67.8642Z" fill="#16191C"/>
<path d="M46.2562 85.9813C44.746 92.5568 46.7309 107.742 66.7527 115.877M39.0616 86.7151C38.2783 96.4186 42.4944 104.965 47.7142 110.55" stroke="black" stroke-width="0.672646" stroke-linecap="round"/>
<path d="M131.005 98.9857C123.014 118.056 105.73 131.723 85.5194 135.237C86.23 132.081 87.0455 129.231 87.6674 127.122L83.5012 121.097C82.6541 121.912 80.5095 122.929 78.7086 120.476C78.3354 119.968 77.9869 119.502 77.6642 119.071L77.6624 119.068C76.0398 116.9 75.0743 115.609 74.9436 114.222C74.7867 112.559 76.4941 107.532 78.688 106.705C79.0048 106.586 79.3895 106.447 79.8234 106.299C78.334 105.16 80.1869 99.8776 81.0415 97.9899C81.3244 97.3651 82.3172 96.5758 83.6433 95.7525C83.2027 95.1371 82.266 93.4264 82.0436 91.506C81.7656 89.1055 83.304 85.7077 85.1203 84.7103C86.169 84.1344 90.9889 81.9291 95.3772 80.2202C90.8635 79.7807 81.3566 77.0468 79.4385 69.6275C78.4909 65.1423 80.4556 62.6295 82.5828 62.1801C87.8596 63.449 90.638 64.6779 91.3676 65.1337C95.3881 66.3853 104.194 69.2578 107.256 70.7349C110.314 72.2102 118.016 82.0325 123.223 88.6733L123.223 88.674C124.533 90.344 125.685 91.8129 126.565 92.897C128.352 95.0975 129.884 97.1072 131.005 98.9857Z" fill="#F9F9F9"/>
<path d="M79.3352 115.072L83.5014 121.096M102.111 116.512C98.7352 117.941 91.376 105.056 88.8544 104.596C86.6969 104.203 82.3951 105.421 79.8236 106.298M111.666 106.963C110.192 107.205 104.589 98.9821 101.221 94.6141C97.8534 90.2461 96.0869 90.1287 92.659 91.42C90.3657 92.2839 86.3238 94.0869 83.6434 95.751M120.329 97.1236C117.786 93.6976 112.243 86.2974 110.415 84.105C108.13 81.3646 105.278 78.3678 102.671 78.0973C101.57 77.983 98.589 78.9679 95.3773 80.2187M91.3677 65.1322C91.5305 66.9498 90.8902 71.5125 87.4327 71.3118C85.3521 71.1911 83.614 70.896 82.1184 70.5051" stroke="#16191C" stroke-width="0.672646" stroke-linecap="round"/>
</g>
</svg>
