<svg width="185" height="173" viewBox="0 0 185 173" fill="none" xmlns="http://www.w3.org/2000/svg">
<path d="M150.337 61.9207C150.536 62.0026 150.764 61.9077 150.846 61.7087L152.18 58.4661C152.262 58.2672 152.167 58.0395 151.968 57.9576C151.769 57.8757 151.542 57.9706 151.46 58.1696L150.274 61.0519L147.391 59.8656C147.192 59.7837 146.965 59.8786 146.883 60.0776C146.801 60.2766 146.896 60.5043 147.095 60.5862L150.337 61.9207ZM142.419 47.0684C142.206 47.0393 142.01 47.1885 141.98 47.4017L141.506 50.8759C141.476 51.0891 141.626 51.2856 141.839 51.3147C142.052 51.3438 142.248 51.1946 142.278 50.9814L142.7 47.8933L145.788 48.3153C146.001 48.3445 146.198 48.1953 146.227 47.9821C146.256 47.7689 146.107 47.5724 145.893 47.5433L142.419 47.0684ZM150.845 61.4105C148.737 56.3525 145.992 51.5835 142.677 47.2188L142.056 47.6901C145.331 52.0021 148.043 56.7135 150.126 61.7104L150.845 61.4105Z" fill="#16191C"/>
<path d="M141.955 126.918C141.983 127.132 142.179 127.281 142.393 127.253L145.869 126.79C146.083 126.762 146.233 126.566 146.204 126.352C146.176 126.139 145.98 125.989 145.766 126.018L142.676 126.429L142.263 123.341C142.234 123.128 142.038 122.978 141.825 123.006C141.611 123.035 141.462 123.231 141.49 123.444L141.955 126.918ZM150.869 112.642C150.788 112.443 150.561 112.347 150.361 112.428L147.113 113.751C146.914 113.832 146.819 114.059 146.9 114.258C146.981 114.458 147.209 114.553 147.408 114.472L150.295 113.296L151.473 116.182C151.554 116.381 151.781 116.477 151.981 116.396C152.18 116.315 152.276 116.087 152.194 115.888L150.869 112.642ZM142.651 127.104C145.981 122.75 148.742 117.991 150.868 112.94L150.149 112.638C148.049 117.627 145.321 122.33 142.031 126.63L142.651 127.104Z" fill="#16191C"/>
<path d="M33.5802 112.401C33.3812 112.319 33.1535 112.414 33.0716 112.613L31.737 115.855C31.6551 116.054 31.7501 116.282 31.949 116.364C32.148 116.446 32.3757 116.351 32.4576 116.152L33.6439 113.269L36.5262 114.456C36.7252 114.538 36.9529 114.443 37.0348 114.244C37.1167 114.045 37.0218 113.817 36.8228 113.735L33.5802 112.401ZM41.4983 127.253C41.7115 127.282 41.9079 127.133 41.937 126.92L42.4119 123.445C42.441 123.232 42.2918 123.036 42.0786 123.007C41.8654 122.977 41.669 123.127 41.6398 123.34L41.2178 126.428L38.1296 126.006C37.9164 125.977 37.7199 126.126 37.6908 126.339C37.6617 126.552 37.8109 126.749 38.0241 126.778L41.4983 127.253ZM33.0723 112.911C35.1808 117.969 37.9257 122.738 41.2408 127.102L41.8613 126.631C38.5863 122.319 35.8745 117.608 33.7915 112.611L33.0723 112.911Z" fill="#16191C"/>
<path d="M41.961 47.4034C41.9325 47.1902 41.7364 47.0404 41.5231 47.0688L38.0463 47.5318C37.833 47.5603 37.6831 47.7561 37.7117 47.9694C37.7402 48.1826 37.9362 48.3324 38.1496 48.304L41.24 47.8924L41.6531 50.9809C41.6816 51.1942 41.8777 51.344 42.0911 51.3156C42.3044 51.2871 42.4542 51.0913 42.4257 50.878L41.961 47.4034ZM33.0464 61.6799C33.1277 61.8791 33.3551 61.9748 33.5544 61.8936L36.8023 60.5709C37.0016 60.4898 37.0973 60.2625 37.016 60.0633C36.9347 59.8641 36.7072 59.7684 36.5079 59.8496L33.6209 61.0253L32.4432 58.1398C32.3619 57.9406 32.1345 57.8449 31.9352 57.9261C31.7359 58.0072 31.6402 58.2345 31.7215 58.4337L33.0464 61.6799ZM41.2651 47.2183C37.935 51.5716 35.1738 56.3311 33.048 61.3818L33.7665 61.6841C35.8666 56.6943 38.5946 51.9923 41.8844 47.6915L41.2651 47.2183Z" fill="#16191C"/>
<path d="M100.8 18.5447C100.97 18.4134 101.002 18.1688 100.871 17.9984L98.7312 15.2217C98.5999 15.0513 98.3552 15.0196 98.1846 15.1509C98.0141 15.2822 97.9822 15.5267 98.1135 15.6971L100.016 18.1653L97.5449 20.067C97.3744 20.1983 97.3425 20.4429 97.4739 20.6133C97.6052 20.7837 97.8499 20.8154 98.0204 20.6841L100.8 18.5447ZM83.9677 17.9695C83.8357 18.1394 83.8665 18.3841 84.0365 18.516L86.8069 20.6648C86.9769 20.7967 87.2218 20.7658 87.3538 20.5959C87.4858 20.4259 87.455 20.1813 87.285 20.0494L84.8224 18.1393L86.7347 15.6776C86.8667 15.5076 86.8359 15.263 86.6659 15.1311C86.4959 14.9992 86.2511 15.0301 86.1191 15.2001L83.9677 17.9695ZM100.612 17.8499C95.1739 17.1453 89.6677 17.1358 84.2269 17.8218L84.3242 18.5947C89.6993 17.9169 95.139 17.9263 100.512 18.6224L100.612 17.8499Z" fill="#16191C"/>
<path d="M84.0336 156.12C83.8631 156.252 83.8312 156.496 83.9625 156.667L86.1023 159.443C86.2336 159.614 86.4783 159.645 86.6489 159.514C86.8194 159.383 86.8513 159.138 86.7199 158.968L84.8179 156.5L87.2886 154.598C87.4591 154.467 87.4909 154.222 87.3596 154.052C87.2283 153.881 86.9836 153.85 86.8131 153.981L84.0336 156.12ZM100.866 156.696C100.998 156.526 100.967 156.281 100.797 156.149L98.0266 154C97.8566 153.868 97.6117 153.899 97.4797 154.069C97.3477 154.239 97.3785 154.484 97.5485 154.616L100.011 156.526L98.0988 158.987C97.9668 159.157 97.9976 159.402 98.1676 159.534C98.3376 159.666 98.5824 159.635 98.7144 159.465L100.866 156.696ZM84.2211 156.815C89.6596 157.52 95.1658 157.529 100.607 156.843L100.509 156.07C95.1342 156.748 89.6945 156.739 84.3216 156.043L84.2211 156.815Z" fill="#16191C"/>
<path d="M51.4675 92.0623C51.2902 92.1842 51.2452 92.4268 51.3671 92.6041L53.3534 95.4933C53.4753 95.6706 53.7179 95.7155 53.8952 95.5936C54.0725 95.4717 54.1175 95.2291 53.9956 95.0518L52.23 92.4836L54.7987 90.7176C54.976 90.5956 55.021 90.3531 54.8991 90.1758C54.7772 89.9985 54.5346 89.9536 54.3573 90.0755L51.4675 92.0623ZM107.931 124.191C108.143 124.232 108.347 124.093 108.387 123.882L109.049 120.438C109.089 120.227 108.951 120.023 108.739 119.982C108.528 119.942 108.324 120.08 108.283 120.291L107.696 123.352L104.634 122.765C104.423 122.725 104.219 122.863 104.178 123.075C104.138 123.286 104.276 123.49 104.488 123.531L107.931 124.191ZM51.6172 92.7664C58.2588 93.9956 69.0486 97.0388 79.7984 102.169C90.5536 107.302 101.225 114.503 107.682 124.027L108.327 123.59C101.759 113.901 90.9445 106.625 80.1341 101.466C69.3182 96.3039 58.4625 93.2408 51.7592 92.0002L51.6172 92.7664Z" fill="#16191C"/>
<path d="M105.76 47.3496C105.699 47.1436 105.481 47.0267 105.275 47.0886L101.915 48.0963C101.709 48.1582 101.592 48.3753 101.654 48.5813C101.715 48.7873 101.933 48.9042 102.139 48.8424L105.126 47.9466L106.021 50.9307C106.083 51.1367 106.3 51.2536 106.507 51.1917C106.713 51.1299 106.83 50.9128 106.768 50.7067L105.76 47.3496ZM50.4458 79.0222C50.3088 79.1882 50.3324 79.4336 50.4984 79.5705L53.2046 81.8C53.3707 81.9368 53.6163 81.9132 53.7533 81.7472C53.8903 81.5812 53.8667 81.3358 53.7006 81.199L51.2951 79.2172L53.2792 76.813C53.4162 76.6471 53.3926 76.4016 53.2265 76.2648C53.0604 76.128 52.8148 76.1516 52.6778 76.3176L50.4458 79.0222ZM105.044 47.277C101.561 53.7384 93.746 61.09 83.8869 67.1096C74.0357 73.1244 62.1961 77.7772 50.7092 78.8823L50.7837 79.6576C62.4159 78.5385 74.3681 73.8341 84.2932 67.7742C94.2104 61.7192 102.156 54.2787 105.73 47.6462L105.044 47.277Z" fill="#16191C"/>
<path d="M78.2734 47.3501C78.3351 47.142 78.5508 47.0233 78.755 47.0849L82.083 48.0885C82.2872 48.1501 82.4027 48.3687 82.341 48.5768C82.2793 48.7848 82.0637 48.9036 81.8594 48.842L78.9012 47.9499L78.0069 50.9637C77.9452 51.1717 77.7296 51.2905 77.5253 51.2289C77.3211 51.1673 77.2056 50.9487 77.2673 50.7406L78.2734 47.3501ZM132.515 79.0201C132.65 79.1875 132.625 79.4351 132.459 79.5731L129.764 81.8219C129.598 81.9599 129.355 81.936 129.22 81.7686C129.085 81.6011 129.11 81.3535 129.276 81.2155L131.672 79.2166L129.72 76.791C129.585 76.6236 129.61 76.376 129.776 76.238C129.941 76.1 130.185 76.1239 130.319 76.2913L132.515 79.0201ZM78.9837 47.2741C82.398 53.7355 90.0607 61.087 99.7269 67.1065C109.385 73.1213 120.993 77.7738 132.255 78.8789L132.176 79.661C120.771 78.5419 109.052 73.8372 99.3207 67.7773C89.5973 61.7222 81.8074 54.2816 78.3027 47.6491L78.9837 47.2741Z" fill="#16191C"/>
<path d="M131.66 92.0614C131.838 92.1827 131.882 92.4253 131.76 92.6031L129.772 95.5009C129.65 95.6787 129.407 95.7245 129.23 95.6032C129.053 95.4818 129.009 95.2392 129.131 95.0614L130.898 92.4856L128.333 90.7276C128.156 90.6062 128.111 90.3637 128.233 90.1858C128.355 90.008 128.597 89.9622 128.775 90.0836L131.66 92.0614ZM76.3005 124.19C76.0896 124.233 75.8845 124.097 75.8424 123.886L75.1568 120.449C75.1147 120.238 75.2516 120.032 75.4625 119.989C75.6734 119.946 75.8785 120.082 75.9206 120.293L76.53 123.349L79.585 122.725C79.7959 122.682 80.001 122.818 80.0431 123.029C80.0851 123.24 79.9483 123.446 79.7374 123.489L76.3005 124.19ZM131.51 92.7664C125 93.9953 114.422 97.0381 103.884 102.168C93.3399 107.3 82.8782 114.5 76.5482 124.023L75.9004 123.593C82.3412 113.904 92.9451 106.627 103.545 101.467C114.151 96.3046 124.796 93.2411 131.369 92.0003L131.51 92.7664Z" fill="#16191C"/>
<path d="M68.4567 53.6645C68.2529 53.5956 68.0318 53.705 67.9628 53.9088L66.8397 57.2307C66.7708 57.4345 66.8802 57.6556 67.084 57.7245C67.2878 57.7934 67.509 57.684 67.5779 57.4802L68.5762 54.5274L71.5289 55.5254C71.7328 55.5943 71.9539 55.4849 72.0228 55.281C72.0917 55.0772 71.9824 54.8561 71.7785 54.7872L68.4567 53.6645ZM58.0188 118.089C58.0289 118.304 58.2113 118.47 58.4263 118.459L61.9289 118.294C62.1439 118.284 62.3099 118.102 62.2998 117.887C62.2897 117.672 62.1073 117.506 61.8923 117.516L58.7788 117.663L58.6324 114.549C58.6223 114.334 58.4399 114.168 58.2249 114.179C58.01 114.189 57.8439 114.371 57.854 114.586L58.0188 118.089ZM67.9827 54.2063C73.6898 65.7432 75.4778 76.9588 73.721 87.6218C71.9638 98.2869 66.6552 108.429 58.1198 117.808L58.6961 118.333C67.3117 108.866 72.7036 98.59 74.4899 87.7484C76.2765 76.9046 74.451 65.5246 68.6812 53.8608L67.9827 54.2063Z" fill="#16191C"/>
<path d="M115.656 53.6645C115.86 53.5956 116.081 53.705 116.15 53.9088L117.273 57.2307C117.342 57.4345 117.233 57.6556 117.029 57.7245C116.825 57.7934 116.604 57.684 116.535 57.4802L115.536 54.5274L112.584 55.5254C112.38 55.5943 112.159 55.4849 112.09 55.281C112.021 55.0772 112.13 54.8561 112.334 54.7872L115.656 53.6645ZM126.094 118.089C126.084 118.304 125.901 118.47 125.686 118.459L122.184 118.294C121.969 118.284 121.803 118.102 121.813 117.887C121.823 117.672 122.005 117.506 122.22 117.516L125.334 117.663L125.48 114.549C125.49 114.334 125.673 114.168 125.888 114.179C126.103 114.189 126.269 114.371 126.259 114.586L126.094 118.089ZM116.13 54.2063C110.423 65.7432 108.635 76.9588 110.392 87.6218C112.149 98.2869 117.457 108.429 125.993 117.808L125.417 118.333C116.801 108.866 111.409 98.59 109.623 87.7484C107.836 76.9046 109.662 65.5246 115.432 53.8608L116.13 54.2063Z" fill="#16191C"/>
<circle cx="58.6472" cy="26.2102" r="25.2668" fill="#16191C"/>
<rect x="44.0432" y="13.4609" width="29.2075" height="6.95418" rx="0.970332" fill="white"/>
<rect x="46.0312" y="16.3522" width="10.5508" height="1.17148" rx="0.585741" fill="#16191C"/>
<ellipse cx="58.9019" cy="16.9376" rx="0.709502" ry="0.692201" fill="#16191C"/>
<ellipse cx="61.4406" cy="16.9376" rx="0.709502" ry="0.692201" fill="#16191C"/>
<ellipse cx="70.7498" cy="16.9376" rx="0.709502" ry="0.692201" fill="#16191C"/>
<rect x="44.0432" y="22.7332" width="29.2075" height="6.95418" rx="0.970332" fill="white"/>
<rect x="46.0312" y="25.6244" width="10.5508" height="1.17148" rx="0.585741" fill="#16191C"/>
<ellipse cx="58.9019" cy="26.2098" rx="0.709502" ry="0.692201" fill="#16191C"/>
<ellipse cx="61.4406" cy="26.2098" rx="0.709502" ry="0.692201" fill="#16191C"/>
<ellipse cx="70.7498" cy="26.2098" rx="0.709502" ry="0.692201" fill="#16191C"/>
<rect x="44.0432" y="32.0054" width="29.2075" height="6.95418" rx="0.970332" fill="white"/>
<rect x="46.0312" y="34.8966" width="10.5508" height="1.17148" rx="0.585741" fill="#16191C"/>
<ellipse cx="58.9019" cy="35.482" rx="0.709502" ry="0.692201" fill="#16191C"/>
<ellipse cx="61.4406" cy="35.482" rx="0.709502" ry="0.692201" fill="#16191C"/>
<ellipse cx="70.7498" cy="35.482" rx="0.709502" ry="0.692201" fill="#16191C"/>
<circle cx="125.87" cy="26.2102" r="25.2668" fill="#16191C"/>
<rect x="111.266" y="13.4609" width="29.2075" height="6.95418" rx="0.970332" fill="white"/>
<rect x="113.254" y="16.3522" width="10.5508" height="1.17148" rx="0.585741" fill="#16191C"/>
<ellipse cx="126.125" cy="16.9376" rx="0.709502" ry="0.692201" fill="#16191C"/>
<ellipse cx="128.663" cy="16.9376" rx="0.709502" ry="0.692201" fill="#16191C"/>
<ellipse cx="137.973" cy="16.9376" rx="0.709502" ry="0.692201" fill="#16191C"/>
<rect x="111.266" y="22.7332" width="29.2075" height="6.95418" rx="0.970332" fill="white"/>
<rect x="113.254" y="25.6244" width="10.5508" height="1.17148" rx="0.585741" fill="#16191C"/>
<ellipse cx="126.125" cy="26.2098" rx="0.709502" ry="0.692201" fill="#16191C"/>
<ellipse cx="128.663" cy="26.2098" rx="0.709502" ry="0.692201" fill="#16191C"/>
<ellipse cx="137.973" cy="26.2098" rx="0.709502" ry="0.692201" fill="#16191C"/>
<rect x="111.266" y="32.0054" width="29.2075" height="6.95418" rx="0.970332" fill="white"/>
<rect x="113.254" y="34.8966" width="10.5508" height="1.17148" rx="0.585741" fill="#16191C"/>
<ellipse cx="126.125" cy="35.482" rx="0.709502" ry="0.692201" fill="#16191C"/>
<ellipse cx="128.663" cy="35.482" rx="0.709502" ry="0.692201" fill="#16191C"/>
<ellipse cx="137.973" cy="35.482" rx="0.709502" ry="0.692201" fill="#16191C"/>
<circle cx="158.787" cy="87.407" r="25.2668" fill="#16191C"/>
<rect x="144.183" y="74.6577" width="29.2075" height="6.95418" rx="0.970332" fill="white"/>
<rect x="146.17" y="77.549" width="10.5508" height="1.17148" rx="0.585741" fill="#16191C"/>
<ellipse cx="159.042" cy="78.1343" rx="0.709502" ry="0.692201" fill="#16191C"/>
<ellipse cx="161.58" cy="78.1343" rx="0.709502" ry="0.692201" fill="#16191C"/>
<ellipse cx="170.89" cy="78.1343" rx="0.709502" ry="0.692201" fill="#16191C"/>
<rect x="144.183" y="83.9299" width="29.2075" height="6.95418" rx="0.970332" fill="white"/>
<rect x="146.17" y="86.8212" width="10.5508" height="1.17148" rx="0.585741" fill="#16191C"/>
<ellipse cx="159.042" cy="87.4066" rx="0.709502" ry="0.692201" fill="#16191C"/>
<ellipse cx="161.58" cy="87.4066" rx="0.709502" ry="0.692201" fill="#16191C"/>
<ellipse cx="170.89" cy="87.4066" rx="0.709502" ry="0.692201" fill="#16191C"/>
<rect x="144.183" y="93.2021" width="29.2075" height="6.95418" rx="0.970332" fill="white"/>
<rect x="146.17" y="96.0934" width="10.5508" height="1.17148" rx="0.585741" fill="#16191C"/>
<ellipse cx="159.042" cy="96.6788" rx="0.709502" ry="0.692201" fill="#16191C"/>
<ellipse cx="161.58" cy="96.6788" rx="0.709502" ry="0.692201" fill="#16191C"/>
<ellipse cx="170.89" cy="96.6788" rx="0.709502" ry="0.692201" fill="#16191C"/>
<circle cx="125.87" cy="147.677" r="25.2668" fill="#16191C"/>
<rect x="111.266" y="134.927" width="29.2075" height="6.95418" rx="0.970332" fill="white"/>
<rect x="113.254" y="137.818" width="10.5508" height="1.17148" rx="0.585741" fill="#16191C"/>
<ellipse cx="126.125" cy="138.404" rx="0.709502" ry="0.692201" fill="#16191C"/>
<ellipse cx="128.663" cy="138.404" rx="0.709502" ry="0.692201" fill="#16191C"/>
<ellipse cx="137.973" cy="138.404" rx="0.709502" ry="0.692201" fill="#16191C"/>
<rect x="111.266" y="144.199" width="29.2075" height="6.95418" rx="0.970332" fill="white"/>
<rect x="113.254" y="147.091" width="10.5508" height="1.17148" rx="0.585741" fill="#16191C"/>
<ellipse cx="126.125" cy="147.676" rx="0.709502" ry="0.692201" fill="#16191C"/>
<ellipse cx="128.663" cy="147.676" rx="0.709502" ry="0.692201" fill="#16191C"/>
<ellipse cx="137.973" cy="147.676" rx="0.709502" ry="0.692201" fill="#16191C"/>
<rect x="111.266" y="153.472" width="29.2075" height="6.95418" rx="0.970332" fill="white"/>
<rect x="113.254" y="156.363" width="10.5508" height="1.17148" rx="0.585741" fill="#16191C"/>
<ellipse cx="126.125" cy="156.948" rx="0.709502" ry="0.692201" fill="#16191C"/>
<ellipse cx="128.663" cy="156.948" rx="0.709502" ry="0.692201" fill="#16191C"/>
<ellipse cx="137.973" cy="156.948" rx="0.709502" ry="0.692201" fill="#16191C"/>
<circle cx="59.1108" cy="147.677" r="25.2668" fill="#16191C"/>
<rect x="44.5073" y="134.927" width="29.2075" height="6.95418" rx="0.970332" fill="white"/>
<rect x="46.4949" y="137.818" width="10.5508" height="1.17148" rx="0.585741" fill="#16191C"/>
<ellipse cx="59.366" cy="138.404" rx="0.709502" ry="0.692201" fill="#16191C"/>
<ellipse cx="61.9043" cy="138.404" rx="0.709502" ry="0.692201" fill="#16191C"/>
<ellipse cx="71.2134" cy="138.404" rx="0.709502" ry="0.692201" fill="#16191C"/>
<rect x="44.5073" y="144.199" width="29.2075" height="6.95418" rx="0.970332" fill="white"/>
<rect x="46.4949" y="147.091" width="10.5508" height="1.17148" rx="0.585741" fill="#16191C"/>
<ellipse cx="59.366" cy="147.676" rx="0.709502" ry="0.692201" fill="#16191C"/>
<ellipse cx="61.9043" cy="147.676" rx="0.709502" ry="0.692201" fill="#16191C"/>
<ellipse cx="71.2134" cy="147.676" rx="0.709502" ry="0.692201" fill="#16191C"/>
<rect x="44.5073" y="153.472" width="29.2075" height="6.95418" rx="0.970332" fill="white"/>
<rect x="46.4949" y="156.363" width="10.5508" height="1.17148" rx="0.585741" fill="#16191C"/>
<ellipse cx="59.366" cy="156.948" rx="0.709502" ry="0.692201" fill="#16191C"/>
<ellipse cx="61.9043" cy="156.948" rx="0.709502" ry="0.692201" fill="#16191C"/>
<ellipse cx="71.2134" cy="156.948" rx="0.709502" ry="0.692201" fill="#16191C"/>
<circle cx="25.2668" cy="87.407" r="25.2668" fill="#16191C"/>
<rect x="10.6635" y="74.6577" width="29.2075" height="6.95418" rx="0.970332" fill="white"/>
<rect x="12.6512" y="77.549" width="10.5508" height="1.17148" rx="0.585741" fill="#16191C"/>
<ellipse cx="25.5222" cy="78.1343" rx="0.709502" ry="0.692201" fill="#16191C"/>
<ellipse cx="28.0611" cy="78.1343" rx="0.709502" ry="0.692201" fill="#16191C"/>
<ellipse cx="37.3701" cy="78.1343" rx="0.709502" ry="0.692201" fill="#16191C"/>
<rect x="10.6635" y="83.9299" width="29.2075" height="6.95418" rx="0.970332" fill="white"/>
<rect x="12.6512" y="86.8212" width="10.5508" height="1.17148" rx="0.585741" fill="#16191C"/>
<ellipse cx="25.5222" cy="87.4066" rx="0.709502" ry="0.692201" fill="#16191C"/>
<ellipse cx="28.0611" cy="87.4066" rx="0.709502" ry="0.692201" fill="#16191C"/>
<ellipse cx="37.3701" cy="87.4066" rx="0.709502" ry="0.692201" fill="#16191C"/>
<rect x="10.6635" y="93.2021" width="29.2075" height="6.95418" rx="0.970332" fill="white"/>
<rect x="12.6512" y="96.0934" width="10.5508" height="1.17148" rx="0.585741" fill="#16191C"/>
<ellipse cx="25.5222" cy="96.6786" rx="0.709502" ry="0.692201" fill="#16191C"/>
<ellipse cx="28.0611" cy="96.6786" rx="0.709502" ry="0.692201" fill="#16191C"/>
<ellipse cx="37.3701" cy="96.6786" rx="0.709502" ry="0.692201" fill="#16191C"/>
</svg>
