<svg width="144" height="144" viewBox="0 0 144 144" fill="none" xmlns="http://www.w3.org/2000/svg">
<g clip-path="url(#clip0_3219_37991)">
<circle cx="56.5" cy="56.5" r="56.5" transform="matrix(-1 0 0 1 128 16)" fill="#1EBFBF"/>
<mask id="mask0_3219_37991" style="mask-type:alpha" maskUnits="userSpaceOnUse" x="15" y="16" width="113" height="113">
<path fill-rule="evenodd" clip-rule="evenodd" d="M71.5 129C40.2959 129 15 103.704 15 72.5C15 66.1273 16.055 60.0011 18 54.2864V16H71.5H127V61.8618C127.656 65.3072 128 68.8635 128 72.5C128 103.704 102.704 129 71.5 129Z" fill="#1EBFBF"/>
</mask>
<g mask="url(#mask0_3219_37991)">
<path d="M105.855 69.0356L114.365 55.3955L22.6384 28.6159L62.8078 57.3977L105.855 69.0356Z" fill="#16191C"/>
<path d="M89.8373 52.2665C90.463 55.0196 91.7144 64.1547 93.3412 67.7837L80.0765 69.7859L79.0754 57.0579C77.9496 57.3833 76.6973 57.7889 75.4464 58.2732C72.343 59.4745 65.6439 55.6035 62.6823 53.5179C68.1467 51.3488 79.8263 46.8605 82.8296 46.2599C86.5837 45.5091 89.2116 49.5135 89.8373 52.2665Z" fill="#F9F9F9"/>
<path d="M78.5745 58.6487L92.4648 61.4017V60.9012V53.518L68.3132 49.2633L63.4328 51.8912L78.5745 58.6487Z" fill="#16191C"/>
<path d="M70.1905 52.767C72.3179 53.1424 84.8317 66.7825 88.4607 68.7847L75.6966 76.4181L62.0565 61.2764C58.7195 60.609 51.0193 59.0239 46.9148 58.0228C41.7841 56.7714 42.1595 52.767 42.7852 50.7648C43.4109 48.7626 68.0632 52.3916 70.1905 52.767Z" fill="#F9F9F9"/>
<path d="M49.7931 51.0147C49.7931 51.5987 49.5929 52.8167 48.792 53.0169C47.9911 53.2171 45.2881 52.6832 44.0367 52.3912" stroke="#16191C" stroke-width="0.500553" stroke-linecap="round"/>
<path d="M107.231 52.8921L110.235 38.2509L22.5128 28.4901L107.231 52.8921Z" fill="#16191C"/>
<path d="M125.349 28.4995L111.14 39.6259L22.5053 28.4995L75.8907 21.3576L125.349 28.4995Z" fill="#F9F9F9"/>
<path d="M114.862 36.581L125.349 28.4618L102.006 25.0788" stroke="#16191C" stroke-width="0.676602" stroke-linecap="round" stroke-linejoin="round"/>
<path d="M59.6791 62.6535C58.4277 64.6557 58.1774 66.9082 57.0512 70.2869L61.5562 76.669L74.8208 78.4209L83.08 72.2892C77.4487 71.4132 70.1907 64.1552 67.6879 62.2781C65.1852 60.401 60.6651 61.076 59.6791 62.6535Z" fill="#F9F9F9"/>
<path d="M56.0497 68.1592C58.8027 68.2844 68.1881 75.5424 74.8204 78.4206C70.2737 82.133 62.9573 87.6558 60.0541 91.5601C56.4251 96.4405 53.4218 93.5623 51.4196 91.5601C49.4174 89.5579 49.6676 76.6686 49.9179 73.2899C50.1682 69.9112 53.2966 68.0341 56.0497 68.1592Z" fill="#F9F9F9"/>
<path d="M51.6701 105.701C48.5667 119.716 56.7174 130.061 61.1806 133.482C81.1026 140.089 94.2588 129.143 98.3467 122.845L82.8087 105.701C85.8365 97.6101 92.5477 84.3858 94.092 79.547C95.9691 73.6655 95.3434 71.7884 92.2149 65.6566C89.0864 59.5249 72.6933 76.6688 68.6889 79.547C65.4854 81.8495 60.0961 84.4274 57.8019 85.4285C57.0511 86.3462 54.7735 91.6854 51.6701 105.701Z" fill="#F9F9F9"/>
<path d="M57.8008 85.429C57.3143 86.0236 56.1869 88.4743 54.6093 93.9384M81.4519 110.081C81.6738 108.95 82.1552 107.445 82.8076 105.701" stroke="#16191C" stroke-width="0.500553" stroke-linecap="round"/>
<path fill-rule="evenodd" clip-rule="evenodd" d="M61.1806 133.481C56.7173 130.061 48.5666 119.716 51.6701 105.701C51.6976 105.576 51.7251 105.453 51.7525 105.33C56.4869 104.888 61.1981 108.918 66.3792 113.351C70.554 116.923 75.0337 120.756 80.0763 122.72C83.9613 124.233 89.7915 125.909 97.7451 123.714C93.0706 130.086 80.2132 139.794 61.1806 133.481Z" fill="#16191C"/>
<path d="M62.1818 84.1772C60.3881 85.3452 56.5756 86.7301 55.6746 82.9259" stroke="#16191C" stroke-width="0.500553" stroke-linecap="round"/>
<path d="M74.8204 78.4208C69.2299 75.9947 61.6834 70.4567 57.8016 68.7018" stroke="#16191C" stroke-width="0.500553" stroke-linecap="round"/>
<path d="M83.08 72.2892C77.4487 71.4132 70.1907 64.1552 67.6879 62.2781C66.1802 61.1472 63.9402 60.9426 62.1819 61.3036" stroke="#16191C" stroke-width="0.500553" stroke-linecap="round"/>
<path d="M88.4607 68.7849C84.8317 66.7826 72.3179 53.1426 70.1905 52.7672C69.6393 52.6699 67.5757 52.1039 64.8096 51.7243" stroke="#16191C" stroke-width="0.500553"/>
<path d="M127.253 64.4053L112.862 45.8848L22.5124 28.7409L80.2012 56.6467L127.253 64.4053Z" fill="white"/>
</g>
</g>
<defs>
<clipPath id="clip0_3219_37991">
<rect width="144" height="144" fill="white"/>
</clipPath>
</defs>
</svg>
