<svg width="136" height="36" viewBox="0 0 136 36" fill="none" xmlns="http://www.w3.org/2000/svg">
<path d="M52.3091 24.506H48.767L46.2368 18.5783L43.779 24.506H40.2368L36.3332 12.2169H40.526L42.4055 18.5783L44.7188 12.2169H47.8995L50.2127 18.5783L52.0923 12.2169H56.285L52.3091 24.506ZM18.9838 32.241C11.1766 32.241 4.81514 25.8795 4.81514 18.0723C4.81514 10.2651 11.1766 3.90363 18.9838 3.90363C26.791 3.90363 33.1525 10.2651 33.1525 18.0723C33.1525 25.8795 26.791 32.241 18.9838 32.241ZM45.7308 0C40.3814 0 35.6103 2.31324 32.285 5.99999C28.9597 2.31324 24.1886 0 18.8392 0C8.86333 0 0.839233 8.09641 0.839233 18C0.839233 27.9036 8.93562 36 18.8392 36C24.1886 36 28.9597 33.6868 32.285 30C35.6103 33.6868 40.3814 36 45.7308 36C55.7067 36 63.7308 27.9036 63.7308 18C63.7308 8.09641 55.7067 0 45.7308 0ZM19.4898 21.1084H15.5862V15.253H19.4898C22.3091 15.253 23.3212 16.4096 23.3212 18.1446C23.2489 19.9518 22.3091 21.1084 19.4898 21.1084ZM19.9959 11.2048H11.1766V25.1566H19.9959C23.8995 25.1566 27.9477 23.2048 27.9477 18.1446C27.9477 13.0843 23.8995 11.2048 19.9959 11.2048ZM95.1043 9.03615H97.2007V16.6988H95.4658L95.3212 16.1205C94.6706 16.4819 93.9477 16.8434 93.2248 16.8434C91.3453 16.8434 90.4055 15.9036 90.4055 13.6627V9.10842H92.4296V13.3012C92.4296 14.6024 92.9357 14.9639 93.8754 14.9639C94.1646 14.9639 94.6706 14.8193 95.1043 14.6024V9.03615ZM78.5501 11.5663C78.5501 13.3735 77.6103 14.5301 75.5139 14.5301H73.9959V8.53011H75.5862C77.6826 8.6024 78.5501 9.54217 78.5501 11.5663ZM80.8633 11.5663C80.8633 7.80723 78.767 6.43375 75.8031 6.43375H71.7549V16.6988H75.6585C78.4778 16.6988 80.8633 15.1807 80.8633 11.5663ZM117.803 11.1326C117.297 10.7711 116.791 10.6265 116.213 10.6265C115.128 10.6265 114.55 11.6385 114.55 12.7229C114.55 13.8072 115.056 14.9639 116.357 14.9639C116.863 14.9639 117.297 14.8916 117.948 14.3856L119.032 15.6868C118.237 16.4097 117.369 16.8434 116.357 16.8434C113.755 16.8434 112.526 14.747 112.598 12.7229C112.671 10.7711 113.9 8.81929 116.213 8.81929C117.297 8.81929 118.237 9.18071 118.887 9.83131L117.803 11.1326ZM122.14 16.6265H120.116V6.07231H122.14V9.18073C122.646 8.96387 123.442 8.74697 124.02 8.74697C125.899 8.74697 126.984 9.68675 126.984 11.9277V16.6265H124.887V12.2892C124.887 10.988 124.381 10.6265 123.369 10.6265C123.08 10.6265 122.502 10.7711 122.14 10.988V16.6265ZM85.6344 8.74697C83.6103 8.74697 82.2368 10.4096 82.2368 12.7952C82.2368 15.253 83.5381 16.7711 85.9236 16.7711C87.0079 16.7711 88.0923 16.3374 88.6706 15.5422L87.6585 14.5301C87.6585 14.5301 87.0079 15.0361 86.0682 15.0361C84.9838 15.1084 84.3332 14.4578 84.1887 13.3735H88.7429C89.2489 10.2651 87.8754 8.74697 85.6344 8.74697ZM87.0802 12H84.2609C84.3332 11.1325 84.8392 10.4097 85.6344 10.4097C87.0079 10.4097 87.0802 11.6385 87.0802 12ZM103.418 14.6747C103.418 14.6747 102.984 14.8916 102.622 14.8916C102.116 14.8916 101.899 14.747 101.899 14.0241V10.6265H103.779V9.03615H101.899V7.22892H100.237L99.9477 9.03615H98.5742V10.6265H99.8754V14.4578C99.8754 15.8313 100.526 16.7711 102.044 16.7711C102.839 16.7711 103.418 16.4819 103.996 16.0482L103.418 14.6747ZM131.827 8.74697C129.803 8.74697 128.43 10.4096 128.43 12.7952C128.43 15.253 129.731 16.7711 132.116 16.7711C133.201 16.7711 134.285 16.3374 134.863 15.5422L133.851 14.5301C133.851 14.5301 133.201 15.0361 132.261 15.0361C131.177 15.1084 130.526 14.4578 130.381 13.3735H134.936C135.442 10.2651 133.996 8.74697 131.827 8.74697ZM133.201 12H130.381C130.454 11.1325 130.96 10.4097 131.755 10.4097C133.201 10.4097 133.201 11.6385 133.201 12ZM110.574 11.0602L111.225 9.46986C111.225 9.46986 109.851 8.67468 108.406 8.74697C106.526 8.74697 105.369 9.54215 105.369 10.9156C105.369 11.7831 105.731 12.506 106.743 13.0843C107.466 13.4458 108.189 13.7349 108.912 13.9518C109.273 14.0964 109.49 14.3133 109.418 14.6024C109.345 14.8916 109.056 14.9639 108.839 15.0361C107.899 15.1807 106.815 14.8193 105.875 14.3856L105.225 15.8313C105.225 15.8313 106.598 16.6988 108.333 16.6988C109.707 16.6988 111.442 16.265 111.514 14.5301C111.586 13.4458 111.153 12.7229 109.996 12.2892C109.562 12.0723 107.972 11.494 107.972 11.494C107.538 11.3494 107.321 11.0603 107.393 10.7711C107.466 10.3374 108.189 10.3374 108.695 10.4097C109.707 10.6265 110.574 11.0602 110.574 11.0602ZM98.5742 19.6627H96.5501V30.2169H98.5742V19.6627ZM83.4658 20.6024H81.2248L80.285 25.0844C80.2127 25.5904 79.9959 26.9639 79.9959 27.3976C79.9236 26.9639 79.6344 25.5904 79.5621 25.0844L78.3332 20.6024H76.2368L75.0079 25.0844C74.8633 25.5904 74.6465 26.9639 74.5742 27.3976C74.5019 26.9639 74.3573 25.5904 74.2128 25.0844L73.273 20.6024H71.032L73.273 30.2169H75.4417L76.8152 25.0844C76.9597 24.506 77.1766 23.494 77.1766 23.1325C77.2489 23.494 77.3935 24.506 77.538 25.0844L78.9115 30.2169H81.1525L83.4658 20.6024ZM94.4537 19.6627H92.4296V30.2169H94.4537V19.6627ZM87.514 22.2651C85.4899 22.2651 84.1164 23.9277 84.1164 26.3133C84.1164 28.7711 85.4176 30.2892 87.8031 30.2892C88.8874 30.2892 89.9718 29.8554 90.5501 29.0603L89.5381 28.0482C89.5381 28.0482 88.8875 28.5542 87.9477 28.5542C86.8634 28.6265 86.2128 27.9759 86.0682 26.8916H90.6224C91.1284 23.7831 89.6826 22.2651 87.514 22.2651ZM88.9597 25.5181H86.1405C86.2128 24.6506 86.7188 23.9277 87.514 23.9277C88.8875 23.9277 88.9597 25.1566 88.9597 25.5181ZM103.562 22.2651C101.538 22.2651 100.165 23.9277 100.165 26.3133C100.165 28.7711 101.466 30.2892 103.851 30.2892C104.936 30.2892 106.02 29.8554 106.598 29.0603L105.586 28.0482C105.586 28.0482 104.936 28.5542 103.996 28.5542C102.912 28.6265 102.261 27.9759 102.116 26.8916H106.671C107.177 23.7831 105.731 22.2651 103.562 22.2651ZM104.936 25.5181H102.116C102.189 24.6506 102.695 23.9277 103.49 23.9277C104.936 23.9277 104.936 25.1566 104.936 25.5181Z" fill="#0C2950"/>
</svg>
