<svg width="209" height="32" viewBox="0 0 209 32" fill="none" xmlns="http://www.w3.org/2000/svg">
<path d="M11.6255 9.85158V21.171C13.1549 20.3451 14.2258 18.9071 14.7457 17.2855L14.8682 17.347C14.5314 21.3853 11.7783 25.4232 7.49537 25.4232C3.18169 25.4232 0 22.2113 0 17.0712C0 13.2168 2.50855 10.7996 5.72099 8.62737C5.2516 8.50423 4.76821 8.44254 4.28294 8.44382C2.07999 8.44382 0.795197 9.9429 0.795197 11.4727H0.611655C0.580914 11.2584 0.580914 11.0446 0.580914 10.8303C0.580914 8.10748 2.01896 4.80328 5.5067 4.80328C7.73995 4.80328 9.4533 6.85298 12.0536 6.85298C13.0938 6.85298 14.3786 6.36338 14.8985 5.23139H14.9903C14.96 7.22051 14.3484 9.27021 11.6255 9.85158ZM13.2774 21.4464C11.7476 23.0675 10.0957 24.4445 7.95423 24.4445C3.97734 24.4445 0.918161 21.3238 0.918161 16.7959C0.918161 14.1345 2.01941 12.6969 3.24317 11.0139H3.12066C2.35575 11.7788 0.336795 13.706 0.336795 16.9794C0.336795 21.997 3.48775 25.0869 7.61789 25.0869C10.4935 25.0869 12.4515 23.0987 13.3389 21.4771L13.2774 21.4464ZM14.5007 6.60886C13.9808 7.5876 12.8796 8.84165 10.6463 8.84165C8.41308 8.84165 6.36338 7.31183 4.55825 7.31183C2.90593 7.31183 1.77439 8.41353 1.34582 9.23947L1.37656 9.30095C1.95793 8.71959 2.8449 8.13822 4.28294 8.13822C6.66898 8.13822 8.1988 9.60701 10.6156 9.60701C13.1856 9.60701 14.3479 7.92394 14.5622 6.6396L14.5007 6.60886ZM5.99585 8.71959C4.43574 10.3412 2.9977 12.1156 2.9977 15.5726C2.9977 17.469 3.64009 19.4269 5.07814 20.6507L5.96511 20.1914V11.993L5.13917 12.4212L4.98637 12.1151L9.26931 9.78965C8.10703 9.54553 7.06681 9.02564 5.99585 8.71959ZM11.2887 9.91261C11.0744 9.9429 10.8606 9.9429 10.6156 9.9429C10.1875 9.9429 9.78965 9.91261 9.39182 9.82039V18.7534L5.38419 20.9265C6.21013 21.5381 7.21961 21.9052 8.5044 21.9052C9.54462 21.9052 10.4623 21.6909 11.2883 21.3238V9.91261H11.2887ZM6.88327 11.4732L6.3019 11.8095V20.0088L6.88327 19.7027V11.4732ZM24.4743 12.6354V23.2207C24.4743 26.1574 21.874 28.1465 18.9676 28.7274L18.9066 28.6049C20.3447 27.9011 21.1706 26.4635 21.1706 24.9336V13.9813L19.5187 12.4826L18.8763 13.1861V21.7217L19.794 22.5476V22.6091L17.3162 25.3012L14.4713 22.7009V22.5783L15.5726 21.4156V7.89365L18.8153 4.4371L18.8763 4.46739V12.6662L21.5381 9.79055L24.322 12.2996L24.8419 11.7485L25.0869 11.9632L24.4743 12.6354ZM15.9085 22.6394V22.5783L16.5509 21.9355V7.37331L15.9085 8.0469V21.6299L14.9293 22.6091V22.6701L17.3153 24.8116L17.7434 24.322L15.9085 22.6394ZM22.1493 13.4917L20.1607 11.7788L19.7325 12.2376L21.5069 13.8289V24.8423C21.5069 25.5765 21.3541 26.341 21.0788 26.7695L21.1096 26.8003C21.8745 26.2492 22.1498 25.4232 22.1498 24.3527V13.4917H22.1493ZM29.3386 18.7845V20.3447L32.3061 22.6697L34.0194 20.8342L34.2644 21.0788L30.2875 25.331L26.2492 22.0883L25.6375 22.7307L25.3925 22.4861L26.0964 21.752V14.012L31.8784 9.7901L34.9073 14.6851L29.3386 18.7845ZM27.0747 21.4771V13.706L26.4323 14.1653V21.7831L30.2261 24.8731L30.7157 24.3532L27.0747 21.4771ZM29.4001 12.0541L29.3386 12.0848V18.3564L32.0615 16.3678L29.4001 12.0541ZM30.1953 11.4424L29.6447 11.8398L32.3372 16.1535L32.8879 15.7557L30.1953 11.4424ZM54.8487 25.3007L50.596 21.6294L47.3533 25.3007L42.9479 21.5069V15.5111H42.0912C41.3263 15.5111 40.9289 16.0007 40.7449 16.5816H40.6531C40.5555 16.2017 40.5042 15.8115 40.5003 15.4193C40.5003 14.6237 40.7146 12.5437 42.9479 12.5437V7.28154C42.9479 6.27206 41.7548 5.87424 41.7548 4.52797C41.7548 2.78477 43.4067 1.07141 46.4356 0L46.5581 0.0917709C45.4569 0.734619 44.8755 1.34627 44.8755 2.66181C44.8755 4.68122 46.8334 4.16088 46.8334 7.34257V8.56633L50.4129 4.80328L54.176 8.50485L57.7248 4.80328L61.151 8.16851V19.488L54.8487 25.3007ZM43.9271 21.0178V14.5631H42.2137C41.3263 14.5631 40.9289 15.144 40.8674 15.6643L40.8977 15.6951C41.2038 15.3587 41.5098 15.1752 42.2132 15.1752H43.2838V21.355L47.3221 24.8428L47.781 24.2917L43.9271 21.0178ZM43.9271 6.97549C43.9271 5.72144 42.8258 5.29287 42.8258 4.49768C42.8258 3.39597 43.2539 2.47872 43.9271 1.62204L43.866 1.59175C42.9483 2.29563 42.0916 3.42762 42.0916 4.52842C42.0916 5.63012 43.2847 6.15 43.2847 7.12919V12.5441H43.9271V6.97549ZM50.3822 10.0351L48.0572 7.77114L46.8334 9.02519V19.8551L49.6173 22.2108L50.3822 21.3541V10.0351ZM51.3609 20.9568V9.60701L48.7606 7.03697L48.271 7.52657L50.7185 9.88187V21.2931L54.8487 24.8726L55.3383 24.4133L51.3609 20.9568ZM57.2962 9.6373L55.369 7.80143L54.2678 8.93342V19.8248L57.2659 22.4554L57.2962 22.4251V9.6373ZM58.2749 9.20918L56.0417 7.03697L55.5829 7.52657L57.6325 9.4845V22.2723L58.2749 21.6602V9.20918ZM71.2743 25.3007L68.3679 22.6697L65.7676 25.3007L62.5859 22.4861L62.1573 22.945L61.9128 22.7004L62.4634 22.119V13.9207L68.2151 9.75981L71.5193 12.3298L72.1007 11.7177L72.3457 11.9628L71.6726 12.6662V21.1408L73.2937 22.6394L73.8141 22.0887L74.0586 22.303L71.2743 25.3007ZM63.4426 21.9052V13.6449L62.8002 14.1038V22.2113L65.7373 24.8423L66.2269 24.3527L63.4426 21.9052ZM68.3679 13.8592L65.8594 11.9013L65.7676 11.9628V20.865L67.848 22.6697L68.3679 22.1498V13.8592ZM69.3471 22.1805V13.4004L66.7468 11.2892L66.1351 11.7173L68.7047 13.7367V22.4861L71.2748 24.8111L71.7336 24.3215L69.3471 22.1805ZM80.177 15.3275H83.3279V21.8745L78.4636 25.3007C77.8212 24.5666 76.9031 24.0467 75.7715 24.0467C74.8538 24.0467 74.1192 24.3527 73.1405 25.1787L72.9877 25.1172L77.1486 19.0599H74.5785V13.3696L79.6878 9.82084C80.2995 10.3104 80.7584 10.5853 81.554 10.5853C82.1661 10.5853 83.0531 10.4628 83.7262 9.91261L83.8487 9.97364L80.177 15.3275ZM76.7507 23.1593C75.8633 23.1593 75.1599 23.4653 74.5478 23.8934V23.9549C75.0374 23.7406 75.527 23.6796 75.9858 23.6796C76.6892 23.6796 77.7909 24.0164 78.5251 24.8731L79.229 24.3532C78.6472 23.6796 77.9437 23.1593 76.7507 23.1593ZM80.0237 18.0196H78.3104L74.7309 23.1905L74.7616 23.2515C75.6486 22.6091 76.5052 22.181 77.5455 22.181C78.4632 22.181 79.4116 22.6091 79.993 23.3433L80.0237 23.313V18.0196ZM75.5573 18.0196V13.0948L74.9149 13.5536V18.6932H77.3927L77.8823 18.0201H75.5573V18.0196ZM81.9514 12.0233C81.309 12.4826 80.9419 12.7272 79.8709 12.7272C79.2588 12.7272 78.5247 12.4519 77.9437 11.8398L77.8827 11.8705V16.337H79.045L81.9821 12.0536L81.9514 12.0233ZM80.483 11.748C79.9324 11.748 79.229 11.4732 78.7697 10.8611L78.0048 11.3809C78.5861 12.0848 79.1368 12.3904 79.993 12.3904C80.5436 12.3904 81.3393 12.2372 82.1652 11.5333L82.1955 11.442C81.6761 11.6567 81.0337 11.748 80.483 11.748ZM81.0029 17.0106H79.0143L78.5554 17.653H80.3605V23.5878L81.0029 23.129V17.0106ZM93.8825 12.6354V23.2207C93.8825 26.1574 91.2822 28.1465 88.3758 28.7274L88.3148 28.6049C89.7528 27.9011 90.5787 26.4635 90.5787 24.9336V13.9813L88.9269 12.4826L88.2845 13.1861V21.7217L89.2022 22.5476V22.6091L86.7244 25.3012L83.8795 22.7009V22.5783L84.9807 21.4156V7.89365L88.2234 4.4371L88.2845 4.46739V12.6662L90.9463 9.79055L93.7301 12.2996L94.25 11.7485L94.495 11.9632L93.8825 12.6354ZM85.3166 22.6394V22.5783L85.959 21.9355V7.37331L85.3166 8.04645V21.6294L84.3374 22.6086V22.6697L86.7235 24.8111L87.1516 24.3215L85.3166 22.6394ZM91.5575 13.4917L89.5688 11.7788L89.1407 12.2376L90.9151 13.8289V24.8423C90.9151 25.5765 90.7623 26.341 90.487 26.7695L90.5177 26.8003C91.2826 26.2492 91.5579 25.4232 91.5579 24.3527V13.4917H91.5575ZM99.4507 25.3007L96.8196 22.8839L96.2075 23.5263L95.9625 23.2813L96.6664 22.5169V13.6757L95.3816 12.4519L94.892 13.003L94.6469 12.758L97.4001 9.75981L99.8476 11.9628L100.46 11.2896L100.735 11.5039L99.9701 12.3298V21.2633L101.439 22.6398L102.112 21.9359L102.357 22.181L99.4507 25.3007ZM97.6456 22.303V13.1861L96.0547 11.7177L95.6266 12.2073L97.0032 13.5229V22.6091L99.4507 24.8116L99.9095 24.322L97.6456 22.303ZM98.5633 9.51524L96.0547 7.22097L98.3494 4.77344L100.858 7.06771L98.5633 9.51524ZM97.0032 6.73092L96.5443 7.18977L98.5325 9.05593L98.9914 8.53605L97.0032 6.73092ZM112.387 25.3007L109.725 22.8839V13.951L108.103 12.4826L107.247 13.4004V21.6602L108.195 22.5472V22.6697L105.687 25.3007L102.841 22.7004V22.6086L103.943 21.4464V13.7367L102.505 12.4212L101.924 13.0636L101.679 12.819L104.463 9.7901L107.247 12.2684V12.88L110.153 9.7901L112.875 12.2376L113.488 11.5952L113.763 11.8398L113.029 12.6047V21.3541L114.405 22.6389L115.078 21.9048L115.323 22.1493L112.387 25.3007ZM104.31 22.6394V22.5783C104.31 22.6394 104.922 21.9662 104.922 21.9662V13.2774L103.178 11.6865L102.749 12.1454L104.279 13.5527V21.629L103.331 22.6082V22.6692L105.687 24.8107L106.176 24.2908L104.31 22.6394ZM110.704 22.3948V13.4311L108.807 11.7177L108.318 12.2376L110.061 13.7977V22.7004L112.356 24.8419L112.845 24.3215L110.704 22.3948ZM121.014 30.8074C120.005 29.7062 119.301 29.2473 118.352 29.2473C117.343 29.2473 116.18 29.6452 114.987 30.2875L114.895 30.1962L119.117 25.3012L116.119 22.9151L115.538 23.5272L115.293 23.313L115.966 22.5788V13.9207L121.779 9.75981L125.021 12.3298L125.572 11.7177L125.817 11.9628L125.175 12.6662V23.1294C125.175 24.7203 126.062 24.6592 126.062 25.8518C126.062 27.2284 124.073 28.5132 121.014 30.8074ZM116.945 22.3333V13.6757L116.303 14.135V22.6091L119.331 25.0566L119.79 24.5055L116.945 22.3333ZM119.086 28.4521C118.077 28.4521 117.159 28.7582 116.303 29.3391V29.4006C116.853 29.1863 117.465 28.911 118.505 28.911C119.454 28.911 120.249 29.4309 121.044 30.349L121.657 29.8594C120.891 28.9725 119.973 28.4521 119.086 28.4521ZM122.819 25.515C122.054 25.0254 121.87 24.5055 121.87 23.19V22.6389L116.792 28.5127L116.822 28.543C117.801 27.9621 118.689 27.534 120.127 27.534C121.35 27.534 122.176 28.0231 123.125 28.8188C123.706 28.3292 124.104 27.84 124.104 27.0751C124.104 26.4635 123.583 26.0046 122.819 25.515ZM121.87 13.8592L119.331 11.871L119.27 11.932V21.3238L121.228 22.8537L121.87 22.1195V13.8592ZM123.737 25.0869C122.941 24.4748 122.849 23.9549 122.849 22.6394V13.3393L120.279 11.2589L119.698 11.6567L122.207 13.6449V23.0675C122.207 24.383 122.268 24.7506 123.094 25.3007C123.828 25.7903 124.409 26.3102 124.409 27.0141C124.409 27.1972 124.379 27.5032 124.379 27.5032L124.409 27.534C124.562 27.3807 124.746 27.1361 124.746 26.7383C124.746 26.0656 124.41 25.6068 123.737 25.0869ZM131.079 25.3007L128.264 23.0982L127.683 23.7406L127.439 23.4956L128.111 22.7614V12.0541H126.337L126.275 11.993L127.346 10.4018H128.111V8.3525L131.354 4.8955L131.415 4.95698V10.4022H133.863L133.924 10.4637L132.853 12.0545H131.415V21.3243L133.098 22.6095L133.74 21.9057L133.985 22.1502L131.079 25.3007ZM129.09 7.83217L128.448 8.53605V10.4022H129.09V7.83217ZM129.09 22.4558V12.0541H128.448V22.8229L131.048 24.8423L131.507 24.3527L129.09 22.4558ZM143.989 12.9415V21.5074L138.819 25.3315L134.933 22.3948L134.474 22.9147L134.23 22.6697L134.78 22.058V13.6757L140.196 9.7901L143.805 12.6052L144.386 11.993L144.631 12.2376L143.989 12.9415ZM135.76 21.7524V13.4004L135.117 13.8592V22.0887L138.788 24.9034L139.37 24.4752L135.76 21.7524ZM140.685 13.951L138.115 11.9316L138.085 11.9623V21.0788L140.685 23.0367V13.951ZM141.664 13.4004L138.819 11.1974L138.238 11.6255L141.022 13.767V23.2818L141.664 22.7926V13.4004ZM155.676 25.3007L153.014 22.8839V13.951L151.393 12.4826L150.536 13.4004V21.6602L151.484 22.5472V22.6697L148.976 25.3007L146.13 22.7004V22.6086L147.232 21.4464V13.7367L145.794 12.4212L145.213 13.0636L144.968 12.819L147.752 9.7901L150.536 12.2684V12.88L153.442 9.7901L156.165 12.2376L156.777 11.5952L157.052 11.8398L156.318 12.6047V21.3541L157.694 22.6389L158.368 21.9048L158.612 22.1493L155.676 25.3007ZM147.599 22.6394V22.5783C147.599 22.6394 148.211 21.9662 148.211 21.9662V13.2774L146.467 11.6865L146.039 12.1454L147.569 13.5527V21.629L146.62 22.6082V22.6692L148.976 24.8107L149.466 24.2908L147.599 22.6394ZM153.993 22.3948V13.4311L152.096 11.7177L151.607 12.2376L153.35 13.7977V22.7004L155.645 24.8419L156.134 24.3215L153.993 22.3948ZM174.575 25.3007C173.719 24.383 173.413 24.077 172.403 23.8017V29.798L172.342 29.8282L171.118 28.7265L167.569 32L167.508 31.9697V23.7406C166.437 23.9852 165.305 24.5363 164.203 25.6371L164.142 25.6068C164.357 23.251 165.519 21.5074 167.507 20.8342V14.8687H166.865C165.978 14.8687 165.488 15.3275 165.06 16.1535H164.968C164.877 15.8786 164.815 15.4496 164.815 14.7466C164.815 13.4614 165.764 12.1156 167.324 12.1156H167.507V8.81136L166.253 7.67937L165.641 8.29147L165.427 8.07719L168.517 4.80373L171.392 7.4348V10.2187L172.065 9.4845V5.96601H172.402V9.17844L176.47 4.80328L179.927 7.95468V21.2628L174.575 25.3007ZM167.508 22.6086C166.254 22.8532 165.367 23.6181 164.786 24.6276L164.816 24.6891C165.674 23.9549 166.468 23.6186 167.508 23.3735V22.6086ZM168.488 13.8289H166.805C165.642 13.8289 165.183 14.5631 165.153 15.4198L165.183 15.4501C165.551 14.8379 165.918 14.6241 166.652 14.5328H167.845V31.2057L168.488 30.5936V13.8289ZM168.488 8.32176L166.958 6.91491L166.468 7.4348L167.845 8.65811V12.1151H168.488V8.32176ZM172.067 10.0654L171.394 10.7693V28.4829L172.067 29.095V10.0654ZM176.075 9.36198L174.27 7.71011L172.404 9.72952V20.4979C173.994 20.6512 175.096 21.11 176.044 22.1498L176.075 22.1195V9.36198ZM172.404 22.6086V23.4043C173.444 23.6489 173.872 23.9549 174.606 24.8111L175.31 24.2605C174.575 23.3428 173.841 22.7926 172.404 22.6086ZM177.054 8.87284L174.973 6.9452L174.484 7.46508L176.411 9.23947V23.4653L177.054 22.9757V8.87284ZM190.606 12.9415V21.5074L185.435 25.3315L181.55 22.3948L181.091 22.9147L180.846 22.6697L181.397 22.058V13.6757L186.812 9.7901L190.422 12.6052L191.003 11.993L191.248 12.2376L190.606 12.9415ZM182.377 21.7524V13.4004L181.734 13.8592V22.0887L185.405 24.9034L185.987 24.4752L182.377 21.7524ZM187.302 13.951L184.732 11.9316L184.702 11.9623V21.0788L187.302 23.0367V13.951ZM188.281 13.4004L185.436 11.1974L184.855 11.6255L187.639 13.767V23.2818L188.281 22.7926V13.4004ZM197.703 15.3275H200.855V21.8745L195.99 25.3007C195.348 24.5666 194.43 24.0467 193.298 24.0467C192.381 24.0467 191.646 24.3527 190.667 25.1787L190.514 25.1172L194.675 19.0599H192.105V13.3696L197.214 9.82084C197.826 10.3104 198.285 10.5853 199.08 10.5853C199.692 10.5853 200.579 10.4628 201.253 9.91261L201.375 9.97364L197.703 15.3275ZM194.277 23.1593C193.39 23.1593 192.686 23.4653 192.075 23.8934V23.9549C192.564 23.7406 193.053 23.6796 193.513 23.6796C194.217 23.6796 195.317 24.0164 196.051 24.8731L196.755 24.3532C196.174 23.6796 195.471 23.1593 194.277 23.1593ZM197.551 18.0196H195.838L192.259 23.1905L192.289 23.2515C193.176 22.6091 194.033 22.181 195.073 22.181C195.99 22.181 196.939 22.6091 197.52 23.3433L197.551 23.313V18.0196H197.551ZM193.085 18.0196V13.0948L192.442 13.5536V18.6932H194.92L195.409 18.0201H193.085V18.0196ZM199.478 12.0233C198.835 12.4826 198.469 12.7272 197.397 12.7272C196.785 12.7272 196.051 12.4519 195.47 11.8398L195.409 11.8705V16.337H196.571L199.508 12.0536L199.478 12.0233ZM198.009 11.748C197.459 11.748 196.755 11.4732 196.297 10.8611L195.532 11.3809C196.113 12.0848 196.664 12.3904 197.52 12.3904C198.071 12.3904 198.867 12.2372 199.692 11.5333L199.723 11.442C199.203 11.6567 198.561 11.748 198.009 11.748ZM198.53 17.0106H196.542L196.083 17.653H197.887V23.5878L198.53 23.129V17.0106ZM205.933 25.3007L203.119 23.0982L202.537 23.7406L202.293 23.4956L202.965 22.7614V12.0541H201.191L201.13 11.993L202.201 10.4018H202.965V8.3525L206.208 4.8955L206.27 4.95698V10.4022H208.717L208.778 10.4637L207.707 12.0545H206.27V21.3243L207.952 22.6095L208.595 21.9057L208.839 22.1502L205.933 25.3007ZM203.945 7.83217L203.302 8.53605V10.4022H203.945V7.83217ZM203.945 22.4558V12.0541H203.302V22.8229L205.903 24.8423L206.361 24.3527L203.945 22.4558Z" fill="black"/>
</svg>
