<svg xmlns="http://www.w3.org/2000/svg" width="224" height="122" fill="none">
  <path fill="#fff" fill-rule="evenodd" d="M19.7221 120.904C52.025 85.1221 81.2629 55.4369 108.828 34.6996c27.57-20.741 53.345-32.43789 78.735-32.43789 13.285 0 22.322 3.69719 27.572 9.83549 5.246 6.1342 6.917 14.9512 4.937 25.6528-3.883 20.9773-21.723 48.6168-52.39 75.228l.6-7.404c.05-.623-.414-1.168-1.036-1.219-.623-.05-1.168.414-1.219 1.036l-.821 10.145c-.05.622.413 1.168 1.036 1.218l10.144.822c.623.05 1.168-.414 1.219-1.036.05-.623-.414-1.168-1.036-1.219l-7.442-.602c30.869-26.7776 49.151-54.8511 53.169-76.5574 2.057-11.1148.394-20.7103-5.442-27.5344C211.021 3.8071 201.229 0 187.563 0c-26.097 0-52.351 12.0206-80.095 32.8922-27.7482 20.8753-57.1068 50.6977-89.4247 86.4958-.4185.464-.382 1.179.0816 1.598.4636.418 1.1787.382 1.5972-.082Zm27.2814-82.3847c.2618-.5671.9336-.8146 1.5007-.5529.5671.2617.8146.9335.5529 1.5006l-36.1522 78.335c-.2618.567-.9336.815-1.5007.553-.5671-.262-.8146-.934-.5529-1.501l36.1522-78.3347ZM10.7898 82.3705c.1699-.601.7948-.9505 1.3958-.7807.601.1699.9506.7948.7807 1.3958L3.17495 117.636c-.16984.601-.79474.95-1.39575.78-.60102-.17-.950566-.794-.780729-1.395L10.7898 82.3705Z" clip-rule="evenodd"/>
</svg>
