<svg width="144" height="144" viewBox="0 0 144 144" fill="none" xmlns="http://www.w3.org/2000/svg">
    <ellipse cx="72" cy="72.0004" rx="63" ry="62.9989" fill="#1EBFBF"/>
    <path d="M59.9839 131.856L27 78.5L119.614 44.9648L137.298 113.816C137.682 115.309 136.751 116.823 135.245 117.155L62.8872 133.085C61.7568 133.333 60.5925 132.841 59.9839 131.856Z" fill="#16191C"/>
    <mask id="mask0_756_3441" style="mask-type:alpha" maskUnits="userSpaceOnUse" x="6" y="44" width="132" height="98">
        <path d="M21.5716 139.336L6 68.1897L119.614 44.9648L137.298 113.815C137.682 115.309 136.75 116.823 135.244 117.154L24.8178 141.415C23.3473 141.738 21.8935 140.807 21.5716 139.336Z" fill="#16191C"/>
    </mask>
    <g mask="url(#mask0_756_3441)">
        <circle cx="71.5" cy="72.5" r="62.5" fill="#16191C"/>
    </g>
    <path d="M49.328 2.96887L9 68L70.6514 95.3639C72.4657 96.1691 74.5927 95.7027 75.9035 94.2122L119.401 44.7529L54.0902 1.91595C52.4891 0.865769 50.3371 1.34156 49.328 2.96887Z" fill="white"/>
    <path d="M10.2656 67.0782L12.9226 66.5398M115.058 45.8447L15.4734 66.023" stroke="white" stroke-width="0.454096" stroke-linecap="round"/>
    <path d="M98.2159 38.814V18.0283L12.6603 35.4205C11.8951 48.5706 16.5179 65.3947 18.9978 72.5L23.9978 75C49.4696 66.0918 98.2159 46.0254 98.2159 38.814Z" fill="#1EBFBF"/>
    <path d="M98.2158 38.814C98.2158 31.6027 98.2158 21.9522 98.2158 18.0283L83.5733 21.0049M29.1578 32.0668L12.6603 35.4204C12.3056 41.5154 13.1397 48.5443 14.3837 55.0396" stroke="white" stroke-width="0.96079" stroke-linecap="round"/>
    <path fill-rule="evenodd" clip-rule="evenodd" d="M110.322 55.0485L75.8772 94.2141C74.5677 95.703 72.4436 96.1701 70.6303 95.368L22.0969 73.8993C19.963 66.0524 18.2031 56.329 18.2031 44.0089L107.053 27.147C107.053 37.9754 108.105 46.9408 110.322 55.0485Z" fill="white"/>
    <path d="M28.6484 69.9921C35.2392 64.4034 39.8036 58.994 45.7952 57.7964C51.9689 56.5624 38.3057 69.8681 45.7952 67.8721C56.0809 65.131 59.4761 54.8206 59.4761 51.2058C59.4761 46.5209 48.2917 64.8781 59.4761 63.2814C70.6605 61.6846 75.354 47.7185 84.5411 45.7225C93.7283 43.7266 85.5397 55.4971 90.7325 55.4971C94.8867 55.4971 101.451 52.6362 104.214 51.2058" stroke="#1EBFBF" stroke-width="0.681145" stroke-linecap="round"/>
    <path fill-rule="evenodd" clip-rule="evenodd" d="M77.1786 92.789C75.2697 93.7459 73.4795 94.734 71.8667 95.7633C71.4754 95.7105 71.0867 95.6059 70.7104 95.4474L61.9713 91.7649L22 73.9995C21.8605 73.1158 21.7145 72.3445 21.5644 71.6528L80.3944 89.1324L77.1786 92.789Z" fill="white"/>
    <path d="M39.2344 125.029L69.2344 98.2002" stroke="#F9F9F9" stroke-width="0.681145" stroke-linecap="round"/>
    <line x1="0.340572" y1="-0.340572" x2="53.5365" y2="-0.340572" transform="matrix(0.919251 0.393672 -0.395119 0.91863 85.2734 93.5366)" stroke="white" stroke-width="0.681145" stroke-linecap="round"/>
    <path d="M62 7.50009C62 7.50009 55.5 1.00007 52 1.50009C48.5 2.00011 42 15.5001 42 15.5001" stroke="#16191C" stroke-width="0.8"/>
</svg>
