<svg width="168" height="168" viewBox="0 0 168 168" fill="none" xmlns="http://www.w3.org/2000/svg">
<circle cx="84" cy="84" r="80" fill="#F4F5F8"/>
<path d="M30 74H37.9575C39.4732 74 40.61 74.3789 41.452 75.0105C42.3783 75.7683 42.8836 76.863 42.8836 78.2103C42.8836 79.7681 42.252 80.7365 40.9889 81.3259V81.4101C42.673 81.9575 43.6414 83.4732 43.6414 85.2836C43.6414 87.0099 42.9678 88.3572 41.8731 89.1992C40.9468 89.8729 39.7679 90.1676 38.168 90.1676H30V74ZM37.1575 80.3155C37.9996 80.3155 38.6311 79.8523 38.6311 78.884C38.6311 77.9577 37.9996 77.4946 37.1154 77.4946H34.3787V80.2734H37.1575V80.3155ZM37.5365 86.5888C38.5048 86.5888 39.2206 85.9994 39.2206 84.9468C39.2206 83.81 38.4627 83.3048 37.5365 83.3048H34.4208V86.6309H37.5365V86.5888Z" fill="black"/>
<path d="M44.3572 74H48.5254V90.2097H44.3572V74Z" fill="black"/>
<path d="M49.3674 84.4416C49.3674 80.7786 51.7252 78.3366 55.3882 78.3366C59.0512 78.3366 61.3668 80.8207 61.3668 84.4416C61.3668 88.1045 59.0512 90.5465 55.3882 90.5465C51.7252 90.5465 49.3674 88.1045 49.3674 84.4416ZM57.1986 84.4416C57.1986 82.4206 56.5671 81.1575 55.304 81.1575C54.0409 81.1575 53.4514 82.4206 53.4514 84.4416C53.4514 86.4625 54.0409 87.7677 55.304 87.7677C56.5671 87.7256 57.1986 86.4625 57.1986 84.4416Z" fill="black"/>
<path d="M61.83 84.4416C61.83 80.7786 64.1877 78.3366 67.8507 78.3366C71.5137 78.3366 73.7872 80.7786 73.7872 84.4416C73.7872 88.1045 71.4716 90.5465 67.8086 90.5465C64.1877 90.5465 61.83 88.1045 61.83 84.4416ZM69.6611 84.4416C69.6611 82.4206 69.0296 81.1575 67.7665 81.1575C66.5034 81.1575 65.914 82.4206 65.914 84.4416C65.914 86.4625 66.5034 87.7677 67.7665 87.7677C69.0296 87.7256 69.6611 86.4625 69.6611 84.4416Z" fill="black"/>
<path d="M74.6293 78.6313H78.5028V80.3576H78.587C79.3449 79.0103 80.3974 78.2945 82.0816 78.2945C83.5552 78.2945 84.6498 79.0103 85.1972 80.2734H85.2814C86.2077 78.7577 87.4287 78.2945 88.8602 78.2945C91.5548 78.2945 92.6915 80.2734 92.6915 82.9259V90.1676H88.6496V83.6416C88.6496 82.4627 88.2707 81.7049 87.2602 81.7049C86.2498 81.7049 85.7445 82.6311 85.7445 83.8942V90.1676H81.7026V83.6416C81.7026 82.4627 81.3237 81.7049 80.3132 81.7049C79.3027 81.7049 78.7975 82.6311 78.7975 83.8942V90.1676H74.6293V78.6313Z" fill="black"/>
<path d="M97.786 88.6519H97.7439V90.1676H93.8704V74H97.9123V79.8102H97.9965C98.7544 78.7998 99.807 78.2524 101.281 78.2524C104.186 78.2524 105.87 80.8628 105.87 84.3574C105.87 88.273 104.059 90.5465 101.028 90.5465C99.7649 90.5465 98.4597 89.9571 97.786 88.6519ZM101.702 84.3153C101.702 82.4627 101.028 81.2417 99.807 81.2417C98.5439 81.2417 97.786 82.4627 97.786 84.3153C97.786 86.1678 98.586 87.3888 99.807 87.3888C101.028 87.3888 101.702 86.2099 101.702 84.3153Z" fill="black"/>
<path d="M106.333 84.3995C106.333 80.7786 108.733 78.2945 112.185 78.2945C113.912 78.2945 115.217 78.8419 116.227 79.8102C117.574 81.1154 118.164 83.1364 118.122 85.4942H110.375C110.543 86.9257 111.217 87.6835 112.438 87.6835C113.154 87.6835 113.785 87.3467 114.038 86.5888H117.953C117.28 89.2413 115.217 90.5465 112.312 90.5465C108.733 90.5044 106.333 88.0624 106.333 84.3995ZM110.375 83.1785H114.08C113.996 81.7891 113.238 81.0733 112.269 81.0733C111.133 81.0312 110.501 81.8312 110.375 83.1785Z" fill="black"/>
<path d="M122.711 80.6102H122.795C123.637 79.0103 124.732 78.3787 126.121 78.3787C126.458 78.3787 126.669 78.4208 126.795 78.505V82.0417H126.711C124.311 81.6207 122.922 82.7574 122.922 85.3678V90.2097H118.838V78.6313H122.711V80.6102Z" fill="black"/>
<path d="M127.216 90.2097H131.132C131.3 90.7149 131.805 91.1781 132.774 91.1781C134.079 91.1781 134.542 90.3781 134.542 89.1571V88.3151H134.458C133.826 89.0729 132.942 89.6203 131.679 89.6203C129.195 89.6203 127.006 87.7677 127.006 84.1469C127.006 80.8207 128.774 78.2524 131.469 78.2524C133.026 78.2524 133.953 78.884 134.584 79.8523H134.668V78.5892H138.542V88.6098C138.542 90.4623 137.91 91.8938 136.942 92.7359C135.931 93.6201 134.5 93.999 132.858 93.999C129.742 94.0411 127.595 92.778 127.216 90.2097ZM134.71 83.9784C134.71 82.5469 134.037 81.368 132.858 81.368C131.721 81.368 131.005 82.3785 131.005 83.9784C131.005 85.5363 131.721 86.6309 132.858 86.6309C133.995 86.6309 134.71 85.4942 134.71 83.9784Z" fill="black"/>
</svg>
