<svg width="168" height="168" viewBox="0 0 168 168" fill="none" xmlns="http://www.w3.org/2000/svg">
<circle cx="84" cy="84" r="80" fill="#F4F5F8"/>
<path fill-rule="evenodd" clip-rule="evenodd" d="M46.9448 88.3441C47.9244 87.0124 48.4494 85.4054 48.443 83.7535C48.443 79.483 44.9792 76 40.7215 76C36.4638 76 33 79.483 33 83.7535C33 88.024 36.4638 91.507 40.7215 91.507C42.3926 91.507 43.9484 90.9692 45.2161 90.0536L47.1497 92L48.8655 90.2777L46.9384 88.3441H46.9448ZM45.1969 86.5898L42.3413 83.7215L40.6255 85.4502L43.4618 88.2993C42.6359 88.8051 41.6883 89.0676 40.7215 89.0676C37.8019 89.0676 35.4266 86.6859 35.4266 83.7535C35.4266 80.8211 37.8019 78.4394 40.7215 78.4394C43.6411 78.4394 46.0164 80.8211 46.0164 83.7535C46.0164 84.7587 45.7347 85.7383 45.1969 86.5898Z" fill="black"/>
<path fill-rule="evenodd" clip-rule="evenodd" d="M66.2741 76.3842V85.7447C66.2741 88.9204 63.7067 91.5006 60.5438 91.5006C57.381 91.5006 54.8135 88.9204 54.8135 85.7447V76.3842H57.2977V85.7447C57.2401 87.5694 58.7255 89.0548 60.5438 89.0548C62.3621 89.0548 63.8411 87.5694 63.8027 85.7447V76.3842H66.2677" fill="black"/>
<path fill-rule="evenodd" clip-rule="evenodd" d="M79.7515 76.3842H76.7679L71.0888 91.1805H73.6947L74.7575 88.2993H81.7619L82.8247 91.1805H85.4306L79.7515 76.3842ZM75.7051 85.988L78.2597 79.3101L80.8079 85.988H75.6987H75.7051Z" fill="black"/>
<path fill-rule="evenodd" clip-rule="evenodd" d="M98.3958 86.1673C100.137 85.2965 101.245 83.5166 101.245 81.5702C101.245 78.8555 99.0168 76.4354 96.2445 76.3778H90.7895V91.1805H93.2801V86.7243H95.5338L100.662 91.9424L102.391 90.2265L98.4022 86.1673H98.3958ZM96.0588 84.2785H93.2737V78.8619H96.0588C97.5762 78.8619 98.8119 80.0784 98.8119 81.5702C98.8119 83.062 97.5762 84.2785 96.0588 84.2785Z" fill="black"/>
<path fill-rule="evenodd" clip-rule="evenodd" d="M118.148 76.3842V78.8491H113.551V91.1805H111.066V78.8491H106.476V76.3842H118.148Z" fill="black"/>
<path fill-rule="evenodd" clip-rule="evenodd" d="M134.98 78.8491L126.746 88.6835H134.98V91.1805H123.5V88.549L131.766 78.8491H124.076V76.4098H134.98V78.8491Z" fill="black"/>
</svg>
