<svg width="112" height="32" viewBox="0 0 112 32" fill="none" xmlns="http://www.w3.org/2000/svg">
<path d="M112 4.44445e-05V32H80V4.44445e-05H112ZM72 0V32H40V0H72ZM32 0V32H0V0H32ZM97.4693 6.80827C96.0294 6.80827 94.7294 7.02227 93.5693 7.44982C92.409 7.87782 91.4138 8.49471 90.5841 9.30049C89.7539 10.1067 89.1189 11.0733 88.6786 12.1999C88.2379 13.3269 88.0178 14.5896 88.0178 15.9876C88.0178 17.4188 88.2297 18.7063 88.6531 19.8494C89.0763 20.9929 89.6861 21.9592 90.4824 22.7488C91.2784 23.5384 92.2522 24.1431 93.4042 24.5625C94.5559 24.9819 95.8517 25.1917 97.2914 25.1917C98.3752 25.1917 99.4087 25.0722 100.391 24.8338C101.373 24.5956 102.237 24.2706 102.983 23.8593V20.4293C101.407 21.4002 99.6881 21.8852 97.8251 21.8852C96.6054 21.8852 95.5679 21.6549 94.7127 21.1943C93.8572 20.7338 93.205 20.0634 92.7564 19.1832C92.3073 18.3033 92.0831 17.2381 92.0831 15.9876C92.0831 14.7377 92.3157 13.6766 92.7817 12.8045C93.2474 11.9327 93.9163 11.2665 94.7889 10.8058C95.661 10.3454 96.7156 10.1148 97.9521 10.1148C98.8497 10.1148 99.7052 10.2343 100.518 10.4726C101.331 10.7113 102.085 11.0609 102.779 11.5213V8.01738C102.017 7.6226 101.191 7.3226 100.302 7.11671C99.413 6.91127 98.4686 6.80827 97.4693 6.80827ZM55.7552 7H49V25H56.1713C57.5909 25 58.8064 24.7903 59.8181 24.3707C60.8298 23.9513 61.6088 23.3553 62.1556 22.5832C62.702 21.8115 62.9755 20.8882 62.9755 19.814C62.9755 18.7232 62.6941 17.796 62.1312 17.0321C61.5681 16.2687 60.7564 15.7104 59.6958 15.358C60.4626 14.9891 61.042 14.4894 61.4336 13.8601C61.8252 13.2308 62.021 12.4881 62.021 11.6321C62.021 10.1386 61.4742 8.99311 60.3812 8.19578C59.2878 7.39889 57.7458 7 55.7552 7ZM15.7552 7H9V25H16.1713C17.5909 25 18.8062 24.7903 19.8182 24.3707C20.8297 23.9513 21.6088 23.3553 22.1556 22.5832C22.7021 21.8115 22.9756 20.8882 22.9756 19.814C22.9756 18.7232 22.6941 17.796 22.1311 17.0321C21.5682 16.2687 20.7563 15.7104 19.6958 15.358C20.4626 14.9891 21.0419 14.4894 21.4336 13.8601C21.8252 13.2308 22.021 12.4881 22.021 11.6321C22.021 10.1386 21.4741 8.99311 20.3811 8.19578C19.2878 7.39889 17.7458 7 15.7552 7ZM55.8776 17.2209C58.1128 17.2209 59.2308 18.0435 59.2308 19.6882C59.2308 20.4603 58.9369 21.0518 58.3497 21.4629C57.7622 21.8744 56.9217 22.0797 55.8287 22.0797H52.6469V17.2209H55.8776ZM15.8776 17.2209C18.1129 17.2209 19.2308 18.0435 19.2308 19.6882C19.2308 20.4603 18.937 21.0518 18.3497 21.4629C17.7622 21.8744 16.9217 22.0797 15.8287 22.0797H12.6469V17.2209H15.8776ZM55.4126 9.92028C57.3541 9.92028 58.3252 10.6338 58.3252 12.0601C58.3252 12.7988 58.0763 13.3735 57.5787 13.7846C57.0808 14.1961 56.3588 14.4014 55.4126 14.4014H52.6469V9.92028H55.4126ZM15.4126 9.92028C17.3541 9.92028 18.3252 10.6338 18.3252 12.0601C18.3252 12.7988 18.0762 13.3735 17.5787 13.7846C17.0808 14.1961 16.3588 14.4014 15.4126 14.4014H12.6469V9.92028H15.4126Z" fill="black"/>
</svg>
