<svg width="141" height="28" viewBox="0 0 141 28" fill="none" xmlns="http://www.w3.org/2000/svg">
<path d="M118.164 4.35605V23.7113H127.706C130.379 23.7113 131.917 23.2847 133.039 22.3079C134.443 21.0505 135.15 18.8051 135.15 14.0225C135.15 9.23977 134.454 7.00561 133.039 5.73697C131.917 4.749 130.367 4.3336 127.706 4.3336H118.164V4.35605ZM131.209 14.0337C131.209 18.2438 130.929 19.2205 130.087 19.7819C129.525 20.2085 128.829 20.3432 127.415 20.3432H122.082V7.57819H127.415C128.818 7.57819 129.525 7.57819 130.087 8.13953C130.929 8.83561 131.209 9.82358 131.209 14.0337ZM140.056 28H112.056V0H140.056V28ZM89.1869 7.57819V4.35605H105.747V10.5309H102.244V7.58942H95.5076V12.2149H100.84V15.3023H95.5076V20.4892H102.379V17.1211H105.881V23.7225H89.1756V20.4892H91.8476V7.57819H89.1756H89.1869ZM74.1652 18.6704C74.1652 20.7811 74.2999 22.3192 74.5918 23.5878H78.3865C78.2518 22.5998 78.1059 20.7811 78.1059 18.401C77.9711 15.5942 77.1179 15.1676 75.1644 14.7522C77.4098 14.3256 78.3978 13.3488 78.3978 9.8348C78.3978 7.02807 77.9711 5.90537 77.1403 5.2093C76.579 4.64795 75.591 4.36728 74.0529 4.36728H62.2646V23.7113H66.1941V16.1331H71.6728C72.7955 16.1331 73.2221 16.2678 73.6375 16.5597C74.0529 16.8516 74.1989 17.2558 74.1989 18.6704H74.1652ZM66.1716 13.0569V7.72414H72.4812C73.3232 7.72414 73.6039 7.85886 73.7386 8.00481C74.0192 8.28549 74.2999 8.70088 74.2999 10.3849C74.2999 12.069 74.0192 12.6303 73.7386 12.911C73.6039 13.0457 73.312 13.1917 72.4812 13.1917L66.1716 13.0569ZM84 28H55.9326V0H83.9326V28H84ZM48.6351 20.4892V23.7225H35.2975V20.4892H40.069V7.57819H35.2975V4.35605H48.6351V7.58942H43.8637V20.5004H48.6351V20.4892ZM26.1026 4.35605H22.4539L19.7819 19.6472L16.6945 5.47875C16.5597 4.49078 16.1331 4.35605 15.2911 4.35605H13.3264C12.4844 4.35605 12.069 4.63673 11.923 5.47875L8.83561 19.6472L6.17482 4.35605H2.24539L6.0401 22.7458C6.17482 23.5878 6.46672 23.7338 7.44346 23.7338H10.1155C10.9575 23.7338 11.2382 23.599 11.5188 22.7458L14.4603 9.40818L17.4018 22.7458C17.5365 23.5878 17.8284 23.7338 18.8051 23.7338H21.3312C22.1732 23.7338 22.5886 23.599 22.7346 22.7458L26.1026 4.35605ZM28.0674 28H0V0H28V28H28.0674Z" fill="black"/>
</svg>
