<svg width="65" height="40" viewBox="0 0 65 40" fill="none" xmlns="http://www.w3.org/2000/svg">
<g clip-path="url(#clip0_87_3207)">
<mask id="mask0_87_3207" style="mask-type:alpha" maskUnits="userSpaceOnUse" x="0" y="0" width="65" height="40">
<path fill-rule="evenodd" clip-rule="evenodd" d="M0 0.283936H64.4711V40H0V0.283936Z" fill="white"/>
</mask>
<g mask="url(#mask0_87_3207)">
</g>
<mask id="mask1_87_3207" style="mask-type:alpha" maskUnits="userSpaceOnUse" x="0" y="0" width="65" height="40">
<path fill-rule="evenodd" clip-rule="evenodd" d="M0 0.283936H64.4711V40H0V0.283936Z" fill="white"/>
</mask>
<g mask="url(#mask1_87_3207)">
<path fill-rule="evenodd" clip-rule="evenodd" d="M51.821 34.4444C51.8143 34.4497 51.8077 34.4545 51.8011 34.4598L51.6258 34.2497C48.0114 37.2224 43.4204 38.8303 38.6826 38.8303C33.2612 38.8303 28.1815 36.7837 24.372 33.0312C20.5625 29.3279 18.4619 24.3574 18.4619 19.0941C18.4619 15.0497 19.6832 11.1024 22.0763 7.78853C24.4209 4.52349 27.6445 2.08701 31.454 0.673824L31.3077 0.283936C27.4488 1.74591 24.1279 4.23119 21.7833 7.54504C19.3413 10.956 18.0227 14.9521 18.0227 19.0941C18.0227 24.4545 20.1718 29.5226 24.0791 33.3235C24.4465 33.6813 24.8289 34.0184 25.2179 34.3455L24.7139 34.9318C28.5723 38.1969 33.5541 40 38.6826 40C43.7133 40 48.5485 38.2457 52.4073 35.127L51.821 34.4444Z" fill="#008CF0"/>
<path fill-rule="evenodd" clip-rule="evenodd" d="M22.2718 6.91159C22.1745 6.57045 22.1255 6.27817 22.1255 5.93707C22.1255 4.47509 23.1023 3.15905 24.8605 3.15905C25.2513 3.15905 25.5932 3.20784 25.8862 3.30542C26.1791 3.0619 26.521 2.81795 26.8628 2.62322C26.2769 2.28213 25.5932 2.0874 24.8605 2.0874C22.7115 2.0874 20.9043 3.79289 20.9043 5.93707C20.9043 6.66804 21.1488 7.39902 21.4903 7.98366C21.5881 7.83775 21.6859 7.69134 21.7832 7.59375C21.93 7.34982 22.1255 7.10677 22.2718 6.91159Z" fill="black"/>
<path fill-rule="evenodd" clip-rule="evenodd" d="M27.5467 3.11047C27.2048 3.3052 26.9118 3.50036 26.6189 3.74388C27.2537 4.23135 27.5956 5.05948 27.5956 5.93684C27.5956 7.39884 26.5211 8.66563 24.8606 8.66563C23.9323 8.66563 23.1997 8.27572 22.7115 7.64233C22.6138 7.78874 22.5159 7.88626 22.4182 8.03223C22.2719 8.22741 22.1256 8.42214 22.0274 8.61687C22.7604 9.29947 23.7372 9.73814 24.8606 9.73814C27.0581 9.73814 28.8168 8.08099 28.8168 5.93684C28.8168 4.81597 28.3282 3.79267 27.5467 3.11047Z" fill="black"/>
<path fill-rule="evenodd" clip-rule="evenodd" d="M20.5625 15.8779C20.5625 17.0476 19.8787 18.0709 18.8531 18.4608V19.0942V19.6304C20.5135 19.1918 21.7832 17.7297 21.7832 15.8779C21.7832 14.5623 21.051 13.3926 19.9765 12.6616C19.8298 13.0515 19.732 13.3926 19.5857 13.7337C20.2206 14.27 20.5625 15.0497 20.5625 15.8779Z" fill="black"/>
<path fill-rule="evenodd" clip-rule="evenodd" d="M18.0714 18.6557H17.8272C16.1668 18.6557 15.0429 17.3888 15.0429 15.8781C15.0429 14.4649 16.0201 13.1493 17.8272 13.1493C18.218 13.1493 18.6088 13.1977 18.9013 13.344C18.9996 13.0025 19.097 12.6619 19.2437 12.3207C18.804 12.1744 18.3154 12.0768 17.8272 12.0768C15.6293 12.0768 13.871 13.7827 13.871 15.8781C13.871 18.0711 15.6293 19.7278 17.8272 19.7278H18.0714C18.0714 19.533 18.0224 19.2891 18.0224 19.0944C18.0224 18.948 18.0714 18.8021 18.0714 18.6557Z" fill="black"/>
<path fill-rule="evenodd" clip-rule="evenodd" d="M20.6599 23.1876C22.4182 23.1876 23.3949 24.5032 23.3949 25.9164C23.3949 27.1832 22.6138 28.304 21.3926 28.5968C21.5877 28.9379 21.7834 29.2302 21.9785 29.5714C23.4928 29.0355 24.6162 27.6707 24.6162 25.9164C24.6162 23.821 22.809 22.1155 20.6599 22.1155C20.1229 22.1155 19.5855 22.2131 19.1462 22.4078C19.1947 22.7489 19.2436 23.1388 19.3414 23.4799C19.7321 23.2852 20.1714 23.1876 20.6599 23.1876Z" fill="black"/>
<path fill-rule="evenodd" clip-rule="evenodd" d="M17.9246 25.9164C17.9246 25.1854 18.1691 24.5032 18.6573 23.9674C18.5595 23.5775 18.4622 23.1876 18.4132 22.7977C17.3876 23.48 16.7039 24.6496 16.7039 25.9164C16.7039 28.1098 18.4622 29.766 20.6601 29.766C20.8063 29.766 21.002 29.766 21.1486 29.7177C20.953 29.3766 20.709 29.0355 20.5134 28.6944C18.9507 28.5968 17.9246 27.4272 17.9246 25.9164Z" fill="black"/>
<path fill-rule="evenodd" clip-rule="evenodd" d="M39.8548 22.2617V26.6964C39.8548 27.7197 39.513 28.6942 38.1944 28.6942C36.8753 28.6942 36.5335 27.7197 36.5335 26.6964V22.2617H35.3126V26.9399C35.3126 28.5478 36.3383 29.7663 38.1944 29.7663C40.0504 29.7663 41.0756 28.5478 41.0756 26.9399V22.2617H39.8548Z" fill="black"/>
<path fill-rule="evenodd" clip-rule="evenodd" d="M40.8317 8.56849H44.153V9.59179H39.6105V2.23352H40.8317V8.56849Z" fill="black"/>
<path fill-rule="evenodd" clip-rule="evenodd" d="M0 12.2231H4.29808V13.2948H1.22078V15.0495H4.24917V16.1216H1.22078V18.5093H4.29808V19.5814H0V12.2231Z" fill="black"/>
<path fill-rule="evenodd" clip-rule="evenodd" d="M24.2744 11.8334L29.354 17.0474V12.2232H30.5748V19.8738L25.4952 14.7573V19.5815H24.2744V11.8334Z" fill="black"/>
<path fill-rule="evenodd" clip-rule="evenodd" d="M54.5564 12.2233H55.7776V19.5815H54.5564V12.2233Z" fill="black"/>
<path fill-rule="evenodd" clip-rule="evenodd" d="M11.8684 23.3338V25.0881H14.5056V26.1118H11.8684V29.6199H10.6476V22.2617H14.6038V23.3338H11.8684Z" fill="black"/>
<path fill-rule="evenodd" clip-rule="evenodd" d="M16.7526 6.81408H16.8015L17.9735 2.23341H19.1462L17.0945 9.88443L14.5058 4.37758L11.9175 9.88443L9.8174 2.23341H11.0382L12.2105 6.81408L14.5058 2.08704L16.7526 6.81408Z" fill="black"/>
<path fill-rule="evenodd" clip-rule="evenodd" d="M44.9832 15.0007H44.9343L43.762 19.5813H42.59L44.6413 11.9308L47.23 17.486L49.8187 11.9308L51.9189 19.5813H50.6976L49.5253 15.0007H49.4764L47.23 19.7765L44.9832 15.0007Z" fill="black"/>
<path fill-rule="evenodd" clip-rule="evenodd" d="M45.6181 25.0395L44.4458 29.6201H43.2249L45.2762 21.9691L47.9138 27.476L50.5025 21.9691L52.5533 29.6201H51.3326L50.1602 25.0395L47.9138 29.7665L45.6181 25.0395Z" fill="black"/>
<path fill-rule="evenodd" clip-rule="evenodd" d="M29.2074 22.2617C29.8911 22.2617 30.6726 22.2617 31.2586 22.6028C31.8938 22.9439 32.2842 23.6749 32.2842 24.3571C32.2842 25.4291 31.552 26.3065 30.477 26.4037L32.8217 29.6199H31.4542L29.2563 26.5013H28.4258V29.6199H27.205V22.2617H29.2074ZM28.4258 25.5267H28.9633C29.94 25.5267 31.1123 25.5751 31.1123 24.4058C31.1123 23.2362 29.8911 23.285 28.9144 23.285H28.4258V25.5267Z" fill="black"/>
<path fill-rule="evenodd" clip-rule="evenodd" d="M33.3588 2.23315C34.0425 2.23315 34.8241 2.23315 35.41 2.57425C36.0453 2.91536 36.3868 3.64634 36.3868 4.32854C36.3868 5.40107 35.7035 6.27799 34.5801 6.3751L36.9731 9.59142H35.6056L33.3588 6.47269H32.5773V9.59142H31.3565V2.23315H33.3588ZM32.5773 5.49821H33.1147C34.0915 5.49821 35.2149 5.547 35.2149 4.37733C35.2149 3.20766 33.9936 3.25689 33.0658 3.25689H32.5773V5.49821Z" fill="black"/>
<path fill-rule="evenodd" clip-rule="evenodd" d="M47.523 8.56849H48.2067C49.8187 8.56849 51.3325 7.98341 51.3325 5.88803C51.3325 3.74385 49.8187 3.25682 48.2067 3.25682H47.523V8.56849ZM46.3018 2.23352H48.3041C50.6488 2.23352 52.5537 3.35396 52.5537 5.88803C52.5537 8.42208 50.6976 9.59179 48.3041 9.59179H46.3018V2.23352Z" fill="black"/>
<path fill-rule="evenodd" clip-rule="evenodd" d="M63.8362 18.3146C63.4453 18.5581 63.0056 18.6557 62.4686 18.6557C60.8566 18.6557 59.7336 17.4372 59.7336 15.9264C59.7336 14.4649 60.7103 13.1488 62.4686 13.1488C63.0056 13.1488 63.4453 13.2464 63.8362 13.4412L64.4222 12.5643C63.8851 12.272 63.2012 12.0768 62.4686 12.0768C60.3196 12.0768 58.5124 13.7827 58.5124 15.9264C58.5124 18.0711 60.3196 19.7278 62.4686 19.7278C63.2012 19.7278 63.8851 19.5814 64.4711 19.2403L63.8362 18.3146Z" fill="black"/>
<path fill-rule="evenodd" clip-rule="evenodd" d="M11.9175 18.3146C11.5267 18.5581 11.087 18.6557 10.5989 18.6557C8.93797 18.6557 7.81454 17.4372 7.81454 15.9264C7.81454 14.4649 8.79124 13.1488 10.5989 13.1488C11.087 13.1488 11.5267 13.2464 11.9175 13.4412L12.5523 12.5643C11.9664 12.272 11.2822 12.0768 10.5989 12.0768C8.40089 12.0768 6.64267 13.7827 6.64267 15.9264C6.64267 18.0711 8.40089 19.7278 10.5989 19.7278C11.2822 19.7278 11.9664 19.5814 12.5523 19.2403L11.9175 18.3146Z" fill="black"/>
<path fill-rule="evenodd" clip-rule="evenodd" d="M39.806 15.9266C39.806 14.4646 38.8292 13.149 37.071 13.149C35.2638 13.149 34.2867 14.4646 34.2867 15.9266C34.2867 17.4373 35.4101 18.6554 37.071 18.6554C38.6825 18.6554 39.806 17.4373 39.806 15.9266ZM41.0272 15.9266C41.0272 18.0707 39.2196 19.7279 37.071 19.7279C34.873 19.7279 33.1148 18.0707 33.1148 15.9266C33.1148 13.7824 34.873 12.0769 37.071 12.0769C39.2196 12.0769 41.0272 13.7824 41.0272 15.9266Z" fill="black"/>
</g>
</g>
<defs>
<clipPath id="clip0_87_3207">
<rect width="64.7619" height="40" fill="white"/>
</clipPath>
</defs>
</svg>
