<svg width="168" height="168" viewBox="0 0 168 168" fill="none" xmlns="http://www.w3.org/2000/svg">
<circle cx="84" cy="84" r="80" fill="#F4F5F8"/>
<g clip-path="url(#clip0_32_3283)">
<path d="M60 55H107.969C107.967 74.2737 107.969 93.5478 107.968 112.821H60V55ZM88.6512 60.9242C87.8024 61.2751 86.9994 61.7653 86.3596 62.4301C85.571 63.2211 85.0611 64.2644 84.8392 65.3535C84.6899 66.0318 84.65 66.7289 84.6649 67.4222C84.6649 75.3964 84.6649 83.3706 84.6649 91.3447C84.6456 92.4 84.7896 93.4713 85.1911 94.4524C85.4901 95.191 85.9465 95.8669 86.5281 96.4124C87.4462 97.3002 88.6416 97.8413 89.8616 98.175C91.175 98.5279 92.5379 98.6559 93.8942 98.6776C95.2003 98.694 96.5185 98.6121 97.7886 98.2895C98.7885 98.0378 99.7625 97.6218 100.567 96.967C101.348 96.3455 101.925 95.4885 102.266 94.554C102.629 93.5613 102.749 92.4963 102.748 91.4444C102.746 88.3525 102.752 85.2602 102.746 82.1679C100.217 82.1708 97.6889 82.1655 95.1604 82.1708C95.1594 85.2944 95.1599 88.4175 95.1599 91.5411C95.1666 91.9196 95.1681 92.3105 95.0159 92.6644C94.8542 93.0225 94.4666 93.2257 94.0843 93.2378C93.7146 93.257 93.2851 93.2334 93.0136 92.9479C92.7377 92.6899 92.6785 92.2893 92.6631 91.9306C92.6612 83.5516 92.6636 75.173 92.6617 66.7939C92.6602 66.4935 92.7079 66.1791 92.8778 65.9249C93.068 65.6144 93.444 65.4618 93.7974 65.4579C94.1845 65.4276 94.6125 65.5186 94.8754 65.8253C95.1527 66.1608 95.1734 66.6182 95.1599 67.0337C95.1599 68.6388 95.1599 70.244 95.1599 71.8496C95.1661 73.0768 95.1474 74.305 95.1695 75.5322C97.6952 75.5269 100.221 75.5331 102.746 75.5288C102.75 72.6984 102.747 69.868 102.748 67.0376C102.738 65.9336 102.581 64.8133 102.14 63.7936C101.795 63.0002 101.269 62.279 100.589 61.7393C99.8087 61.0941 98.8588 60.6878 97.8873 60.4273C96.6788 60.111 95.4252 60.0142 94.1801 60.0104C92.3088 60.0287 90.3994 60.2145 88.6512 60.9242ZM65.2372 60.2935C65.2376 73.0335 65.2367 85.7739 65.2376 98.5139C67.9029 98.5235 70.5687 98.5182 73.2339 98.5163C73.2325 94.3147 73.2339 90.1132 73.2335 85.9116C73.2407 85.1789 73.219 84.4456 73.2445 83.7138C73.6109 83.7182 73.9773 83.7138 74.3442 83.7148C75.2266 83.7076 76.1125 83.7466 76.9911 83.6421C77.9078 83.5419 78.8216 83.3402 79.6632 82.9555C80.2433 82.6859 80.7912 82.3321 81.237 81.8704C81.9842 81.1448 82.4555 80.1757 82.7044 79.1728C82.9649 78.1676 83.0044 77.1228 82.9875 76.0897C82.9875 73.2804 82.9875 70.4717 82.9875 67.6625C82.9976 66.908 82.9755 66.1498 82.846 65.4045C82.6524 64.2115 82.197 63.0242 81.3516 62.1393C80.718 61.4586 79.8914 60.9781 79.0146 60.6835C77.7778 60.2675 76.4606 60.1601 75.1631 60.1789C71.8647 60.1746 68.5663 60.1876 65.2684 60.1726C65.2607 60.2025 65.2449 60.2631 65.2372 60.2935ZM70.0733 101.028C69.6655 101.317 69.4777 101.812 69.3737 102.283C69.224 103.025 69.2115 103.786 69.212 104.54C69.2254 105.242 69.2437 105.956 69.4512 106.632C69.5779 107.021 69.8041 107.414 70.1878 107.598C70.6967 107.848 71.2981 107.85 71.844 107.739C71.9148 107.597 72.0597 107.695 72.1642 107.614C72.5869 107.405 72.8055 106.946 72.8907 106.503C72.9855 105.976 73.0125 105.429 72.9292 104.9C72.545 104.908 72.1618 104.873 71.7781 104.883C71.8151 105.266 71.8243 105.652 71.7964 106.035C71.7723 106.272 71.7588 106.526 71.6245 106.731C71.4911 106.949 71.1912 106.971 70.9697 106.898C70.7699 106.831 70.6876 106.612 70.6447 106.425C70.5407 105.947 70.5677 105.456 70.5374 104.972C70.5441 104.443 70.522 103.914 70.5537 103.386C70.5658 102.912 70.5639 102.43 70.6919 101.97C70.7242 101.874 70.7646 101.778 70.8315 101.701C70.9755 101.559 71.2152 101.54 71.3924 101.625C71.5446 101.686 71.5893 101.858 71.637 101.999C71.7342 102.46 71.7261 102.937 71.688 103.405C72.0857 103.405 72.4834 103.379 72.881 103.369C72.935 102.752 72.9557 102.093 72.7 101.515C72.5127 101.078 72.0544 100.822 71.5975 100.769C71.0833 100.71 70.5138 100.722 70.0733 101.028ZM84.1266 100.891C83.6996 101.06 83.429 101.473 83.2932 101.895C83.0862 102.546 83.0419 103.236 83.0203 103.915C83.0106 104.766 82.9928 105.632 83.21 106.463C83.3231 106.892 83.534 107.333 83.9249 107.573C84.3163 107.8 84.7915 107.841 85.233 107.783C85.5902 107.736 85.8406 107.445 86.0129 107.151C86.114 107.315 86.1935 107.493 86.3066 107.65C86.4525 107.719 86.6301 107.66 86.788 107.686C86.8184 107.637 86.8319 107.584 86.829 107.528C86.8275 106.39 86.8242 105.254 86.8304 104.116C86.2301 104.108 85.6292 104.11 85.0288 104.115C85.0322 104.44 85.0048 104.769 85.0443 105.093C85.2667 105.087 85.4901 105.091 85.713 105.09C85.6957 105.609 85.7804 106.163 85.5503 106.649C85.4097 106.939 85.0308 106.983 84.753 106.896C84.6047 106.849 84.5349 106.698 84.4901 106.562C84.3909 106.236 84.3803 105.892 84.3601 105.554C84.3365 104.847 84.3457 104.14 84.349 103.433C84.375 102.909 84.3452 102.362 84.5296 101.862C84.6475 101.504 85.2479 101.463 85.3774 101.833C85.5498 102.276 85.5122 102.766 85.492 103.232C85.8911 103.279 86.2955 103.208 86.6975 103.224C86.7288 102.624 86.7413 101.983 86.4544 101.437C86.2801 101.083 85.9147 100.858 85.5334 100.789C85.0683 100.708 84.5705 100.715 84.1266 100.891ZM90.2068 100.939C89.8168 101.134 89.5814 101.534 89.4543 101.937C89.2684 102.53 89.2357 103.156 89.2035 103.773C89.1967 104.574 89.1818 105.383 89.3243 106.175C89.4061 106.617 89.5506 107.077 89.8876 107.394C90.1981 107.689 90.6386 107.792 91.0551 107.803C91.5144 107.823 92.0218 107.774 92.38 107.455C92.8056 107.097 92.9024 106.507 92.9476 105.983C92.9606 105.629 92.9891 105.266 92.9202 104.918C92.5375 104.889 92.1456 104.874 91.7599 104.892C91.8095 105.221 91.7854 105.556 91.7893 105.888C91.7763 106.173 91.7643 106.478 91.6131 106.729C91.46 106.979 91.0989 106.981 90.8649 106.855C90.6305 106.672 90.615 106.352 90.577 106.082C90.5188 105.507 90.5371 104.927 90.5332 104.35C90.5356 103.674 90.5192 102.994 90.6049 102.322C90.6377 102.106 90.6757 101.877 90.8153 101.701C91.032 101.494 91.472 101.541 91.5712 101.849C91.7561 102.345 91.6843 102.889 91.6834 103.407C92.0767 103.402 92.4696 103.382 92.8629 103.368C92.9346 102.76 92.9313 102.116 92.7002 101.54C92.5187 101.09 92.0536 100.829 91.59 100.769C91.1273 100.717 90.6295 100.719 90.2068 100.939ZM95.1998 100.743C94.8402 100.759 94.4632 100.838 94.1797 101.072C93.8345 101.344 93.6616 101.772 93.5557 102.186C93.3699 102.974 93.3651 103.788 93.3708 104.592C93.3843 105.256 93.4175 105.927 93.601 106.568C93.7127 106.949 93.9048 107.336 94.2519 107.553C94.5976 107.782 95.0285 107.81 95.4314 107.807C95.8517 107.8 96.2985 107.708 96.6138 107.411C96.9562 107.081 97.1015 106.609 97.1969 106.156C97.3047 105.543 97.3437 104.92 97.3341 104.298C97.3423 103.656 97.3091 103.009 97.1868 102.377C97.09 101.912 96.9239 101.427 96.5551 101.106C96.1863 100.783 95.6707 100.725 95.1998 100.743ZM65.2434 100.847C65.2246 103.113 65.2502 105.379 65.2304 107.645C65.3575 107.704 65.5 107.675 65.6348 107.681C65.9256 107.674 66.2169 107.692 66.5067 107.673C66.5106 107.636 66.5188 107.563 66.5226 107.526C66.5188 106.71 66.5279 105.893 66.5183 105.077C66.8649 105.047 67.2183 105.099 67.5596 105.011C67.9631 104.935 68.3381 104.685 68.5264 104.314C68.795 103.794 68.8124 103.189 68.7864 102.617C68.7498 102.116 68.6034 101.576 68.2033 101.241C67.8649 100.959 67.4118 100.864 66.9809 100.849C66.4018 100.846 65.8226 100.849 65.2434 100.847ZM73.5348 100.847C73.5358 103.123 73.531 105.4 73.5373 107.676C73.8223 107.686 74.1073 107.676 74.3923 107.681C74.4997 107.68 74.6114 107.692 74.7129 107.649C74.6985 106.709 74.711 105.768 74.7062 104.827C74.7163 104.163 74.6802 103.499 74.7048 102.836C74.7332 103.065 74.7317 103.298 74.7673 103.527C74.958 104.914 75.2247 106.29 75.4409 107.673C75.8063 107.682 76.1732 107.691 76.5386 107.67C76.7066 106.595 76.9059 105.525 77.0735 104.45C77.1654 103.885 77.1996 103.312 77.2675 102.746C77.2651 104.39 77.2545 106.036 77.2651 107.681C77.6536 107.68 78.0416 107.683 78.4302 107.678C78.4379 105.401 78.4307 103.124 78.4335 100.847C77.8924 100.855 77.3508 100.838 76.8101 100.854C76.7379 101.025 76.7422 101.221 76.6975 101.402C76.4563 102.785 76.2165 104.168 75.9758 105.551C75.7004 103.988 75.4433 102.422 75.1891 100.856C74.6378 100.838 74.0861 100.854 73.5348 100.847ZM80.1557 100.848C79.8162 102.689 79.459 104.526 79.1066 106.364C79.0378 106.804 78.9169 107.237 78.8755 107.681C79.2674 107.685 79.6593 107.671 80.0512 107.687C80.1773 107.281 80.2009 106.847 80.2895 106.431C80.627 106.426 80.9645 106.425 81.302 106.431C81.3838 106.849 81.4416 107.272 81.5451 107.685C81.9847 107.669 82.4252 107.694 82.8652 107.672C82.8229 107.295 82.7189 106.928 82.6515 106.555C82.2634 104.681 81.8807 102.805 81.4907 100.932C81.4922 100.788 81.3256 100.83 81.2327 100.823C80.874 100.839 80.5105 100.792 80.1557 100.848ZM97.8478 100.846C97.8459 103.125 97.8406 105.403 97.8507 107.682C98.2406 107.661 98.6383 107.718 99.023 107.651C99.0143 106.016 99.0163 104.38 99.0167 102.745C99.0451 103.33 99.1332 103.909 99.2257 104.487C99.3966 105.537 99.5805 106.584 99.7562 107.633C99.7943 107.712 99.8915 107.671 99.9599 107.681C100.257 107.666 100.557 107.708 100.852 107.658C101.04 106.507 101.252 105.36 101.426 104.207C101.503 103.719 101.514 103.223 101.58 102.735C101.598 103.192 101.586 103.65 101.576 104.107C101.58 105.296 101.569 106.486 101.581 107.675C101.969 107.686 102.357 107.678 102.745 107.681C102.751 105.403 102.749 103.125 102.746 100.847C102.203 100.848 101.661 100.848 101.119 100.848C100.983 101.513 100.878 102.184 100.762 102.853C100.729 103.055 100.68 103.256 100.687 103.462C100.677 103.474 100.656 103.498 100.645 103.51C100.532 104.19 100.41 104.869 100.288 105.548C100.019 103.983 99.7639 102.416 99.4982 100.85C98.9484 100.844 98.3981 100.851 97.8478 100.846ZM87.4115 106.188C87.4086 106.681 87.413 107.175 87.4101 107.669C87.7895 107.695 88.1708 107.672 88.5511 107.681C88.6373 107.677 88.734 107.697 88.8092 107.643C88.7899 107.159 88.8048 106.674 88.8024 106.19C88.3388 106.18 87.8751 106.181 87.4115 106.188Z" fill="#E5382F"/>
<path d="M73.2393 65.7025C73.8647 65.6982 74.5329 65.7304 75.0847 66.0588C75.439 66.2629 75.646 66.6456 75.737 67.0337C75.8343 67.4285 75.8141 67.8377 75.8169 68.2407C75.8169 70.7601 75.8169 73.2799 75.8165 75.7993C75.8242 76.3448 75.8141 76.9312 75.517 77.4093C75.2474 77.8537 74.725 78.0597 74.2315 78.1305C73.9051 78.1854 73.572 78.2051 73.2407 78.1912C73.2239 75.2755 73.2383 72.3594 73.2335 69.4433C73.2374 68.1964 73.2263 66.9494 73.2393 65.7025Z" fill="#E5382F"/>
<path d="M94.9971 101.702C95.1185 101.568 95.3139 101.598 95.467 101.53C95.5455 101.631 95.688 101.657 95.7554 101.769C95.8652 101.933 95.9095 102.13 95.9345 102.323C96.026 102.977 95.9966 103.64 96.0019 104.299C95.9971 104.958 96.027 105.62 95.9283 106.273C95.8883 106.487 95.8402 106.736 95.6471 106.866C95.4771 106.957 95.2591 106.957 95.0848 106.879C94.844 106.733 94.8055 106.43 94.7608 106.178C94.6751 105.409 94.6987 104.635 94.6953 103.864C94.6919 103.383 94.7073 102.902 94.7526 102.423C94.7858 102.172 94.8185 101.896 94.9971 101.702Z" fill="#E5382F"/>
<path d="M66.5206 101.758C66.7869 101.707 67.1162 101.734 67.2784 101.982C67.4643 102.285 67.4686 102.659 67.47 103.004C67.4542 103.344 67.4397 103.726 67.1942 103.99C67.0141 104.159 66.7532 104.121 66.5274 104.124C66.5149 103.336 66.5269 102.547 66.5206 101.758Z" fill="#E5382F"/>
<path d="M80.4657 105.492C80.5379 104.545 80.7156 103.609 80.7753 102.662C80.8826 103.605 81.0126 104.546 81.1234 105.49C80.9038 105.494 80.6848 105.493 80.4657 105.492Z" fill="#E5382F"/>
<path d="M107.969 55H108V112.821H107.968C107.969 93.5478 107.967 74.2737 107.969 55Z" fill="white"/>
<path d="M88.6513 60.9242C90.3994 60.2145 92.3088 60.0287 94.1802 60.0104C95.4252 60.0142 96.6789 60.111 97.8873 60.4273C98.8588 60.6878 99.8087 61.0941 100.589 61.7392C101.269 62.2789 101.795 63.0001 102.14 63.7936C102.581 64.8133 102.738 65.9336 102.748 67.0375C102.747 69.8679 102.75 72.6984 102.747 75.5288C100.221 75.5331 97.6952 75.5268 95.1695 75.5321C95.1474 74.3049 95.1662 73.0768 95.1599 71.8496C95.1599 70.244 95.1599 68.6388 95.1599 67.0337C95.1734 66.6182 95.1527 66.1608 94.8754 65.8253C94.6125 65.5186 94.1845 65.4276 93.7974 65.4579C93.444 65.4618 93.068 65.6144 92.8779 65.9249C92.7079 66.1791 92.6603 66.4935 92.6617 66.7939C92.6636 75.173 92.6612 83.5516 92.6631 91.9306C92.6785 92.2893 92.7378 92.6899 93.0136 92.9479C93.2852 93.2334 93.7146 93.257 94.0844 93.2377C94.4666 93.2257 94.8542 93.0225 95.016 92.6643C95.1681 92.3105 95.1667 91.9195 95.1599 91.5411C95.1599 88.4175 95.1594 85.2944 95.1604 82.1708C97.6889 82.1655 100.217 82.1708 102.746 82.1679C102.752 85.2602 102.746 88.3525 102.748 91.4444C102.749 92.4963 102.629 93.5613 102.266 94.554C101.925 95.4885 101.348 96.3455 100.567 96.967C99.7625 97.6218 98.7886 98.0377 97.7886 98.2895C96.5185 98.6121 95.2004 98.6939 93.8942 98.6776C92.538 98.6559 91.175 98.5279 89.8616 98.1749C88.6416 97.8413 87.4462 97.3002 86.5281 96.4124C85.9465 95.8669 85.4901 95.191 85.1911 94.4524C84.7896 93.4712 84.6456 92.4 84.6649 91.3447C84.6649 83.3705 84.6649 75.3964 84.6649 67.4222C84.65 66.7289 84.6899 66.0318 84.8392 65.3534C85.0611 64.2644 85.571 63.2211 86.3596 62.4301C86.9994 61.7652 87.8025 61.2751 88.6513 60.9242Z" fill="white"/>
<path d="M65.2372 60.2934C65.2449 60.2631 65.2608 60.2025 65.2685 60.1726C68.5664 60.1875 71.8647 60.1745 75.1631 60.1789C76.4606 60.1601 77.7778 60.2675 79.0147 60.6834C79.8914 60.9781 80.718 61.4585 81.3516 62.1393C82.197 63.0242 82.6525 64.2114 82.846 65.4045C82.9755 66.1497 82.9977 66.908 82.9876 67.6624C82.9876 70.4717 82.9876 73.2804 82.9876 76.0896C83.0044 77.1228 82.9649 78.1676 82.7045 79.1728C82.4556 80.1757 81.9842 81.1448 81.237 81.8703C80.7912 82.332 80.2433 82.6859 79.6632 82.9555C78.8216 83.3402 77.9078 83.5419 76.9912 83.6421C76.1125 83.7465 75.2267 83.7075 74.3442 83.7148C73.9773 83.7138 73.6109 83.7181 73.2446 83.7138C73.219 84.4456 73.2407 85.1788 73.2335 85.9116C73.234 90.1132 73.2325 94.3147 73.234 98.5163C70.5687 98.5182 67.9029 98.5235 65.2377 98.5139C65.2367 85.7739 65.2377 73.0334 65.2372 60.2934ZM73.2393 65.7025C73.2263 66.9494 73.2373 68.1964 73.2335 69.4433C73.2383 72.3594 73.2239 75.2755 73.2407 78.1911C73.5719 78.2051 73.9051 78.1854 74.2315 78.1305C74.725 78.0597 75.2474 77.8537 75.517 77.4093C75.814 76.9312 75.8241 76.3448 75.8164 75.7993C75.8169 73.2799 75.8169 70.76 75.8169 68.2407C75.814 67.8377 75.8343 67.4285 75.737 67.0337C75.646 66.6456 75.439 66.2629 75.0846 66.0587C74.5329 65.7304 73.8647 65.6981 73.2393 65.7025Z" fill="white"/>
<path d="M70.0732 101.029C70.5138 100.722 71.0833 100.71 71.5975 100.769C72.0544 100.822 72.5127 101.078 72.7 101.515C72.9556 102.093 72.9349 102.752 72.881 103.369C72.4833 103.379 72.0857 103.405 71.688 103.405C71.726 102.937 71.7342 102.46 71.637 101.999C71.5893 101.858 71.5445 101.686 71.3924 101.625C71.2152 101.54 70.9755 101.559 70.8315 101.701C70.7646 101.778 70.7241 101.874 70.6919 101.97C70.5638 102.43 70.5657 102.912 70.5537 103.386C70.5219 103.914 70.5441 104.443 70.5373 104.972C70.5677 105.456 70.5407 105.947 70.6447 106.425C70.6876 106.612 70.7699 106.831 70.9697 106.898C71.1911 106.971 71.4911 106.949 71.6244 106.731C71.7588 106.526 71.7722 106.272 71.7963 106.035C71.8242 105.652 71.8151 105.266 71.778 104.883C72.1617 104.873 72.545 104.908 72.9292 104.9C73.0124 105.429 72.9855 105.976 72.8906 106.503C72.8054 106.946 72.5869 107.405 72.1641 107.614C72.0597 107.695 71.9148 107.597 71.844 107.739C71.298 107.85 70.6967 107.848 70.1878 107.598C69.8041 107.414 69.5778 107.021 69.4512 106.632C69.2437 105.956 69.2254 105.242 69.2119 104.54C69.2114 103.786 69.224 103.025 69.3737 102.283C69.4777 101.812 69.6654 101.317 70.0732 101.029Z" fill="white"/>
<path d="M84.1266 100.891C84.5705 100.715 85.0683 100.708 85.5334 100.789C85.9147 100.858 86.2801 101.083 86.4544 101.437C86.7413 101.983 86.7288 102.624 86.6975 103.224C86.2955 103.208 85.8911 103.279 85.492 103.232C85.5122 102.766 85.5498 102.276 85.3774 101.833C85.2479 101.463 84.6475 101.504 84.5296 101.862C84.3452 102.362 84.375 102.909 84.349 103.433C84.3457 104.14 84.3365 104.847 84.3601 105.554C84.3803 105.892 84.3909 106.236 84.4901 106.562C84.5349 106.698 84.6047 106.849 84.753 106.896C85.0308 106.983 85.4097 106.939 85.5502 106.649C85.7804 106.163 85.6956 105.609 85.713 105.09C85.4901 105.091 85.2667 105.087 85.0442 105.093C85.0048 104.769 85.0322 104.44 85.0288 104.115C85.6292 104.11 86.23 104.108 86.8304 104.116C86.8241 105.254 86.8275 106.39 86.829 107.527C86.8318 107.584 86.8184 107.637 86.788 107.686C86.6301 107.66 86.4525 107.719 86.3066 107.65C86.1934 107.493 86.114 107.315 86.0129 107.151C85.8405 107.445 85.5902 107.736 85.233 107.783C84.7915 107.841 84.3163 107.8 83.9249 107.573C83.5339 107.333 83.3231 106.892 83.2099 106.463C82.9928 105.632 83.0106 104.766 83.0202 103.915C83.0419 103.236 83.0862 102.546 83.2932 101.895C83.429 101.473 83.6996 101.06 84.1266 100.891Z" fill="white"/>
<path d="M90.2068 100.939C90.6295 100.719 91.1273 100.717 91.59 100.769C92.0536 100.829 92.5187 101.09 92.7002 101.54C92.9313 102.116 92.9347 102.76 92.8629 103.368C92.4696 103.382 92.0767 103.402 91.6834 103.407C91.6844 102.889 91.7561 102.345 91.5712 101.849C91.472 101.541 91.032 101.494 90.8153 101.701C90.6757 101.877 90.6377 102.106 90.605 102.322C90.5193 102.994 90.5356 103.674 90.5332 104.351C90.5371 104.927 90.5188 105.507 90.577 106.082C90.6151 106.352 90.6305 106.672 90.8649 106.855C91.0989 106.981 91.46 106.979 91.6131 106.729C91.7643 106.478 91.7763 106.173 91.7893 105.888C91.7855 105.556 91.8095 105.221 91.7599 104.892C92.1456 104.874 92.5375 104.889 92.9202 104.918C92.9891 105.266 92.9607 105.629 92.9477 105.983C92.9024 106.507 92.8056 107.097 92.38 107.455C92.0218 107.774 91.5144 107.823 91.0551 107.803C90.6387 107.792 90.1981 107.689 89.8876 107.394C89.5506 107.077 89.4062 106.617 89.3243 106.175C89.1818 105.383 89.1967 104.574 89.2035 103.773C89.2357 103.157 89.2685 102.53 89.4543 101.938C89.5814 101.535 89.8168 101.134 90.2068 100.939Z" fill="white"/>
<path d="M95.1999 100.744C95.6707 100.725 96.1863 100.783 96.5551 101.106C96.9239 101.427 97.09 101.912 97.1868 102.378C97.3091 103.009 97.3423 103.656 97.3341 104.298C97.3437 104.92 97.3047 105.544 97.1969 106.156C97.1016 106.609 96.9562 107.081 96.6139 107.411C96.2985 107.708 95.8517 107.801 95.4314 107.807C95.0285 107.81 94.5976 107.782 94.2519 107.553C93.9048 107.336 93.7127 106.949 93.601 106.569C93.4175 105.927 93.3843 105.256 93.3708 104.592C93.3651 103.788 93.3699 102.974 93.5557 102.186C93.6616 101.772 93.8345 101.344 94.1797 101.072C94.4632 100.838 94.8402 100.759 95.1999 100.744ZM94.9972 101.702C94.8186 101.896 94.7858 102.172 94.7526 102.423C94.7073 102.902 94.6919 103.383 94.6953 103.864C94.6987 104.635 94.6751 105.409 94.7608 106.178C94.8056 106.43 94.8441 106.733 95.0848 106.88C95.2591 106.958 95.4772 106.957 95.6471 106.866C95.8402 106.736 95.8883 106.487 95.9283 106.273C96.027 105.62 95.9971 104.958 96.0019 104.299C95.9966 103.64 96.026 102.977 95.9345 102.323C95.9095 102.13 95.8652 101.933 95.7554 101.769C95.688 101.657 95.5455 101.631 95.4671 101.53C95.314 101.598 95.1185 101.568 94.9972 101.702Z" fill="white"/>
<path d="M65.2435 100.847C65.8226 100.849 66.4018 100.845 66.981 100.849C67.4119 100.864 67.8649 100.959 68.2034 101.241C68.6035 101.576 68.7498 102.116 68.7864 102.617C68.8124 103.189 68.7951 103.794 68.5264 104.314C68.3382 104.685 67.9631 104.935 67.5597 105.011C67.2184 105.099 66.865 105.047 66.5183 105.077C66.528 105.893 66.5188 106.709 66.5227 107.526C66.5188 107.563 66.5106 107.636 66.5068 107.673C66.2169 107.692 65.9257 107.674 65.6349 107.681C65.5001 107.675 65.3576 107.704 65.2305 107.645C65.2502 105.379 65.2247 103.113 65.2435 100.847ZM66.5207 101.758C66.527 102.547 66.515 103.336 66.5275 104.124C66.7533 104.121 67.0142 104.159 67.1943 103.99C67.4398 103.725 67.4543 103.344 67.4701 103.004C67.4687 102.659 67.4644 102.285 67.2785 101.982C67.1163 101.734 66.787 101.707 66.5207 101.758Z" fill="white"/>
<path d="M73.5348 100.847C74.0861 100.854 74.6378 100.838 75.189 100.856C75.4432 102.422 75.7003 103.988 75.9757 105.551C76.2164 104.168 76.4562 102.785 76.6974 101.402C76.7422 101.221 76.7379 101.025 76.8101 100.854C77.3507 100.838 77.8924 100.855 78.4335 100.847C78.4306 103.124 78.4378 105.401 78.4301 107.678C78.0416 107.684 77.6536 107.68 77.265 107.681C77.2544 106.036 77.265 104.39 77.2674 102.746C77.1996 103.313 77.1654 103.885 77.0734 104.45C76.9059 105.525 76.7066 106.595 76.5385 107.67C76.1731 107.691 75.8063 107.682 75.4408 107.673C75.2247 106.29 74.958 104.914 74.7673 103.527C74.7317 103.298 74.7331 103.065 74.7047 102.836C74.6802 103.499 74.7163 104.163 74.7062 104.827C74.711 105.768 74.6985 106.709 74.7129 107.649C74.6113 107.692 74.4996 107.68 74.3923 107.681C74.1072 107.676 73.8222 107.686 73.5372 107.676C73.531 105.4 73.5358 103.123 73.5348 100.847Z" fill="white"/>
<path d="M80.1556 100.848C80.5105 100.792 80.874 100.839 81.2326 100.823C81.3256 100.83 81.4921 100.788 81.4907 100.932C81.8807 102.805 82.2634 104.681 82.6515 106.554C82.7189 106.928 82.8229 107.295 82.8652 107.672C82.4252 107.694 81.9847 107.669 81.5451 107.685C81.4416 107.272 81.3838 106.849 81.302 106.431C80.9645 106.425 80.627 106.426 80.2895 106.431C80.2009 106.847 80.1773 107.281 80.0512 107.687C79.6593 107.671 79.2674 107.685 78.8755 107.681C78.9169 107.237 79.0377 106.804 79.1066 106.364C79.459 104.526 79.8162 102.689 80.1556 100.848ZM80.4657 105.492C80.6848 105.493 80.9038 105.494 81.1234 105.49C81.0126 104.546 80.8826 103.605 80.7753 102.662C80.7156 103.609 80.5379 104.545 80.4657 105.492Z" fill="white"/>
<path d="M97.8478 100.846C98.3981 100.851 98.9484 100.844 99.4982 100.85C99.764 102.416 100.019 103.983 100.288 105.548C100.41 104.87 100.532 104.19 100.645 103.51C100.656 103.498 100.677 103.474 100.687 103.462C100.68 103.256 100.729 103.055 100.762 102.853C100.878 102.184 100.983 101.513 101.119 100.848C101.661 100.848 102.203 100.848 102.746 100.848C102.749 103.125 102.751 105.403 102.745 107.681C102.357 107.678 101.969 107.686 101.581 107.675C101.569 106.486 101.58 105.297 101.576 104.107C101.586 103.65 101.598 103.192 101.58 102.735C101.514 103.223 101.503 103.719 101.426 104.207C101.252 105.36 101.04 106.507 100.852 107.659C100.557 107.708 100.257 107.666 99.9599 107.681C99.8916 107.672 99.7943 107.712 99.7563 107.633C99.5806 106.584 99.3966 105.537 99.2257 104.487C99.1333 103.909 99.0452 103.33 99.0168 102.745C99.0163 104.38 99.0144 106.016 99.023 107.651C98.6384 107.718 98.2407 107.661 97.8507 107.682C97.8406 105.403 97.8459 103.125 97.8478 100.846Z" fill="white"/>
<path d="M87.4115 106.188C87.8751 106.181 88.3387 106.18 88.8024 106.19C88.8048 106.674 88.7899 107.159 88.8091 107.643C88.734 107.697 88.6372 107.677 88.5511 107.681C88.1707 107.672 87.7894 107.695 87.41 107.669C87.4129 107.175 87.4086 106.681 87.4115 106.188Z" fill="white"/>
</g>
<defs>
<clipPath id="clip0_32_3283">
<rect width="48" height="57.8215" fill="white" transform="translate(60 55)"/>
</clipPath>
</defs>
</svg>
