<svg width="168" height="168" viewBox="0 0 168 168" fill="none" xmlns="http://www.w3.org/2000/svg">
<circle cx="84" cy="84" r="80" fill="#F4F5F8"/>
<mask id="mask0_32_3282" style="mask-type:alpha" maskUnits="userSpaceOnUse" x="46" y="60" width="76" height="48">
<path fill-rule="evenodd" clip-rule="evenodd" d="M46 60H121.512V107.856H46V60Z" fill="white"/>
</mask>
<g mask="url(#mask0_32_3282)">
<path fill-rule="evenodd" clip-rule="evenodd" d="M93.5728 93.9738C94.2075 93.7014 94.5001 92.9625 94.2241 92.3343L80.3077 60.7464C80.0322 60.1186 79.2863 59.8293 78.6513 60.1037L46.7501 73.8799C46.1162 74.1541 45.8229 74.8914 46.0997 75.5204L60.0151 107.11C60.2927 107.737 61.0372 108.027 61.6719 107.753L93.5728 93.9738Z" fill="#F63433"/>
<path fill-rule="evenodd" clip-rule="evenodd" d="M78.159 71.3656H70.2027V84.6694H60.6588L69.9056 71.3656H55.8685L53.2767 75.1231H61.7771L52.4836 88.4261H71.4308L74.7674 83.644V75.1231H77.3215C80.2562 75.1231 82.3278 76.8399 82.3278 79.8953C82.3278 83.2228 79.9992 84.6694 77.2741 84.6694H75.2575V88.4261H78.159C83.026 88.4261 87.0787 84.6918 87.0787 79.8953C87.0787 75.0982 83.05 71.3656 78.159 71.3656Z" fill="white"/>
<path fill-rule="evenodd" clip-rule="evenodd" d="M88.1729 71.4147H92.2802L95.8013 78.2381C96.7309 80.0551 97.4448 81.8472 97.815 83.0736C97.6815 81.749 97.5506 79.563 97.523 78.3854L97.4448 71.4147H100.968V88.4752H97.0987L93.9476 81.9447C92.9421 79.8097 91.8015 77.4047 91.4565 76.3486C91.5905 77.7483 91.618 79.7617 91.643 81.1847L91.7491 88.4752H88.1729V71.4147Z" fill="#080A12"/>
<path fill-rule="evenodd" clip-rule="evenodd" d="M105.573 80.8947H109.238V80.7462C109.238 79.8081 109.143 79.313 108.859 78.8425C108.55 78.3494 108.101 78.1012 107.463 78.1012C106.258 78.1012 105.573 79.0896 105.573 80.8449V80.8947ZM111.152 85.2179L112.382 87.1944C110.987 88.3796 109.521 88.9492 107.819 88.9492C104.342 88.9492 102.097 86.3797 102.097 82.4017C102.097 80.1293 102.545 78.6213 103.608 77.3853C104.604 76.2249 105.809 75.6798 107.417 75.6798C108.811 75.6798 110.136 76.1752 110.915 77.0165C112.026 78.2017 112.523 79.9066 112.523 82.5513C112.523 82.8214 112.523 82.9198 112.523 83.315H105.524V83.415C105.524 85.3651 106.447 86.4781 108.079 86.4781C109.167 86.4781 110.183 86.0582 111.152 85.2179Z" fill="#080A12"/>
<path fill-rule="evenodd" clip-rule="evenodd" d="M121.262 75.7581L120.318 77.9915H117.928V84.5517C117.928 86.1845 118.261 86.6127 119.54 86.6127C119.873 86.6127 120.206 86.5348 120.874 86.3601L121.346 88.3692C120.263 88.7734 119.29 88.9491 118.318 88.9491C116.429 88.9491 114.899 88.1945 114.483 87.0643C114.261 86.5107 114.233 86.2585 114.233 85.0786V77.9915H112.816V75.8071H114.233C114.233 74.5513 114.233 73.6976 114.373 72.7431L118.15 71.8885C118.01 73.0685 117.928 74.4513 117.928 75.7581H121.262Z" fill="#080A12"/>
</g>
</svg>
