<svg width="568" height="269" fill="none" xmlns="http://www.w3.org/2000/svg"><g clip-path="url(#a)"><path d="M531.087 228.099c-.477-2.226-2.7-.159-3.733-.557-2.065-.795-1.43-2.703-2.939-3.737-.397-.238-3.256-1.987-2.144.478.636 1.431 1.668 3.021 1.986 4.372.238 1.273-.715 2.306-.159 3.499 2.065 4.929 3.653-.398 4.765-1.829.477-.874 2.542-.636 2.224-2.226Zm-8.498 6.997c-3.018-.954-11.516 5.724-5.957 7.473 3.256 1.034 2.78-.795 4.289-3.021.556-.795 4.13-3.896 1.668-4.452Zm-37.567-51.045c-.556-1.033-1.985-1.51-2.541-2.465-.397-.636.159-1.987-.08-2.146-.476-.557-1.509-.636-1.747-.795.318.477-1.906-2.068-1.509-1.909-2.144-1.272-9.292-4.373-11.754-3.259-5.957 2.623-2.542-.636-6.91-2.386-.635-.238-3.733-1.351-3.653.239.079.477 2.382 1.829 2.938 2.385.239.239 1.748 1.829 1.748 1.908.158.159.238.795.873 1.113.556.398 1.986.239 2.701.478 1.111.397 3.653 1.351 4.288 2.305.477.716-.556 1.908-.714 1.829.158.159.953.795 1.191 1.113-.397-.397 5.401 1.829 5.083 1.988 2.065-.159 1.985-2.385 4.289-1.829 1.112.239 1.985 2.147 3.335 2.703 2.86 1.193 3.733 1.113 2.462-1.272Zm-38.837-32.837c-.556-.397-3.971-1.51-2.144.239 1.112.795 4.289 7.474 4.289 2.942.079-1.273-1.033-2.465-2.145-3.181Zm-2.938 7.395c1.429 1.669 6.195 5.645 7.783 2.146 2.78-5.963-7.625-4.929-7.783-2.146Zm6.671 9.063c-.159-.636-6.83 1.193-6.91 1.591-1.112 2.782-2.382 4.85-1.667 7.871 1.747 6.361 1.111-.557 2.223-.875.953-.238 2.383 3.499 3.654 1.352.635-1.113-1.271-2.783-1.748-3.737-.238-.636 1.112-1.113.715-1.59-.079-.08-1.191-.795-1.112-.636-.159-.398-2.065.715-1.429-1.034.476-1.431 7.465 1.431 6.274-2.942Zm-7.386-24.17c-.715-.159-1.747.079-1.986.795-.476 2.067-.953 8.03 2.065 4.691-.238.239.715-3.498.794-3.26-.158-.954 1.112-1.908-.873-2.226Zm-2.462-9.303c-1.192.875-1.271 4.532.873 4.612 1.986 0 .715-5.963-.873-4.612Zm-212.294 39.437c-3.574-.954-7.784-1.511-11.119-3.022-2.701-1.192-3.018-2.385-4.448-5.009-3.097-5.247-10.642-7.792-16.122-10.018-3.416-1.431-4.448-.477-7.863-.238-2.701.159-4.924-1.59-7.863-1.352-3.336.239-4.289 2.942-7.386 3.657-2.383.477-6.036.159-7.625-1.51-2.779-2.863.795-5.645-.794-8.11-1.35-2.067-4.845.159-6.354-1.829-1.35-1.749 1.748-5.883-.635-7.156-2.541-1.431-4.289 2.068-5.639 2.942-3.097 2.067-6.354.557-8.419-2.305-1.27-1.75-2.144-4.055-2.223-6.282-.159-2.544 2.065-3.498 3.971-5.327 1.588-1.431 2.144-1.749 2.7-1.669.635.079 1.191.795 3.415.477 2.065-.239 1.35-1.034 3.812-1.352 1.668-.159 6.672.239 8.181 1.431 1.509 1.193 1.827 6.917 4.05 4.93 1.748-1.59-.397-5.327-.794-7.236-.794-4.134-.159-3.816 3.415-5.963 2.78-1.59 2.939-1.749 3.574-4.85.874-4.532.556-4.214 3.654-6.678 1.747-1.432 1.509-3.419 3.018-5.009.397-.318 3.812-1.75 4.447-1.511 2.065.636-.159.874.636 1.988.238.318-.477 2.067.714 2.385 1.112.238 2.463-2.306 3.177-2.783 1.668-1.113 5.719-.477 5.163-3.26-.477-2.385-4.527.636-6.036-.874-6.751-6.759 27.162-6.202 5.48-17.095-3.574-1.749-3.892-2.146-5.798-5.883-.238-.477-1.747-3.976-2.065-3.976-2.303-.636-.238.557-1.668 1.431-2.065 1.193-3.892 3.737-5.798.16-1.112-2.068-.317-2.704-.476-3.34-.08-.477-.477-.875-2.383-1.908-3.018-1.75-4.289-2.385-7.227-1.988-4.21.636-4.21.954-3.336 3.817.635 1.908 1.191 2.067 1.43 3.657.159.875-.874 1.272-.556 2.703.159.795 1.668 1.988 2.303 2.942.159.239.318.557.318.795-.08 1.51-1.589 1.67-2.304 2.862-1.429 2.465-.397 1.114-.873 4.214-.159 1.193.794 1.909-.715 2.147-2.939.477-3.733-4.214-4.606-5.566-.874-1.43-1.748-2.146-3.018-2.623-1.112-.477-2.542-.795-4.289-1.272-.318-.16-1.112-.16-2.065-.318-1.986-.239-4.607-.557-5.004-.795-1.191-.875-.397-1.988-1.112-3.18 0-.08-.079-.08-.079-.16-.159-.159-.238-.318-.477-.397-.556-.239-1.191.238-1.509-.477a6.064 6.064 0 0 1-.635-2.068c-.238-1.987.794-3.418 2.7-4.611.159-.16 2.86-1.113 2.86-.954.158-.16.794-1.75.555-1.59.477-.477 3.733-4.294 4.607-3.976 1.191.477 0 4.294 3.336 3.737 3.891-.557.635-3.419.873-5.009.318-2.067 2.621-3.021 2.859-5.009 0 .08-.794-3.975-.635-3.896-1.112-1.431-5.242-1.75-5.957-.874-.555.636 1.986 4.134-1.111 5.008-2.701.796-.556-1.828-2.383-3.26-1.112-.794-1.668.716-1.747.716-.477-.318-1.112-.556-1.906-1.272-.954-.795-1.748-3.419-2.939-5.407-1.191-2.226-2.7-3.657-4.845-1.351-1.906 2.067.318 3.816 2.065 5.407 1.668 1.59 2.78 3.02-.715 4.77-.317.159-.714.239-1.191.398-2.939.477-8.419-.16-10.642-.637-4.528-1.033-9.61.16-14.614 0 .159 0-2.144-2.385-2.7-2.782-1.748-1.034-4.925-1.193-6.831-1.67-6.433-1.59-11.119-2.306-17.472-.239-9.849 3.101-19.617-.556-29.863-1.828-5.242-.636-9.848.477-14.534 2.226-1.191.477-4.05.636-3.654 2.624.318 1.43 3.336 1.51 4.13 2.385 3.018 3.498-1.826 1.59-1.27 4.373.317 1.67 3.335 1.113 3.653 3.021.556 3.658-7.863 3.022-5.956 7.395.714 1.51 7.862 5.327 9.53 5.645 2.7.636 5.48-.318 7.863-1.113 3.335-1.114 7.386-3.42 10.96-3.34 2.939.08 6.91 2.306 9.769 3.18 6.433 2.068 7.624 8.349 12.707 12.404 3.336 2.624 9.372 3.657 12.072 6.838 1.748 2.067.795 4.293.556 7.235-.238 2.862-1.191 6.281 0 8.825 1.112 2.386 3.415 4.85 5.639 7.156 1.033 1.113 1.906 2.067 2.701 3.021 1.826 2.306 11.357 15.027 12.628 14.312 1.588-.875-3.098-5.486.714-3.339 2.065 1.192 4.607 6.678 5.957 8.745 2.224 3.26 4.527 4.691 7.307 5.805 2.065.795 4.289 1.351 7.068 2.226 2.462.795 3.654 1.272 5.798 2.703 1.112.795 2.065 1.749 3.256 2.147 1.43.477 3.336-.557 4.607 0 1.906.795 3.018 4.055 4.924 5.486 2.7 1.988 5.321 1.988 8.18 2.703 10.246 2.783-1.906 9.939-2.303 13.755-.635 6.043 5.321 12.562 8.816 17.174 1.747 2.385 3.733 3.021 5.957 5.009 2.541 2.306 2.144 3.657 1.906 6.679-1.033 11.449-3.415 23.852-2.939 35.381.238 5.327 2.383 11.767 4.051 16.935.794 2.386 2.859 5.804 6.036 4.691 3.971-1.431 0-6.519.079-9.382.08-4.214 2.621-13.039 5.401-16.14 2.065-2.306 5.639-3.101 7.863-5.327 2.144-2.147 2.065-4.214 4.765-5.725 1.668-.874 2.541-.556 3.653-2.305.715-1.034.953-2.465 1.43-3.658 1.032-2.624 1.747-6.758 3.415-8.984 3.812-4.85 10.96-1.749 11.993-9.144.397-2.862-.318-7.235 1.112-9.779 1.27-2.306 4.924-2.783 5.956-5.327 3.574-7.236-5.003-8.985-10.245-10.336ZM183.22 53.896c-2.382-1.51-2.303-3.578-4.289-5.407-.555-.556-1.35-1.033-2.144-1.43-1.588-.796-3.336-1.511-4.686-2.386-2.382-1.51-4.209-4.214-6.512-5.725a8.076 8.076 0 0 0-2.224-1.033c-2.462-.636-13.105-1.113-13.899 1.908-.159.239-.159.556-.238.795-.953 4.532 7.942 5.327 10.801 6.281 3.574 1.113 7.148 2.783 8.578 6.36.794 1.83 0 4.294.794 6.203 1.112 2.385 2.859 3.02 5.162 4.293 1.43.795 3.177 2.226 4.845 2.942.318.159.715.238.953.318 3.971.795 3.336-1.272 4.924-3.817.794-1.272 3.177-3.02 3.256-4.69.159-3.897-3.097-3.26-5.321-4.612Zm-40.505-16.06c-2.382-.478-5.003 2.067-2.144 3.657 3.177 1.828 5.162-3.658 2.144-3.658Zm-10.801 1.112c-4.527 2.704 2.7 6.918 3.812 5.486 3.415-3.1.477-8.11-3.812-5.486Zm-.794 8.19c-.477-1.431-2.701-1.988-3.654-3.022-1.429-1.749-1.509-4.69-3.812-5.645-3.097-1.351-6.989 1.988-10.166 1.272-3.336-.795-20.014-6.678-17.473 1.909 1.192 3.975 6.513 1.828 9.213 2.862 3.177 1.193 5.083 5.088 8.181 6.122 3.335 1.113 6.353-1.51 9.769-1.113 2.462.238 10.245 3.816 7.942-2.385Zm-11.04-15.345c-1.35-1.193-8.419-2.465-10.563-3.34-2.383-1.033-2.7-1.272-4.924-.795-.794.16-6.513 2.544-3.098 3.976 3.257 1.351 7.307 4.054 10.722 4.452 2.621.239 11.278-1.193 7.863-4.293Zm-1.43-6.838c-.397-3.975-8.498-.477-6.433 1.829 1.509 1.351 6.672.715 6.433-1.83Zm20.968 8.19c-.556-1.511-4.051-2.704-5.321-3.42-1.271-.795-1.509-1.749-3.336-1.749-1.271 0-4.289.716-2.303 2.704 1.588 1.59 3.018 3.339 4.924 4.213 1.906.795 7.307 1.75 6.036-1.749Zm43.205-22.343c-3.653-1.033-7.466-1.749-11.119-2.464-4.209-.795-7.466.159-11.675 1.033-4.13.795-8.339 1.59-12.469 2.386-2.065.397-4.527.079-3.653 2.067 2.065 4.69 13.898.795 14.772 2.624 1.112 2.305-7.386 2.385-7.942 2.385-3.654-.477-6.751-3.101-10.087-4.055-1.747-.477-8.101.477-7.704 2.862.477 2.783 6.354 5.486 8.737 6.36 1.429.478 2.779 1.273 4.209 1.114 1.112-.16 4.209-3.021 4.924-1.59 1.112 2.067-5.639 5.883-6.671 5.963-.715.08-10.087-3.976-7.228.159 1.112 1.59 3.733.477 5.004 1.67 1.032.874 1.43 5.009 2.7 5.009h7.228c1.747 0 8.339 1.113 9.689 0 4.765-3.658-4.527-4.612-6.91-4.055-1.588.397-5.638 3.021-6.512.318-.874-2.704 3.494-2.147 4.924-2.068 2.224.16 7.227 1.909 9.134 1.114 1.667-.716 1.111-2.624 2.064-4.294.795-1.272 2.701-1.908 3.336-3.26.159-.477-.476-1.43-.635-1.43.873-1.114 2.938-2.068 4.924-3.022 2.7-1.352 11.357-4.294 13.184-6.44 1.588-2.147 0-1.75-2.224-2.386Zm-51.703 12.88c-1.43-2.623-9.372-1.51-6.91 1.114 1.509.954 8.975 2.783 6.91-1.113Zm3.097.398c.953 1.51 2.78 1.59 3.256-.159.556-2.305-4.685-2.941-3.256.16Zm120.562-8.666c-.079-6.281-35.898-7.633-41.458-6.6-8.26 1.432-18.902 1.352-25.494 6.52-3.733 2.942-6.275 4.77-10.881 6.282-2.224.795-5.004 1.033-4.607 3.895.239 1.59 3.813 6.043 5.56 6.123 3.336.159 7.783-.477 10.881.795 3.653 1.51 7.545 6.28 10.404 9.064 5.639 5.486 5.242 15.424 7.227 22.58.715 2.465 2.224 6.36 5.083 7.235 4.607 1.352 4.289-6.997 6.433-9.461 1.748-1.988 2.78-.875 5.163-1.431 2.383-.557 3.018-1.431 4.606-3.26 2.78-3.34 5.639-4.055 9.769-5.645 5.56-2.068 11.199-10.893 10.166-17.095-.635-3.975-5.321-8.427-2.621-11.926 2.065-2.306 9.769-3.498 9.769-7.076Zm4.924 40.867c-3.018-.556-6.274-1.352-9.133-1.192-2.145.08-4.21.954-6.195 1.828-.953.477-1.112 1.75-.238 2.386 2.859 2.146 4.924 3.657 8.895 3.657 5.321 0 5.639-.954 7.624-4.691.477-.795 0-1.908-.953-1.988Zm258.994-6.52c-4.686-1.749-8.498-4.293-12.946-2.067-4.368 2.147-8.339 2.386-13.581 1.431-4.924-.874-6.353-5.565-10.563-7.791-4.05-2.147-10.722-.796-15.01-.796-2.065 0-3.972-.238-5.719.716-2.462 1.352-2.938 4.135-6.036 4.532-1.747.16-5.798-.954-7.465-1.59-3.654-1.51-2.224-3.657-4.686-5.884-1.112-.954-5.322-1.908-6.592-1.749-3.098.318-2.939 3.419-6.195 3.419-1.271 0-5.719-1.431-6.83-2.226-4.051-3.022.476-3.34.794-6.122.476-4.691-7.545-3.896-10.484-4.135-4.527-.397-10.325-1.908-14.772-1.272-4.448.636-8.975 4.373-12.867 6.36-1.27.716-3.732 1.432-4.765 2.545-1.747 1.829-1.509 3.419-3.892 4.93-1.35.874-4.209 2.782-5.877 2.782-2.621.16-3.891-1.908-6.512-1.749-1.748.16-5.242 1.908-6.592 2.862-.715.477-1.43.477-2.065 1.114-1.033 1.192-.159 3.498-1.827 4.373-1.827.874-5.004-1.273-6.91-1.432-3.335-.159-3.018 1.829-5.718 3.022-3.495 1.43-8.101.159-11.675 1.828-4.606 2.147-8.339 7.474-13.184 8.905-1.43.477-3.495.795-4.606-1.113-1.986-3.737 3.732-2.544 5.241-4.055 2.542-2.703-2.7-4.532-5.797-5.804-.477-.159-.795-.397-1.192-.477-3.415-1.67-9.61-6.281-13.343-6.44-4.05-.16-9.53 5.247-12.707 7.235-1.986 1.193-3.653 2.226-5.162 3.498-1.112.796-2.065 1.83-3.018 3.022-2.145 2.703-8.816 8.11-9.134 11.688-.159 1.351 1.986 4.85 3.177 5.565 2.7 1.67 3.653-1.113 6.274-.795 3.336.477 3.892 9.78 9.054 4.373.874-.954 2.224-4.93 2.383-6.202.238-2.305-1.43-4.373-.715-6.599.318-.874 2.7-3.657 5.083-5.327 1.986-1.431 3.892-2.067 4.686-.477.079.08.079.16.159.239.873 3.26-10.007 7.473-2.224 10.574 1.509.636 5.56-1.51 6.751.477 1.588 2.704-3.574 2.147-4.527 3.18-1.35 1.432-.238 3.26-2.303 4.692-2.065 1.51-5.639 2.782-8.181 3.578-3.653 1.113-7.783-.478-11.437.317-3.732.796-7.227 4.055-10.086 6.361-1.827 1.431-4.448 3.022-4.924 5.566-.556 3.021 3.018 5.486 1.032 8.348-1.429 2.067-3.812.477-5.956 1.431-2.383 1.113-4.13 5.645-2.304 8.269 2.304 3.34 9.61 3.34 12.073.716 1.826-1.988.397-5.486 2.7-7.713 1.429-1.431 4.924-3.1 6.751-3.418 3.971-.716 3.971 1.749 6.115 4.134.794.875 4.527 4.612 5.56 4.691 5.956.636-2.542-7.871-2.78-9.7-.159-.716.238-2.783.953-3.18 1.747-.875 1.35.238 2.303 1.351 1.112 1.272 2.145 3.896 3.415 5.407 1.748 2.226 5.004 9.302 7.387 9.461 2.382.159 1.667-3.259 3.653-2.941 1.668.238 2.541 4.134 5.004 4.691 2.144.477 4.527-1.273 6.75-.796 3.177.716 4.924 4.294 3.257 7.156-1.986 3.34-8.419 1.829-12.072 1.113-2.065-.397-5.242-1.51-7.307-1.351-3.336.318-3.733 3.18-7.386 2.385-2.224-.477-5.957-1.988-7.863-3.339-2.78-1.829-.874-1.114-1.747-3.817-.874-2.465-.239-1.908-3.018-2.067-2.78-.159-5.878.398-8.657.557-6.275.477-12.073 1.113-16.123 6.281-2.383 3.021-4.606 6.281-6.83 9.541-1.033 1.51-2.78 3.339-3.177 5.327-.636 3.18 1.747 6.599 1.429 10.097-.476 6.123 3.336 8.349 7.784 12.404 4.05 3.737 6.671 4.691 12.072 4.691 1.985 0 3.653-.08 5.48-.716 1.906-.636 3.733-2.624 5.877-2.226 1.35.238 3.018 2.385 4.448 2.942 3.018 1.192 2.541-.716 3.574 2.703.635 2.226 0 4.611.794 6.838.715 1.908 2.224 3.896 3.177 5.645 3.018 5.327 2.382 6.837 1.429 12.483-.794 4.77 2.065 6.917 3.018 11.449.477 2.306-.079 4.532 1.033 6.758.874 1.908 2.78 3.737 4.05 5.566 3.257 4.373 4.289 6.758 9.769 6.917 6.036.159 7.545-.477 10.643-5.327 1.27-1.988 1.906-3.101 2.382-5.407.636-3.021.636-2.783 2.701-4.85 2.382-2.385 1.191-2.783 1.747-5.804.477-2.385 1.668-3.339 3.336-5.168 3.335-3.578 3.891-6.361 2.859-11.529-.397-1.828-1.747-3.18-2.144-4.929-.795-3.022.555-3.817 2.303-5.804 3.018-3.499 7.783-6.6 9.61-11.052.873-2.147 1.429-5.963-.477-7.871-2.382-2.227-6.433-.875-9.372-3.022-3.574-2.623-5.877-4.134-7.624-8.189-.477-1.193-6.592-13.357-5.798-13.914.636-.398 8.339 8.587 9.134 9.78 2.779 3.895 4.288 11.449 10.086 11.449 3.336 0 10.246-2.704 12.628-4.612 3.415-2.703 5.242-9.779.08-12.483-3.098-1.669-2.701 1.114-5.48 1.511-2.939.477-3.892-2.385-5.242-4.85-.794-1.431-2.939-4.293 0-4.691 1.747-.238 3.733 4.135 5.639 4.691 2.224.636 4.05-.477 6.274.477 3.097 1.352 3.018 2.147 6.83 2.147 6.036 0 8.181 1.59 12.311 6.599 2.779 3.339 4.527 7.633 6.592 11.529 2.621 4.929 4.368 8.507 7.386 2.385 2.382-4.691 3.971-6.679 8.021-10.018 1.748-1.431 3.892-4.055 6.036-4.93 2.78-1.192 3.098-.397 4.607 2.386 1.588 3.101 1.112 3.26 3.971 4.691.953.477 1.827-.318 2.939.556.794.716 1.27 3.419 1.429 4.294.953 4.373.794 7.871 3.574 11.767 1.033 1.431 2.701 4.214 4.448 2.226 1.35-1.51-1.589-5.247-2.462-6.519-.795-1.114-4.13-3.976-1.271-4.85 2.621-.796 3.177 4.293 5.48 4.691 3.892.556 8.339-7.792 6.116-11.052-1.192-1.829-4.686-1.749-4.845-4.373-.238-3.976 4.447-1.272 6.274-1.352 3.495-.079 10.246-5.327 12.152-7.871 1.985-2.703 3.018-9.303 2.223-12.721-.556-2.704-2.7-3.976-2.065-6.838.715-3.101 3.654-3.658 6.275-2.147 2.224 1.113 2.621 4.691 4.765 5.327 5.321 1.431.477-4.691.318-5.883-.239-1.829.794-4.532 2.382-5.646 1.986-1.272 4.845.239 6.831-.795 2.938-1.51 5.877-8.984 6.592-12.164.397-1.511.476-4.373-.159-5.884-1.033-2.703-4.766-2.862-4.21-5.804.556-3.021 6.434-6.997 9.213-7.553 4.845-.875 8.816.954 12.946-1.75 1.509-1.033 10.722-8.825 11.993-2.703.794 4.135-8.34 6.997-8.975 11.37-.476 3.657 1.668 10.733 5.639 7.95 3.574-2.385 6.513-7.553 7.227-11.608.795-5.009 4.607-4.532 9.134-6.28 2.383-.875 4.686-2.386 7.068-3.022 1.43-.398 3.257.08 4.527-.477 2.145-.875 8.657-7.395 9.452-9.62 1.985-4.85-7.784-6.361-11.199-7.634Zm-193.312 58.916c-2.462 1.431-8.895-1.51-11.754-1.749-4.527-.397-9.293.159-6.592-5.804 1.111-2.385 1.667-2.942 4.368-3.419 2.065-.397 6.989-.556 7.704 2.067.794 2.624 11.992 5.725 6.274 8.905Zm13.74 7.076c-4.13 0-3.415-5.804-4.765-8.666-1.509-3.18-4.21-7.792 1.509-8.19 2.144-.158 3.732 1.352 4.606 3.34.238.477.477 1.034.556 1.59.318 1.113.477 2.226.556 3.26.238 2.862 1.906 8.666-2.462 8.666Zm-.635 75.931c-2.621 3.021-3.813 4.85-4.21 8.984-.238 3.26.636 9.78 5.639 6.997 2.7-1.431 3.098-7.633 3.654-10.415.714-2.783-.874-10.416-5.083-5.566Zm78.468-21.149c-.238-.159-9.133-5.566-6.354-1.113 1.43 2.385 11.199 15.186 12.072 6.837.318-2.941-3.256-4.134-5.718-5.724Zm7.942 8.269c-1.032 3.896 7.228 6.678 9.451 4.373 4.766-4.691-7.783-8.587-9.451-4.373Zm14.137-13.755c-.397-1.908.874-4.612-1.112-5.804-2.938-1.75-3.335 1.669-4.288 3.577-.874 1.988-1.43 3.022-3.336 4.294-1.191.795-5.639 1.113-3.574 3.737 1.985 2.465 6.115 7.553 9.928 5.963 1.429-.557 2.7-4.453 3.177-5.725 1.032-3.18-.159-3.021-.795-6.042Zm53.769 44.127c-.953-5.486-6.989-7.553-10.643-11.529-1.668-1.829-2.859-5.963-4.924-7.156-5.48-3.259-2.462 3.737-5.321 5.327-4.607 2.624-4.845-5.645-5.719-7.155-2.382-3.737-6.909-.477-8.815 1.431-2.701 2.703-4.686 1.749-7.466 3.498-2.065 1.352-2.859 4.93-5.48 5.963-2.065.795-5.798 1.511-7.386 3.022-2.065 2.067-.636 4.85.079 7.633.715 3.021 1.033 7.076 2.383 9.779 1.588 3.101 3.336 2.465 6.592 2.465 2.859 0 4.447-.08 6.91-1.113 3.415-1.431 5.321-4.055 9.133-2.386 1.35.557 2.383 2.147 3.812 2.545 1.271.397 2.065-.239 3.018-.159 4.924.477 2.78 3.26 6.036 6.44 3.654 3.578 11.358 1.033 13.978-2.385 3.972-4.532 4.925-10.018 3.813-16.22Z" fill="#E8EBF0"/></g><defs><clipPath id="a"><path fill="#fff" transform="translate(38)" d="M0 0h492.227v268.893H0z"/></clipPath></defs></svg>